<svg xmlns="http://www.w3.org/2000/svg" xmlns:xlink="http://www.w3.org/1999/xlink" version="1.1" id="&#1057;&#1083;&#1086;&#1081;_1" x="0px" y="0px" width="90px" height="90px" viewBox="0 0 90 90" enable-background="new 0 0 90 90" xml:space="preserve">
<path fill="#000000" d="M59.198,3.733H31.596c-3.374,0-6.149,2.626-6.149,6v71.456c0,3.375,2.775,6.259,6.149,6.259h27.608  c3.374,0,6.09-2.884,6.09-6.259V9.733C65.294,6.359,62.571,3.733,59.198,3.733z M42.125,9.63h6.407c0.372,0,0.672,0.225,0.672,0.595  c0,0.371-0.3,0.596-0.672,0.596h-6.407c-0.371,0-0.671-0.225-0.671-0.596C41.454,9.854,41.754,9.63,42.125,9.63z M45.371,83.691  c-1.539,0-2.786-1.247-2.786-2.785s1.247-2.785,2.786-2.785s2.786,1.247,2.786,2.785S46.909,83.691,45.371,83.691z M61.558,74.422  H29.183V16.664h32.375V74.422z"/>
<g>
</g>
<g>
</g>
<g>
</g>
<g>
</g>
<g>
</g>
<g>
</g>
</svg>