<?xml version="1.0" encoding="utf-8"?>
<!-- Generator: Adobe Illustrator 16.0.0, SVG Export Plug-In . SVG Version: 6.00 Build 0)  -->
<!DOCTYPE svg PUBLIC "-//W3C//DTD SVG 1.1//EN" "http://www.w3.org/Graphics/SVG/1.1/DTD/svg11.dtd">
<svg version="1.1" id="Layer_1" xmlns="http://www.w3.org/2000/svg" xmlns:xlink="http://www.w3.org/1999/xlink" x="0px" y="0px"
	 width="429.333px" height="52.667px" viewBox="0 0 429.333 52.667" enable-background="new 0 0 429.333 52.667"
	 xml:space="preserve">
<g>
	<g>
		<polygon fill-rule="evenodd" clip-rule="evenodd" fill="#27B67C" points="23.637,1.846 43.295,35.87 36.745,47.217 17.086,13.192 
					"/>
		<polygon fill-rule="evenodd" clip-rule="evenodd" fill="#556770" points="3.982,35.87 14.922,16.938 21.459,28.316 10.534,47.217 
					"/>
	</g>
	<g>
		<path fill="#556770" d="M109.056,26.406c-5.506,0-8.626,3.325-8.626,7.558v6.146c0,4.229,3.12,7.554,8.626,7.554
			c5.629,0,8.575-3.373,8.575-7.554v-6.146C117.631,29.781,114.685,26.406,109.056,26.406z M109.049,45.229
			c-5.29,0-4.973-3.52-4.973-8.141c0-4.649-0.317-8.246,4.973-8.246c5.292,0,4.933,3.597,4.933,8.246
			C113.982,41.735,114.341,45.229,109.049,45.229z"/>
		<path fill="#556770" d="M76.276,47.265H72l-3.136-8.341H57.098l-3.09,8.341h-4.065l10.925-27.474h4.74L76.276,47.265z
			 M67.851,36.088l-4.656-12.402h-0.381l-4.657,12.402H67.851z"/>
		<path fill="#556770" d="M83.023,47.274h-3.812V19.802h3.812V47.274z"/>
		<path fill="#556770" d="M98.323,47.698c-3.566,0.125-5.589-0.443-6.605-1.333c-1.016-0.888-1.523-2.575-1.523-5.058V28.862h-4.27
			v-2.498h4.27v-6.562h3.852v6.562h4.277v2.498h-4.277v12.656c0,1.467,0.281,2.448,0.846,2.941c0.566,0.496,1.709,0.742,3.432,0.742
			V47.698z"/>
		<path fill="#556770" d="M151.777,23.78h-3.81v-3.978h3.81V23.78z M151.777,47.274h-3.81V26.406h3.81V47.274z"/>
		<path fill="#556770" d="M142.899,38.415v-9.413c0-5.509-3.689-9.297-10.736-9.297c-6.889,0-10.799,3.723-10.799,9.297v9.413
			c0,5.574,3.91,9.298,10.799,9.298c2.141,0,3.966-0.351,5.476-0.991l2.634,2.637l2.08-2.088l-2.16-2.16
			C141.982,43.477,142.899,41.161,142.899,38.415z M134.241,39.159l-2.078,2.088l3.33,3.33c-0.877,0.314-1.969,0.482-3.334,0.482
			c-7.33,0-6.891-4.874-6.891-11.279c0-6.441-0.439-11.423,6.891-11.423c7.332,0,6.833,4.982,6.833,11.423
			c0,3.754,0.165,6.963-1.145,8.987L134.241,39.159z"/>
	</g>
	<g>
		<path fill="#556770" d="M178.872,29.477h-2.808v-1.02h6.886v1.02h-2.906v9.518h-1.172V29.477z"/>
		<path fill="#556770" d="M190.985,38.559c-0.948,0.381-2,0.573-3.147,0.573c-0.663,0-1.23-0.069-1.692-0.208
			c-0.739-0.21-1.23-0.646-1.474-1.309c-0.226-0.619-0.338-1.537-0.338-2.754V34.51c0-1.454,0.302-2.476,0.909-3.063
			c0.545-0.522,1.457-0.785,2.732-0.785c1.244,0,2.094,0.308,2.549,0.923c0.22,0.299,0.366,0.659,0.438,1.085
			c0.07,0.424,0.107,0.83,0.107,1.216c0,0.601-0.014,1.066-0.042,1.397c-0.647,0.026-1.228,0.041-1.743,0.041h-1.109
			c-1.156,0-2.046-0.05-2.672-0.151c0,1.056,0.135,1.793,0.4,2.211c0.327,0.51,0.976,0.764,1.947,0.764
			c0.975,0,1.909-0.191,2.797-0.57L190.985,38.559z M189.904,34.366v-0.66c0-0.721-0.14-1.236-0.419-1.543
			c-0.313-0.345-0.852-0.516-1.617-0.516c-0.919,0-1.547,0.199-1.883,0.599c-0.319,0.381-0.482,1.087-0.482,2.12H189.904z"/>
		<path fill="#556770" d="M199.655,38.629c-0.638,0.336-1.51,0.503-2.621,0.503c-0.657,0-1.14-0.052-1.449-0.151
			c-0.784-0.267-1.298-0.719-1.541-1.357c-0.17-0.445-0.269-0.924-0.297-1.439c-0.025-0.514-0.042-0.948-0.042-1.301
			c0-0.354,0.01-0.699,0.026-1.036c0.021-0.338,0.066-0.663,0.137-0.975c0.071-0.312,0.179-0.603,0.326-0.872
			c0.147-0.268,0.348-0.504,0.6-0.705c0.546-0.423,1.331-0.634,2.355-0.634c0.752,0,1.445,0.11,2.08,0.331
			c0.167,0.055,0.297,0.107,0.386,0.158l-0.347,1.019c-0.88-0.341-1.602-0.509-2.164-0.509c-0.566,0-0.975,0.065-1.239,0.193
			c-0.266,0.127-0.47,0.322-0.616,0.585c-0.248,0.45-0.371,1.276-0.371,2.479c0,0.48,0.017,0.921,0.046,1.317
			c0.032,0.397,0.112,0.739,0.243,1.022c0.27,0.588,0.83,0.883,1.675,0.883c0.849,0,1.671-0.148,2.47-0.441L199.655,38.629z"/>
		<path fill="#556770" d="M206.074,31.737c-0.897,0-1.807,0.264-2.735,0.791v6.467h-1.142v-8.195h1.005l0.109,0.848
			c0.502-0.409,1.121-0.701,1.865-0.875c0.304-0.074,0.658-0.11,1.068-0.11s0.768,0.046,1.082,0.142
			c0.313,0.094,0.56,0.244,0.742,0.451c0.337,0.371,0.504,1.051,0.504,2.031v5.709h-1.157V33.5c0-0.663-0.064-1.088-0.192-1.277
			c-0.129-0.192-0.281-0.319-0.459-0.386C206.588,31.77,206.358,31.737,206.074,31.737z"/>
		<path fill="#556770" d="M211.349,34.918c0-1.043,0.052-1.771,0.157-2.186c0.105-0.412,0.235-0.739,0.389-0.98
			c0.153-0.24,0.364-0.44,0.624-0.602c0.523-0.326,1.296-0.489,2.32-0.489c1.479,0,2.43,0.366,2.851,1.095
			c0.254,0.441,0.398,1.063,0.433,1.867c0.015,0.381,0.021,0.801,0.021,1.26s-0.014,0.887-0.043,1.283
			c-0.031,0.397-0.088,0.754-0.178,1.072c-0.084,0.316-0.206,0.594-0.361,0.83c-0.157,0.236-0.363,0.434-0.623,0.595
			c-0.504,0.313-1.239,0.469-2.209,0.469c-1.453,0-2.404-0.358-2.857-1.074c-0.282-0.446-0.445-1.069-0.489-1.874
			C211.359,35.799,211.349,35.377,211.349,34.918z M213.22,37.79c0.166,0.124,0.374,0.217,0.624,0.279
			c0.251,0.061,0.594,0.093,1.025,0.093c0.434,0,0.799-0.063,1.096-0.188c0.296-0.121,0.518-0.32,0.668-0.594
			c0.148-0.273,0.242-0.627,0.281-1.064c0.039-0.436,0.06-0.943,0.06-1.521s-0.017-1.061-0.053-1.447
			c-0.033-0.385-0.118-0.704-0.258-0.955c-0.275-0.498-0.889-0.744-1.838-0.744c-1.005,0-1.66,0.246-1.963,0.744
			c-0.15,0.251-0.249,0.572-0.289,0.964c-0.041,0.39-0.062,0.814-0.062,1.272c0,0.461,0.004,0.849,0.016,1.168
			c0.012,0.32,0.041,0.605,0.091,0.86c0.048,0.255,0.118,0.477,0.213,0.664C212.926,37.508,213.054,37.665,213.22,37.79z"/>
		<path fill="#556770" d="M221.224,27.287h1.136v11.708h-1.136V27.287z"/>
		<path fill="#556770" d="M281.106,27.287h1.135v11.708h-1.135V27.287z"/>
		<path fill="#556770" d="M225.438,34.918c0-1.043,0.051-1.771,0.158-2.186c0.104-0.412,0.235-0.739,0.389-0.98
			c0.154-0.24,0.363-0.44,0.625-0.602c0.521-0.326,1.294-0.489,2.318-0.489c1.48,0,2.431,0.366,2.852,1.095
			c0.252,0.441,0.396,1.063,0.434,1.867c0.014,0.381,0.021,0.801,0.021,1.26s-0.016,0.887-0.046,1.283
			c-0.029,0.397-0.089,0.754-0.175,1.072c-0.089,0.316-0.209,0.594-0.366,0.83c-0.155,0.236-0.36,0.434-0.619,0.595
			c-0.504,0.313-1.243,0.469-2.211,0.469c-1.452,0-2.404-0.358-2.855-1.074c-0.282-0.446-0.443-1.069-0.49-1.874
			C225.45,35.799,225.438,35.377,225.438,34.918z M227.311,37.79c0.163,0.124,0.373,0.217,0.621,0.279
			c0.252,0.061,0.594,0.093,1.027,0.093c0.433,0,0.798-0.063,1.093-0.188c0.299-0.121,0.522-0.32,0.67-0.594
			c0.149-0.273,0.243-0.627,0.28-1.064c0.041-0.436,0.061-0.943,0.061-1.521s-0.017-1.061-0.053-1.447
			c-0.035-0.385-0.119-0.704-0.258-0.955c-0.275-0.498-0.887-0.744-1.838-0.744c-1.005,0-1.658,0.246-1.963,0.744
			c-0.152,0.251-0.247,0.572-0.289,0.964c-0.041,0.39-0.063,0.814-0.063,1.272c0,0.461,0.005,0.849,0.017,1.168
			c0.015,0.32,0.042,0.605,0.091,0.86c0.048,0.255,0.12,0.477,0.213,0.664C227.015,37.508,227.145,37.665,227.311,37.79z"/>
		<path fill="#556770" d="M240.339,31.364l0.108-0.564h0.993l0.005,8.044c0,1.179-0.229,2.038-0.692,2.575
			c-0.496,0.568-1.333,0.854-2.515,0.854c-0.918,0-1.732-0.124-2.443-0.373c-0.181-0.059-0.317-0.113-0.416-0.164l0.359-0.971
			c0.082,0.027,0.205,0.072,0.364,0.134c0.16,0.062,0.353,0.124,0.579,0.183c0.568,0.151,1.091,0.227,1.568,0.227
			c0.475,0,0.838-0.047,1.095-0.145c0.259-0.096,0.459-0.244,0.603-0.447c0.238-0.339,0.356-0.957,0.356-1.852v-0.654
			c-0.876,0.614-1.805,0.923-2.782,0.923c-1.143,0-1.904-0.406-2.286-1.219c-0.221-0.46-0.351-1.039-0.387-1.743
			c-0.013-0.32-0.02-0.676-0.02-1.064c0-0.387,0.005-0.778,0.011-1.174c0.008-0.395,0.035-0.76,0.087-1.096
			c0.05-0.334,0.128-0.635,0.237-0.904c0.106-0.27,0.262-0.498,0.463-0.686c0.418-0.391,1.063-0.585,1.935-0.585
			C238.43,30.662,239.356,30.895,240.339,31.364z M240.304,32.315c-0.827-0.413-1.623-0.621-2.396-0.621
			c-0.562,0-0.93,0.047-1.109,0.139c-0.179,0.092-0.314,0.211-0.407,0.357c-0.096,0.148-0.174,0.35-0.232,0.607
			c-0.104,0.48-0.158,1.275-0.158,2.381v0.152c0,1.018,0.129,1.733,0.379,2.142c0.252,0.417,0.715,0.627,1.384,0.627h0.105
			c0.631,0,1.278-0.175,1.941-0.522c0.187-0.098,0.353-0.197,0.494-0.297V32.315z"/>
		<g>
			<path fill="#556770" d="M244.715,30.799h1.137v8.195h-1.137V30.799z"/>
			<path fill="#556770" d="M244.718,28.458h1.13v1.206h-1.13V28.458z"/>
		</g>
		<g>
			<path fill="#556770" d="M285.805,30.799h1.137v8.195h-1.137V30.799z"/>
			<path fill="#556770" d="M285.807,28.458h1.131v1.206h-1.131V28.458z"/>
		</g>
		<g>
			<path fill="#556770" d="M414.984,30.799h1.137v8.195h-1.137V30.799z"/>
			<path fill="#556770" d="M414.987,28.458h1.129v1.206h-1.129V28.458z"/>
		</g>
		<path fill="#556770" d="M255.434,36.087c0,0.915,0.044,1.865,0.129,2.851l-1.017,0.084l-0.175-0.957
			c-0.582,0.469-1.354,0.794-2.313,0.978c-0.313,0.06-0.59,0.09-0.834,0.09c-0.243,0-0.456-0.013-0.644-0.034
			c-0.185-0.023-0.362-0.068-0.538-0.134c-0.169-0.068-0.329-0.161-0.479-0.28c-0.145-0.12-0.274-0.277-0.386-0.475
			c-0.231-0.418-0.351-0.92-0.351-1.506c0-0.585,0.043-1.039,0.128-1.363s0.225-0.594,0.424-0.809
			c0.39-0.428,1.047-0.641,1.97-0.641c0.921,0,1.907,0.175,2.953,0.523V33.52c0-0.996-0.412-1.588-1.231-1.77
			c-0.266-0.061-0.572-0.09-0.915-0.09c-0.786,0-1.601,0.155-2.445,0.468l-0.255-0.991c0.234-0.156,0.829-0.297,1.788-0.42
			c0.306-0.037,0.667-0.056,1.095-0.056c0.424,0,0.839,0.05,1.249,0.152c0.408,0.101,0.748,0.265,1.02,0.495
			c0.551,0.455,0.826,1.191,0.826,2.211V36.087z M254.277,35.275c-1.076-0.271-2.067-0.406-2.977-0.406
			c-0.558,0-0.929,0.161-1.114,0.483c-0.124,0.225-0.188,0.557-0.188,0.996c0,0.441,0.025,0.762,0.072,0.957
			c0.05,0.198,0.129,0.362,0.239,0.491c0.216,0.243,0.571,0.365,1.069,0.365c0.772,0,1.543-0.2,2.304-0.599
			c0.237-0.12,0.446-0.254,0.634-0.401C254.289,36.667,254.277,36.038,254.277,35.275z"/>
		<path fill="#556770" d="M268.346,36.087c0,0.915,0.043,1.865,0.129,2.851l-1.018,0.084l-0.174-0.957
			c-0.582,0.469-1.354,0.794-2.313,0.978c-0.313,0.06-0.591,0.09-0.835,0.09c-0.241,0-0.458-0.013-0.644-0.034
			c-0.184-0.023-0.364-0.068-0.535-0.134c-0.174-0.068-0.33-0.161-0.48-0.28c-0.147-0.12-0.275-0.277-0.384-0.475
			c-0.235-0.418-0.351-0.92-0.351-1.506c0-0.585,0.042-1.039,0.129-1.363c0.084-0.324,0.222-0.594,0.422-0.809
			c0.391-0.428,1.046-0.641,1.969-0.641c0.921,0,1.906,0.175,2.952,0.523V33.52c0-0.996-0.409-1.588-1.23-1.77
			c-0.268-0.061-0.572-0.09-0.915-0.09c-0.786,0-1.601,0.155-2.445,0.468l-0.256-0.991c0.234-0.156,0.831-0.297,1.79-0.42
			c0.305-0.037,0.669-0.056,1.093-0.056c0.422,0,0.84,0.05,1.249,0.152c0.409,0.101,0.749,0.265,1.019,0.495
			c0.551,0.455,0.828,1.191,0.828,2.211V36.087z M267.186,35.275c-1.073-0.271-2.064-0.406-2.974-0.406
			c-0.559,0-0.932,0.161-1.115,0.483c-0.123,0.225-0.185,0.557-0.185,0.996c0,0.441,0.023,0.762,0.07,0.957
			c0.049,0.198,0.128,0.362,0.239,0.491c0.216,0.243,0.571,0.365,1.067,0.365c0.776,0,1.543-0.2,2.306-0.599
			c0.235-0.12,0.446-0.254,0.634-0.401C267.201,36.667,267.186,36.038,267.186,35.275z"/>
		<path fill="#556770" d="M272.567,38.506v3.621h-1.142V30.799h0.93l0.126,0.848c0.54-0.404,1.24-0.701,2.104-0.889
			c0.31-0.064,0.65-0.097,1.017-0.097c0.369,0,0.693,0.048,0.975,0.146c0.284,0.096,0.517,0.23,0.7,0.402
			c0.186,0.172,0.326,0.378,0.426,0.617c0.104,0.237,0.18,0.496,0.229,0.777c0.063,0.385,0.096,1,0.096,1.846v0.158
			c0,1.074-0.036,1.816-0.108,2.231c-0.074,0.413-0.171,0.754-0.289,1.021c-0.118,0.27-0.284,0.498-0.497,0.688
			c-0.436,0.389-1.112,0.585-2.023,0.585C274.193,39.132,273.346,38.922,272.567,38.506z M272.567,37.563
			c0.779,0.357,1.601,0.536,2.457,0.536c0.563,0,0.97-0.103,1.227-0.31c0.348-0.286,0.544-0.948,0.585-1.99
			c0.015-0.345,0.022-0.739,0.022-1.186v-0.151c0-1.056-0.093-1.762-0.276-2.12c-0.207-0.41-0.635-0.613-1.28-0.613h-0.104
			c-0.676,0-1.377,0.168-2.102,0.502c-0.21,0.098-0.388,0.197-0.529,0.297V37.563z"/>
		<path fill="#556770" d="M295.958,38.629c-0.638,0.336-1.511,0.503-2.624,0.503c-0.657,0-1.138-0.052-1.445-0.151
			c-0.785-0.267-1.3-0.719-1.542-1.357c-0.17-0.445-0.267-0.924-0.295-1.439c-0.03-0.514-0.042-0.948-0.042-1.301
			c0-0.354,0.008-0.699,0.029-1.036c0.016-0.338,0.061-0.663,0.131-0.975s0.179-0.603,0.33-0.872
			c0.145-0.268,0.344-0.504,0.595-0.705c0.548-0.423,1.332-0.634,2.355-0.634c0.754,0,1.448,0.11,2.082,0.331
			c0.166,0.055,0.296,0.107,0.385,0.158l-0.344,1.019c-0.882-0.341-1.604-0.509-2.167-0.509c-0.561,0-0.974,0.065-1.239,0.193
			c-0.263,0.127-0.468,0.322-0.616,0.585c-0.245,0.45-0.371,1.276-0.371,2.479c0,0.48,0.016,0.921,0.049,1.317
			c0.03,0.397,0.112,0.739,0.242,1.022c0.27,0.588,0.828,0.883,1.674,0.883c0.847,0,1.671-0.148,2.47-0.441L295.958,38.629z"/>
		<path fill="#556770" d="M304.773,36.087c0,0.915,0.044,1.865,0.131,2.851l-1.019,0.084l-0.172-0.957
			c-0.582,0.469-1.354,0.794-2.314,0.978c-0.312,0.06-0.591,0.09-0.834,0.09c-0.241,0-0.455-0.013-0.645-0.034
			c-0.185-0.023-0.365-0.068-0.535-0.134c-0.173-0.068-0.333-0.161-0.479-0.28c-0.146-0.12-0.275-0.277-0.386-0.475
			c-0.234-0.418-0.351-0.92-0.351-1.506c0-0.585,0.043-1.039,0.129-1.363c0.084-0.324,0.222-0.594,0.423-0.809
			c0.39-0.428,1.047-0.641,1.968-0.641c0.923,0,1.907,0.175,2.955,0.523V33.52c0-0.996-0.412-1.588-1.231-1.77
			c-0.266-0.061-0.57-0.09-0.918-0.09c-0.785,0-1.6,0.155-2.443,0.468l-0.257-0.991c0.236-0.156,0.834-0.297,1.792-0.42
			c0.302-0.037,0.667-0.056,1.092-0.056s0.842,0.05,1.25,0.152c0.408,0.101,0.749,0.265,1.018,0.495
			c0.551,0.455,0.827,1.191,0.827,2.211V36.087z M303.615,35.275c-1.073-0.271-2.063-0.406-2.973-0.406
			c-0.561,0-0.932,0.161-1.116,0.483c-0.123,0.225-0.186,0.557-0.186,0.996c0,0.441,0.025,0.762,0.072,0.957
			c0.047,0.198,0.127,0.362,0.238,0.491c0.214,0.243,0.57,0.365,1.066,0.365c0.777,0,1.545-0.2,2.307-0.599
			c0.237-0.12,0.447-0.254,0.635-0.401C303.629,36.667,303.615,36.038,303.615,35.275z"/>
		<path fill="#556770" d="M313.214,38.079c-0.97,0.703-1.952,1.054-2.951,1.054c-1.109,0-1.843-0.406-2.211-1.219
			c-0.214-0.46-0.329-0.944-0.355-1.458c-0.026-0.512-0.036-0.961-0.036-1.35c0-0.387,0.003-0.778,0.009-1.174
			c0.007-0.395,0.034-0.76,0.087-1.096c0.049-0.334,0.126-0.635,0.237-0.904c0.106-0.27,0.259-0.498,0.464-0.686
			c0.419-0.391,1.107-0.585,2.067-0.585c0.963,0,1.833,0.167,2.607,0.503v-3.877h1.144v7.94c0,1.584,0.043,2.82,0.131,3.711
			l-1.024,0.084L313.214,38.079z M313.132,32.108c-0.824-0.275-1.624-0.414-2.396-0.414c-0.562,0-0.93,0.047-1.107,0.139
			c-0.182,0.092-0.316,0.211-0.412,0.357c-0.095,0.148-0.171,0.35-0.229,0.607c-0.105,0.48-0.159,1.275-0.159,2.381v0.152
			c0,1.033,0.112,1.747,0.339,2.142c0.241,0.417,0.694,0.627,1.354,0.627h0.103c0.635,0,1.31-0.201,2.025-0.606
			c0.197-0.109,0.365-0.222,0.51-0.331v-0.013c-0.024-0.427-0.035-1.086-0.035-1.977L313.132,32.108z"/>
		<path fill="#556770" d="M323.56,36.087c0,0.915,0.042,1.865,0.132,2.851l-1.023,0.084l-0.169-0.957
			c-0.585,0.469-1.354,0.794-2.317,0.978c-0.309,0.06-0.588,0.09-0.83,0.09c-0.243,0-0.459-0.013-0.643-0.034
			c-0.188-0.023-0.366-0.068-0.539-0.134c-0.172-0.068-0.332-0.161-0.479-0.28c-0.146-0.12-0.276-0.277-0.385-0.475
			c-0.234-0.418-0.353-0.92-0.353-1.506c0-0.585,0.042-1.039,0.128-1.363c0.085-0.324,0.228-0.594,0.424-0.809
			c0.39-0.428,1.045-0.641,1.97-0.641c0.923,0,1.906,0.175,2.954,0.523V33.52c0-0.996-0.412-1.588-1.232-1.77
			c-0.268-0.061-0.572-0.09-0.918-0.09c-0.782,0-1.599,0.155-2.443,0.468l-0.257-0.991c0.235-0.156,0.833-0.297,1.794-0.42
			c0.301-0.037,0.665-0.056,1.089-0.056c0.426,0,0.843,0.05,1.253,0.152c0.407,0.101,0.746,0.265,1.019,0.495
			c0.551,0.455,0.826,1.191,0.826,2.211V36.087z M322.401,35.275c-1.072-0.271-2.065-0.406-2.974-0.406
			c-0.56,0-0.933,0.161-1.116,0.483c-0.125,0.225-0.184,0.557-0.184,0.996c0,0.441,0.023,0.762,0.071,0.957
			c0.048,0.198,0.128,0.362,0.236,0.491c0.215,0.243,0.573,0.365,1.067,0.365c0.775,0,1.545-0.2,2.309-0.599
			c0.234-0.12,0.443-0.254,0.632-0.401C322.415,36.667,322.401,36.038,322.401,35.275z"/>
		<path fill="#556770" d="M336.469,36.087c0,0.915,0.045,1.865,0.132,2.851l-1.019,0.084l-0.174-0.957
			c-0.584,0.469-1.354,0.794-2.313,0.978c-0.313,0.06-0.588,0.09-0.834,0.09c-0.245,0-0.458-0.013-0.643-0.034
			c-0.185-0.023-0.366-0.068-0.535-0.134c-0.174-0.068-0.336-0.161-0.48-0.28c-0.146-0.12-0.276-0.277-0.387-0.475
			c-0.234-0.418-0.352-0.92-0.352-1.506c0-0.585,0.044-1.039,0.129-1.363s0.226-0.594,0.422-0.809
			c0.391-0.428,1.048-0.641,1.972-0.641c0.923,0,1.909,0.175,2.955,0.523V33.52c0-0.996-0.411-1.588-1.236-1.77
			c-0.265-0.061-0.569-0.09-0.915-0.09c-0.785,0-1.6,0.155-2.443,0.468l-0.255-0.991c0.233-0.156,0.83-0.297,1.789-0.42
			c0.307-0.037,0.667-0.056,1.093-0.056c0.425,0,0.842,0.05,1.25,0.152c0.41,0.101,0.748,0.265,1.02,0.495
			c0.549,0.455,0.824,1.191,0.824,2.211V36.087z M335.314,35.275c-1.074-0.271-2.066-0.406-2.978-0.406
			c-0.559,0-0.93,0.161-1.111,0.483c-0.127,0.225-0.188,0.557-0.188,0.996c0,0.441,0.024,0.762,0.073,0.957
			c0.048,0.198,0.126,0.362,0.236,0.491c0.216,0.243,0.57,0.365,1.067,0.365c0.774,0,1.545-0.2,2.307-0.599
			c0.236-0.12,0.447-0.254,0.634-0.401C335.33,36.667,335.314,36.038,335.314,35.275z M331.575,27.192l0.86-0.862l2.239,2.43
			l-0.573,0.601L331.575,27.192z"/>
		<path fill="#556770" d="M349.527,38.559c-0.95,0.381-1.999,0.573-3.147,0.573c-0.666,0-1.231-0.069-1.695-0.208
			c-0.737-0.21-1.229-0.646-1.473-1.309c-0.226-0.619-0.336-1.537-0.336-2.754V34.51c0-1.454,0.301-2.476,0.908-3.063
			c0.546-0.522,1.456-0.785,2.734-0.785c1.244,0,2.094,0.308,2.548,0.923c0.22,0.299,0.364,0.659,0.438,1.085
			c0.07,0.424,0.105,0.83,0.105,1.216c0,0.601-0.012,1.066-0.04,1.397c-0.648,0.026-1.23,0.041-1.744,0.041h-1.109
			c-1.156,0-2.047-0.05-2.669-0.151c0,1.056,0.132,1.793,0.397,2.211c0.326,0.51,0.977,0.764,1.95,0.764
			c0.973,0,1.905-0.191,2.795-0.57L349.527,38.559z M348.446,34.366v-0.66c0-0.721-0.139-1.236-0.421-1.543
			c-0.315-0.345-0.851-0.516-1.618-0.516c-0.917,0-1.544,0.199-1.879,0.599c-0.321,0.381-0.481,1.087-0.481,2.12H348.446z"/>
		<path fill="#556770" d="M356.379,31.737c-0.895,0-1.807,0.264-2.734,0.791v6.467H352.5v-8.195h1.009l0.108,0.848
			c0.501-0.409,1.123-0.701,1.868-0.875c0.302-0.074,0.657-0.11,1.064-0.11c0.409,0,0.771,0.046,1.082,0.142
			c0.314,0.094,0.56,0.244,0.745,0.451c0.335,0.371,0.503,1.051,0.503,2.031v5.709h-1.158V33.5c0-0.663-0.064-1.088-0.192-1.277
			c-0.128-0.192-0.281-0.319-0.458-0.386S356.663,31.737,356.379,31.737z"/>
		<path fill="#556770" d="M367.169,31.364l0.11-0.564h0.99l0.007,8.044c0,1.179-0.23,2.038-0.695,2.575
			c-0.495,0.568-1.334,0.854-2.513,0.854c-0.916,0-1.732-0.124-2.445-0.373c-0.179-0.059-0.316-0.113-0.412-0.164l0.357-0.971
			c0.083,0.027,0.203,0.072,0.365,0.134c0.16,0.062,0.353,0.124,0.577,0.183c0.571,0.151,1.094,0.227,1.567,0.227
			c0.475,0,0.844-0.047,1.099-0.145c0.258-0.096,0.458-0.244,0.601-0.447c0.236-0.339,0.355-0.957,0.355-1.852v-0.654
			c-0.874,0.614-1.804,0.923-2.782,0.923c-1.142,0-1.901-0.406-2.285-1.219c-0.221-0.46-0.349-1.039-0.386-1.743
			c-0.014-0.32-0.019-0.676-0.019-1.064c0-0.387,0.003-0.778,0.009-1.174c0.008-0.395,0.038-0.76,0.087-1.096
			c0.05-0.334,0.129-0.635,0.238-0.904c0.106-0.27,0.261-0.498,0.464-0.686c0.42-0.391,1.062-0.585,1.932-0.585
			C365.262,30.662,366.188,30.895,367.169,31.364z M367.133,32.315c-0.823-0.413-1.623-0.621-2.395-0.621
			c-0.561,0-0.93,0.047-1.109,0.139c-0.179,0.092-0.316,0.211-0.412,0.357c-0.091,0.148-0.167,0.35-0.229,0.607
			c-0.104,0.48-0.156,1.275-0.156,2.381v0.152c0,1.018,0.123,1.733,0.377,2.142c0.254,0.417,0.715,0.627,1.384,0.627h0.104
			c0.633,0,1.28-0.175,1.942-0.522c0.188-0.098,0.352-0.197,0.494-0.297V32.315z"/>
		<path fill="#556770" d="M377.706,38.559c-0.951,0.381-1.998,0.573-3.147,0.573c-0.665,0-1.23-0.069-1.694-0.208
			c-0.739-0.21-1.23-0.646-1.474-1.309c-0.225-0.619-0.336-1.537-0.336-2.754V34.51c0-1.454,0.301-2.476,0.908-3.063
			c0.546-0.522,1.459-0.785,2.733-0.785c1.245,0,2.093,0.308,2.547,0.923c0.222,0.299,0.367,0.659,0.438,1.085
			c0.07,0.424,0.106,0.83,0.106,1.216c0,0.601-0.016,1.066-0.041,1.397c-0.648,0.026-1.227,0.041-1.742,0.041h-1.107
			c-1.158,0-2.047-0.05-2.672-0.151c0,1.056,0.132,1.793,0.398,2.211c0.325,0.51,0.975,0.764,1.949,0.764
			c0.973,0,1.904-0.191,2.795-0.57L377.706,38.559z M376.624,34.366v-0.66c0-0.721-0.138-1.236-0.419-1.543
			c-0.313-0.345-0.851-0.516-1.617-0.516c-0.921,0-1.546,0.199-1.882,0.599c-0.321,0.381-0.48,1.087-0.48,2.12H376.624z"/>
		<path fill="#556770" d="M384.556,31.737c-0.895,0-1.806,0.264-2.732,0.791v6.467h-1.146v-8.195h1.007l0.11,0.848
			c0.501-0.409,1.123-0.701,1.866-0.875c0.301-0.074,0.659-0.11,1.07-0.11c0.405,0,0.767,0.046,1.077,0.142
			c0.313,0.094,0.563,0.244,0.744,0.451c0.335,0.371,0.502,1.051,0.502,2.031v5.709h-1.157V33.5c0-0.663-0.062-1.088-0.192-1.277
			c-0.127-0.192-0.28-0.319-0.457-0.386C385.073,31.77,384.842,31.737,384.556,31.737z"/>
		<path fill="#556770" d="M393.943,31.729c-0.915,0-1.821,0.265-2.719,0.791v6.475h-1.144V27.287h1.115v4.36
			c0.474-0.404,1.087-0.695,1.844-0.875c0.305-0.074,0.663-0.11,1.075-0.11s0.777,0.046,1.089,0.142
			c0.312,0.094,0.559,0.244,0.742,0.451c0.33,0.371,0.497,1.051,0.497,2.031v5.709h-1.157v-5.502c0-0.662-0.063-1.088-0.191-1.278
			c-0.132-0.19-0.283-0.319-0.457-0.386C394.459,31.764,394.226,31.729,393.943,31.729z"/>
		<path fill="#556770" d="M405.738,36.087c0,0.915,0.046,1.865,0.132,2.851l-1.018,0.084l-0.173-0.957
			c-0.584,0.469-1.355,0.794-2.314,0.978c-0.312,0.06-0.589,0.09-0.834,0.09c-0.243,0-0.459-0.013-0.642-0.034
			c-0.188-0.023-0.366-0.068-0.538-0.134c-0.173-0.068-0.331-0.161-0.48-0.28c-0.146-0.12-0.273-0.277-0.384-0.475
			c-0.235-0.418-0.353-0.92-0.353-1.506c0-0.585,0.044-1.039,0.129-1.363c0.083-0.324,0.226-0.594,0.421-0.809
			c0.392-0.428,1.049-0.641,1.97-0.641c0.925,0,1.907,0.175,2.955,0.523V33.52c0-0.996-0.411-1.588-1.23-1.77
			c-0.268-0.061-0.573-0.09-0.918-0.09c-0.786,0-1.598,0.155-2.444,0.468l-0.256-0.991c0.234-0.156,0.834-0.297,1.793-0.42
			c0.301-0.037,0.666-0.056,1.089-0.056c0.427,0,0.843,0.05,1.251,0.152c0.408,0.101,0.748,0.265,1.021,0.495
			c0.552,0.455,0.824,1.191,0.824,2.211V36.087z M404.581,35.275c-1.072-0.271-2.064-0.406-2.971-0.406
			c-0.563,0-0.935,0.161-1.118,0.483c-0.124,0.225-0.186,0.557-0.186,0.996c0,0.441,0.023,0.762,0.074,0.957
			c0.046,0.198,0.125,0.362,0.236,0.491c0.214,0.243,0.569,0.365,1.067,0.365c0.774,0,1.543-0.2,2.307-0.599
			c0.235-0.12,0.444-0.254,0.634-0.401C404.595,36.667,404.581,36.038,404.581,35.275z"/>
		<path fill="#556770" d="M411.798,31.798c-0.587,0-1.187,0.294-1.796,0.882v6.314h-1.146v-8.195h1.006l0.111,1.088
			c0.214-0.334,0.448-0.596,0.699-0.785c0.249-0.188,0.456-0.303,0.615-0.344c0.229-0.064,0.447-0.097,0.653-0.097
			s0.469,0.042,0.78,0.124l-0.104,1.096C412.383,31.827,412.111,31.798,411.798,31.798z"/>
		<path fill="#556770" d="M425.715,36.087c0,0.915,0.043,1.865,0.132,2.851l-1.021,0.084l-0.172-0.957
			c-0.582,0.469-1.354,0.794-2.313,0.978c-0.313,0.06-0.591,0.09-0.833,0.09c-0.245,0-0.458-0.013-0.646-0.034
			c-0.185-0.023-0.363-0.068-0.537-0.134c-0.17-0.068-0.332-0.161-0.479-0.28c-0.146-0.12-0.274-0.277-0.387-0.475
			c-0.229-0.418-0.348-0.92-0.348-1.506c0-0.585,0.041-1.039,0.125-1.363s0.228-0.594,0.424-0.809
			c0.39-0.428,1.048-0.641,1.971-0.641s1.907,0.175,2.954,0.523V33.52c0-0.996-0.411-1.588-1.234-1.77
			c-0.266-0.061-0.57-0.09-0.915-0.09c-0.783,0-1.6,0.155-2.445,0.468l-0.254-0.991c0.235-0.156,0.83-0.297,1.788-0.42
			c0.307-0.037,0.667-0.056,1.093-0.056s0.843,0.05,1.251,0.152c0.407,0.101,0.747,0.265,1.019,0.495
			c0.551,0.455,0.826,1.191,0.826,2.211V36.087z M424.559,35.275c-1.072-0.271-2.065-0.406-2.974-0.406
			c-0.563,0-0.933,0.161-1.115,0.483c-0.126,0.225-0.189,0.557-0.189,0.996c0,0.441,0.026,0.762,0.075,0.957
			c0.047,0.198,0.126,0.362,0.236,0.491c0.216,0.243,0.572,0.365,1.066,0.365c0.776,0,1.545-0.2,2.311-0.599
			c0.231-0.12,0.443-0.254,0.632-0.401C424.573,36.667,424.559,36.038,424.559,35.275z"/>
	</g>
	<rect x="164.67" y="17.419" fill="#27B67C" width="0.394" height="33.704"/>
</g>
</svg>
