<?xml version="1.0" encoding="utf-8"?>
<!-- Generator: Adobe Illustrator 16.0.0, SVG Export Plug-In . SVG Version: 6.00 Build 0)  -->
<!DOCTYPE svg PUBLIC "-//W3C//DTD SVG 1.1//EN" "http://www.w3.org/Graphics/SVG/1.1/DTD/svg11.dtd">
<svg version="1.1" id="Layer_1" xmlns="http://www.w3.org/2000/svg" xmlns:xlink="http://www.w3.org/1999/xlink" x="0px" y="0px"
	 width="151.228px" height="50.042px" viewBox="0 0 151.228 50.042" enable-background="new 0 0 151.228 50.042"
	 xml:space="preserve">
<g>
	<path fill="none" d="M106.068,26.997c-5.291,0-4.973,3.596-4.973,8.246c0,4.621-0.318,8.141,4.973,8.141S111,39.89,111,35.243
		C111,30.593,111.359,26.997,106.068,26.997z"/>
	<polygon fill="none" points="59.832,21.84 55.175,34.243 64.869,34.243 60.213,21.84 	"/>
	<path fill="none" d="M129.177,20.511c-7.33,0-6.891,4.982-6.891,11.423c0,6.404-0.439,11.279,6.891,11.279
		c1.365,0,2.457-0.168,3.334-0.482l-3.33-3.33l2.078-2.088l3.605,3.607c1.311-2.023,1.145-5.232,1.145-8.986
		C136.009,25.493,136.509,20.511,129.177,20.511z"/>
	<polygon fill="#556770" points="1,34.024 7.552,45.372 18.478,26.47 11.94,15.093 	"/>
	<path fill="#556770" d="M106.074,24.56c-5.506,0-8.625,3.326-8.625,7.559v6.145c0,4.23,3.119,7.555,8.625,7.555
		c5.629,0,8.576-3.373,8.576-7.555v-6.145C114.65,27.935,111.703,24.56,106.074,24.56z M106.068,43.384
		c-5.291,0-4.973-3.52-4.973-8.141c0-4.65-0.318-8.246,4.973-8.246S111,30.593,111,35.243C111,39.89,111.359,43.384,106.068,43.384z
		"/>
	<path fill="#556770" d="M57.886,17.945L46.961,45.419h4.065l3.09-8.34h11.767l3.136,8.34h4.275L62.626,17.945H57.886z
		 M55.175,34.243l4.657-12.403h0.381l4.656,12.403H55.175z"/>
	<rect x="76.23" y="17.957" fill="#556770" width="3.811" height="27.472"/>
	<path fill="#556770" d="M91.064,17.957h-3.852v6.562h-4.27v2.498h4.27v12.445c0,2.482,0.508,4.17,1.523,5.057
		c1.016,0.891,3.039,1.459,6.605,1.334v-2.496c-1.723,0-2.865-0.246-3.432-0.742c-0.564-0.494-0.846-1.475-0.846-2.941V27.017h4.277
		v-2.498h-4.277V17.957z"/>
	<rect x="144.986" y="17.957" fill="#556770" width="3.809" height="3.978"/>
	<rect x="144.986" y="24.56" fill="#556770" width="3.809" height="20.869"/>
	<path fill="#556770" d="M129.181,17.859c-6.889,0-10.799,3.723-10.799,9.296v9.414c0,5.574,3.91,9.297,10.799,9.297
		c2.141,0,3.965-0.35,5.475-0.99l2.635,2.637l2.08-2.088l-2.16-2.16c1.789-1.633,2.707-3.949,2.707-6.695v-9.414
		C139.917,21.647,136.228,17.859,129.181,17.859z M134.865,40.921l-3.605-3.607l-2.078,2.088l3.33,3.33
		c-0.877,0.314-1.969,0.482-3.334,0.482c-7.33,0-6.891-4.875-6.891-11.279c0-6.441-0.439-11.423,6.891-11.423
		c7.332,0,6.832,4.982,6.832,11.423C136.009,35.688,136.175,38.897,134.865,40.921z"/>
	<polygon fill="#27B67C" points="14.104,11.347 33.763,45.372 40.313,34.024 20.655,0 	"/>
</g>
</svg>
