<svg xmlns="http://www.w3.org/2000/svg" xmlns:xlink="http://www.w3.org/1999/xlink" version="1.1" id="Your_Icon" x="0px" y="0px" width="100px" height="100px" viewBox="0 0 100 100" enable-background="new 0 0 100 100" xml:space="preserve">
<path d="M83.012,17.5c0-0.527-0.271-0.99-0.682-1.258L66.477,2.637c-0.15-0.129-0.324-0.211-0.505-0.271C65.709,2.141,65.373,2,65,2  H18.5C17.671,2,17,2.671,17,3.5v93c0,0.828,0.671,1.5,1.5,1.5h63c0.828,0,1.5-0.672,1.5-1.5V18c0-0.067-0.011-0.13-0.02-0.195  C83.001,17.707,83.012,17.604,83.012,17.5z M20,95V5h44v12.5c0,0.829,0.672,1.5,1.5,1.5H80v76H20z"/>
<g>
	<path d="M71,38H30c-0.829,0-1.5-0.671-1.5-1.5S29.171,35,30,35h41c0.828,0,1.5,0.671,1.5,1.5S71.828,38,71,38z"/>
</g>
<g>
	<path d="M71,65H30c-0.829,0-1.5-0.672-1.5-1.5S29.171,62,30,62h41c0.828,0,1.5,0.672,1.5,1.5S71.828,65,71,65z"/>
</g>
<path d="M59.784,49.23l-13.485-8.485c-0.462-0.291-1.045-0.307-1.524-0.043C44.297,40.966,44,41.469,44,42.015v16.971  c0,0.546,0.297,1.049,0.775,1.313c0.226,0.124,0.476,0.187,0.725,0.187c0.278,0,0.555-0.077,0.799-0.23l13.485-8.485  c0.437-0.274,0.701-0.754,0.701-1.27S60.221,49.505,59.784,49.23z"/>
</svg>