<svg xmlns="http://www.w3.org/2000/svg" xmlns:xlink="http://www.w3.org/1999/xlink" version="1.1" id="Your_Icon" x="0px" y="0px" width="100px" height="100px" viewBox="0 0 100 100" enable-background="new 0 0 100 100" xml:space="preserve">
<path d="M83.012,17.5c0-0.527-0.271-0.99-0.682-1.258L66.477,2.637c-0.15-0.129-0.324-0.211-0.505-0.271C65.709,2.141,65.373,2,65,2  H18.5C17.671,2,17,2.671,17,3.5v93c0,0.828,0.671,1.5,1.5,1.5h63c0.828,0,1.5-0.672,1.5-1.5V18c0-0.067-0.011-0.13-0.02-0.195  C83.001,17.707,83.012,17.604,83.012,17.5z M20,95V5h44v12.5c0,0.829,0.672,1.5,1.5,1.5H80v76H20z"/>
<g>
	<path fill="#000000" d="M67.1,49.987c0-9.41-7.63-17.041-17.041-17.041c-9.412,0-17.043,7.63-17.044,17.042   c0.001,9.413,7.631,17.043,17.044,17.043C59.471,67.033,67.1,59.4,67.1,49.987z M57.007,59.781l-6.997-6.998l-7.127,7.127   c-0.586,0.586-1.535,0.586-2.121,0s-0.586-1.535,0-2.121l7.127-7.126l-7.336-7.335c-0.585-0.586-0.585-1.536,0-2.121   c0.586-0.586,1.535-0.587,2.121,0l7.336,7.335l7.205-7.205c0.585-0.586,1.535-0.586,2.121,0c0.585,0.585,0.585,1.535,0,2.121   l-7.205,7.205l6.998,6.998c0.585,0.586,0.585,1.535,0,2.121C58.543,60.367,57.593,60.367,57.007,59.781z"/>
</g>
</svg>