<svg xmlns="http://www.w3.org/2000/svg" xmlns:xlink="http://www.w3.org/1999/xlink" version="1.1" id="Your_Icon" x="0px" y="0px" width="100px" height="100px" viewBox="0 0 100 100" enable-background="new 0 0 100 100" xml:space="preserve">
<path d="M83.012,17.5c0-0.527-0.271-0.99-0.682-1.258L66.477,2.637c-0.15-0.129-0.324-0.211-0.505-0.271C65.709,2.141,65.373,2,65,2  H18.5C17.671,2,17,2.671,17,3.5v93c0,0.828,0.671,1.5,1.5,1.5h63c0.828,0,1.5-0.672,1.5-1.5V18c0-0.067-0.011-0.13-0.02-0.195  C83.001,17.707,83.012,17.604,83.012,17.5z M20,95V5h44v12.5c0,0.829,0.672,1.5,1.5,1.5H80v76H20z"/>
<g>
	<g>
		<path fill="#000000" d="M50.271,32.937c-9.412,0-17.043,7.629-17.043,17.041c0,9.413,7.631,17.043,17.043,17.043    s17.041-7.631,17.041-17.043C67.313,40.566,59.684,32.937,50.271,32.937z M62.072,44.816L48.785,58.104    c-0.293,0.293-0.678,0.439-1.061,0.439c-0.385,0-0.769-0.146-1.062-0.439l-6.461-6.461c-0.586-0.586-0.586-1.536,0-2.122    s1.534-0.586,2.12,0l5.4,5.401L59.95,42.695c0.586-0.586,1.534-0.586,2.12,0C62.658,43.28,62.658,44.23,62.072,44.816z"/>
	</g>
</g>
</svg>