<svg xmlns="http://www.w3.org/2000/svg" xmlns:xlink="http://www.w3.org/1999/xlink" version="1.1" id="Your_Icon" x="0px" y="0px" width="100px" height="100px" viewBox="0 0 100 100" enable-background="new 0 0 100 100" xml:space="preserve">
<g>
	<circle fill="#000000" cx="37.195" cy="20.453" r="2.674"/>
	<path fill="#000000" d="M85.843,47.557H67.773c-0.104-0.546-0.219-1.095-0.342-1.646h10.185c4.82,0,4.82-6.383,0-6.383h-8.537   L60.052,25.53c-2.018-3.104-5.441-3.296-5.441-3.296h-1.435c-0.626,0.288-1.285,0.514-1.971,0.67   c-0.035,0.008-0.072,0.014-0.107,0.021c-0.278,0.06-0.561,0.106-0.847,0.143c-0.082,0.01-0.163,0.021-0.246,0.029   c-0.326,0.033-0.655,0.055-0.99,0.055c-0.333,0-0.66-0.022-0.983-0.055c-0.098-0.01-0.193-0.023-0.289-0.036   c-0.242-0.031-0.482-0.072-0.72-0.121c-0.084-0.017-0.169-0.032-0.253-0.052c-0.666-0.156-1.307-0.375-1.916-0.655h-1.19   c0,0-3.071,0.152-5.11,2.807c-0.435-0.157-0.889-0.252-1.359-0.252c-2.635,0-4.823,2.697-5.272,5.379h-2.935V16.806h10.723   c-0.373-0.939-0.604-1.947-0.675-3H25.986v19.362h7.292l-4.084,6.333h-3.537c-4.82,0-4.82,6.383,0,6.383h4.765   c-0.126,0.56-0.242,1.118-0.348,1.673H14.157c-0.828,0-1.5,0.671-1.5,1.5s0.672,1.5,1.5,1.5h15.449   c-0.194,1.551-0.309,3.056-0.309,4.454c0,5.744,0.712,12.896,6.262,17.264l0.408,0.321h11.533v11.791h-9.266l-0.444,2.425   c-2.116,0.119-3.806,1.862-3.806,4.007c0,2.222,1.808,4.029,4.029,4.029s4.029-1.808,4.029-4.029c0-1.205-0.543-2.276-1.385-3.016   l0.076-0.416h6.101c-1.162,0.708-1.946,1.975-1.946,3.432c0,2.222,1.808,4.029,4.029,4.029s4.029-1.808,4.029-4.029   c0-1.457-0.784-2.724-1.946-3.432h6.292l0.051,0.276c-0.939,0.738-1.555,1.871-1.555,3.155c0,2.222,1.808,4.029,4.029,4.029   s4.029-1.808,4.029-4.029c0-2.077-1.585-3.771-3.606-3.986l-0.448-2.445h-9.293V72.596h11.023l0.4-0.302   c5.872-4.424,6.625-11.561,6.625-17.283c0-1.398-0.114-2.903-0.309-4.454h17.602c0.828,0,1.5-0.671,1.5-1.5   S86.671,47.557,85.843,47.557z M38.015,91.848c-0.567,0-1.029-0.462-1.029-1.029s0.462-1.029,1.029-1.029s1.029,0.462,1.029,1.029   S38.582,91.848,38.015,91.848z M59.819,89.789c0.567,0,1.029,0.462,1.029,1.029s-0.462,1.029-1.029,1.029s-1.029-0.462-1.029-1.029   S59.252,89.789,59.819,89.789z M48.919,91.848c-0.567,0-1.029-0.462-1.029-1.029s0.462-1.029,1.029-1.029s1.029,0.462,1.029,1.029   S49.486,91.848,48.919,91.848z M60.505,69.596H37.023c-3.307-2.837-4.726-7.241-4.726-14.585c0-5.738,1.862-13.262,4.743-19.167   c1.94-3.976,6.064-10.646,11.884-10.646c5.818,0,9.941,6.67,11.882,10.646c2.882,5.905,4.743,13.428,4.743,19.167   C65.55,62.317,64.036,66.72,60.505,69.596z"/>
	<circle fill="#000000" cx="49.015" cy="13.152" r="8"/>
	<g>
		<path fill="#000000" d="M39.932,65.319c-0.828,0-1.5-0.672-1.5-1.5V39.896c0-0.829,0.672-1.5,1.5-1.5s1.5,0.671,1.5,1.5v23.923    C41.432,64.647,40.76,65.319,39.932,65.319z"/>
		<path fill="#000000" d="M49.016,65.319c-0.828,0-1.5-0.672-1.5-1.5V39.896c0-0.829,0.672-1.5,1.5-1.5s1.5,0.671,1.5,1.5v23.923    C50.516,64.647,49.844,65.319,49.016,65.319z"/>
		<path fill="#000000" d="M58.098,65.319c-0.828,0-1.5-0.672-1.5-1.5V39.896c0-0.829,0.672-1.5,1.5-1.5s1.5,0.671,1.5,1.5v23.923    C59.598,64.647,58.926,65.319,58.098,65.319z"/>
	</g>
	<path fill="#000000" d="M53.494,33.19H44.73c-0.828,0-1.5-0.671-1.5-1.5s0.672-1.5,1.5-1.5h8.764c0.828,0,1.5,0.671,1.5,1.5   S54.322,33.19,53.494,33.19z"/>
</g>
</svg>