<svg xmlns="http://www.w3.org/2000/svg" xmlns:xlink="http://www.w3.org/1999/xlink" version="1.1" id="Your_Icon" x="0px" y="0px" width="100px" height="100px" viewBox="0 0 100 100" enable-background="new 0 0 100 100" xml:space="preserve">
<path d="M83.012,17.5c0-0.527-0.271-0.99-0.682-1.258L66.477,2.637c-0.15-0.129-0.324-0.211-0.505-0.271C65.709,2.141,65.373,2,65,2  H18.5C17.671,2,17,2.671,17,3.5v93c0,0.828,0.671,1.5,1.5,1.5h63c0.828,0,1.5-0.672,1.5-1.5V18c0-0.067-0.011-0.13-0.02-0.195  C83.001,17.707,83.012,17.604,83.012,17.5z M20,95V5h44v12.5c0,0.829,0.672,1.5,1.5,1.5H80v76H20z"/>
<path d="M69,29H31c-0.552,0-1,0.448-1,1v40c0,0.553,0.448,1,1,1h38c0.553,0,1-0.447,1-1V30C70,29.448,69.553,29,69,29z M49,36H32v-5  h17V36z M51,31h17v5H51V31z M32,38h17v31H32V38z M51,38h17v31H51V38z"/>
</svg>