<svg xmlns="http://www.w3.org/2000/svg" xmlns:xlink="http://www.w3.org/1999/xlink" version="1.1" id="Your_Icon" x="0px" y="0px" width="100px" height="100px" viewBox="0 0 100 100" enable-background="new 0 0 100 100" xml:space="preserve">
<path d="M83.012,17.5c0-0.527-0.271-0.99-0.682-1.258L66.477,2.637c-0.149-0.129-0.324-0.211-0.504-0.271  C65.709,2.141,65.373,2,65,2H18.5C17.671,2,17,2.672,17,3.5v93c0,0.828,0.671,1.5,1.5,1.5h63c0.828,0,1.5-0.672,1.5-1.5V18  c0-0.066-0.012-0.131-0.02-0.195C83.001,17.707,83.012,17.604,83.012,17.5z M20,95V5h44v12.5c0,0.828,0.672,1.5,1.5,1.5H80v76H20z"/>
</svg>