<svg xmlns="http://www.w3.org/2000/svg" xmlns:xlink="http://www.w3.org/1999/xlink" version="1.1" id="Your_Icon" x="0px" y="0px" width="100px" height="100px" viewBox="0 0 100 100" enable-background="new 0 0 100 100" xml:space="preserve">
<path d="M83.012,17.5c0-0.527-0.271-0.99-0.682-1.258L66.477,2.637c-0.15-0.129-0.324-0.211-0.505-0.271C65.709,2.141,65.373,2,65,2  H18.5C17.671,2,17,2.671,17,3.5v93c0,0.828,0.671,1.5,1.5,1.5h63c0.828,0,1.5-0.672,1.5-1.5V18c0-0.067-0.011-0.13-0.02-0.195  C83.001,17.707,83.012,17.604,83.012,17.5z M20,95V5h44v12.5c0,0.829,0.672,1.5,1.5,1.5H80v76H20z"/>
<path fill="#000000" d="M56.26,32.625c0.164,0.055,0.33,0.102,0.492,0.16c1.053,0.376,1.889,1.012,2.428,2.008  c0.611,1.127,1.228,2.252,1.854,3.405c0.827-0.431,1.646-0.856,2.521-1.313c-0.053,0.109-0.076,0.175-0.111,0.233  c-1.351,2.229-2.697,4.458-4.055,6.682C59.329,43.896,59.184,44,59.079,44c-2.599-0.01-5.197-0.033-7.796-0.055  c-0.02,0-0.036-0.012-0.113-0.033c0.753-0.487,1.473-0.954,2.202-1.426c-0.031-0.071-0.052-0.125-0.079-0.176  c-1.083-1.982-2.152-3.975-3.257-5.942c-0.647-1.157-1.459-2.192-2.595-2.916c-0.445-0.284-0.937-0.496-1.45-0.765  c0.108,0,0.194,0,0.282,0c1.354-0.008,2.707-0.019,4.061-0.027c0.117-0.002,0.234-0.023,0.352-0.035  C52.543,32.625,54.4,32.625,56.26,32.625z"/>
<path fill="#000000" d="M32.423,51.361c0.604-1.235,1.208-2.473,1.818-3.706c0.235-0.479,0.489-0.944,0.751-1.445  c-0.768-0.601-1.531-1.2-2.355-1.846c0.172-0.013,0.273-0.022,0.375-0.023c2.588-0.024,5.176-0.053,7.764-0.067  c0.109,0,0.275,0.072,0.324,0.162c1.334,2.449,2.657,4.905,3.981,7.361c0.009,0.016,0.009,0.036,0.022,0.109  c-0.795-0.428-1.56-0.84-2.336-1.256c-0.789,1.291-1.572,2.569-2.354,3.85c-0.227,0.369-0.443,0.744-0.686,1.105  c-0.061,0.088-0.19,0.185-0.289,0.186c-1.166,0.012-2.336,0.01-3.471-0.289c-1.765-0.465-2.994-1.525-3.511-3.325  c-0.005-0.017-0.022-0.028-0.036-0.044C32.423,51.876,32.423,51.618,32.423,51.361z"/>
<path fill="#000000" d="M67.999,52.191c-0.179,0.424-0.302,0.881-0.543,1.264c-0.522,0.826-1.349,1.288-2.237,1.624  c-1.423,0.539-2.906,0.71-4.42,0.646c-0.109-0.005-0.265-0.095-0.316-0.189c-1.188-2.182-2.367-4.37-3.547-6.559  c-0.022-0.041-0.037-0.088-0.063-0.149c2.53-1.546,5.058-3.087,7.604-4.644c0.051,0.092,0.102,0.172,0.144,0.258  c1.06,2.082,2.121,4.164,3.172,6.252c0.104,0.205,0.14,0.445,0.207,0.67C67.999,51.639,67.999,51.915,67.999,52.191z"/>
<path fill="#000000" d="M54.971,67.919c-1.244-2.274-2.488-4.552-3.734-6.826c-0.075-0.138-0.108-0.247-0.021-0.405  c1.272-2.281,2.537-4.568,3.806-6.854c0.017-0.036,0.041-0.066,0.115-0.17c0.053,0.939,0.102,1.804,0.151,2.679  c0.121,0.007,0.209,0.015,0.297,0.015c2.203-0.004,4.406,0.014,6.608-0.02c1.291-0.02,2.555-0.25,3.697-0.896  c0.461-0.26,0.879-0.594,1.32-0.896c-0.02,0.047-0.04,0.113-0.07,0.174c-1.49,2.791-2.975,5.588-4.479,8.372  c-0.782,1.447-2.043,2.152-3.671,2.187c-1.233,0.024-2.467,0.006-3.745,0.006c-0.037,0.945-0.072,1.875-0.112,2.896"/>
<path fill="#000000" d="M48.427,56.361c0,2.983,0,5.937,0,8.937c-0.096,0-0.188,0-0.282,0c-1.916,0-3.832,0.005-5.748-0.002  c-1.115-0.004-2.207-0.147-3.213-0.672c-0.56-0.292-1.009-0.692-1.317-1.271c-1.535-2.869-3.093-5.727-4.644-8.588  c-0.05-0.094-0.097-0.188-0.117-0.309c0.219,0.182,0.432,0.369,0.654,0.544c1.178,0.917,2.529,1.284,4.004,1.289  c3.486,0.015,6.973,0.038,10.461,0.06C48.279,56.352,48.338,56.355,48.427,56.361z"/>
<path fill="#000000" d="M46.166,44.725c-2.563-1.52-5.105-3.025-7.671-4.545c0.077-0.121,0.138-0.222,0.2-0.318  c1.229-1.896,2.445-3.799,3.693-5.682c0.611-0.922,1.534-1.281,2.61-1.164c1.213,0.129,2.126,0.844,2.95,1.674  c0.926,0.934,1.646,2.016,2.213,3.197c0.046,0.094,0.049,0.254-0.002,0.338c-1.297,2.133-2.604,4.258-3.908,6.385  C46.232,44.641,46.207,44.67,46.166,44.725z"/>
</svg>