<svg xmlns="http://www.w3.org/2000/svg" xmlns:xlink="http://www.w3.org/1999/xlink" version="1.1" id="&#1057;&#1083;&#1086;&#1081;_1" x="0px" y="0px" width="90px" height="90px" viewBox="0 0 90 90" enable-background="new 0 0 90 90" xml:space="preserve">
<path d="M45,2.697C21.637,2.697,2.697,21.637,2.697,45c0,23.363,18.94,42.303,42.303,42.303S87.304,68.363,87.304,45  C87.304,21.637,68.363,2.697,45,2.697z M45,82.554C24.26,82.554,7.447,65.74,7.447,45C7.447,24.26,24.26,7.447,45,7.447  C65.74,7.447,82.554,24.26,82.554,45C82.554,65.74,65.74,82.554,45,82.554z"/>
<rect x="42.875" y="10" width="4.25" height="8"/>
<rect x="10" y="42.875" width="8" height="4.25"/>
<rect x="42.875" y="72" width="4.25" height="8"/>
<rect x="72" y="42.875" width="8" height="4.25"/>
<rect x="54.65" y="14.54" transform="matrix(-0.7069 -0.7073 0.7073 -0.7069 71.4468 97.6839)" width="2.625" height="38.999"/>
<rect x="39.143" y="31.99" transform="matrix(-0.7072 0.707 -0.707 -0.7072 99.628 41.2764)" width="4.249" height="18.555"/>
<g>
</g>
<g>
</g>
<g>
</g>
<g>
</g>
<g>
</g>
<g>
</g>
</svg>