<svg xmlns="http://www.w3.org/2000/svg" xmlns:xlink="http://www.w3.org/1999/xlink" version="1.1" id="Your_Icon" x="0px" y="0px" width="100px" height="100px" viewBox="0 0 100 100" enable-background="new 0 0 100 100" xml:space="preserve">
<path d="M83.012,17.5c0-0.527-0.271-0.99-0.682-1.258L66.477,2.637c-0.15-0.129-0.324-0.211-0.505-0.271C65.709,2.141,65.373,2,65,2  H18.5C17.671,2,17,2.671,17,3.5v93c0,0.828,0.671,1.5,1.5,1.5h63c0.828,0,1.5-0.672,1.5-1.5V18c0-0.067-0.011-0.13-0.02-0.195  C83.001,17.707,83.012,17.604,83.012,17.5z M20,95V5h44v12.5c0,0.829,0.672,1.5,1.5,1.5H80v76H20z"/>
<path fill="#000000" d="M57.913,35.872c-3.238,0-6.265,1.5-8.246,3.967c-1.981-2.467-5.008-3.967-8.246-3.967  c-5.834,0-10.58,4.746-10.58,10.579c0,2.544,0.921,4.999,2.597,6.928c0.03,0.042,0.063,0.083,0.099,0.121  c0.051,0.057,0.116,0.131,0.2,0.208c0.193,0.205,0.396,0.403,0.605,0.593c0.029,0.034,0.059,0.067,0.081,0.09l13.412,13.623  c0.472,0.479,1.103,0.741,1.774,0.741c0.668,0,1.295-0.261,1.765-0.733l13.524-13.627c0.028-0.027,0.047-0.045,0.063-0.064  c0.222-0.198,0.433-0.406,0.636-0.621c0.072-0.066,0.137-0.137,0.202-0.209c0.034-0.038,0.066-0.078,0.097-0.12  c1.676-1.929,2.598-4.385,2.598-6.928C68.493,40.618,63.747,35.872,57.913,35.872z"/>
</svg>