<svg xmlns="http://www.w3.org/2000/svg" xmlns:xlink="http://www.w3.org/1999/xlink" version="1.1" id="Your_Icon" x="0px" y="0px" width="100px" height="100px" viewBox="0 0 100 100" enable-background="new 0 0 100 100" xml:space="preserve">
<path d="M83.012,17.5c0-0.527-0.271-0.99-0.682-1.258L66.477,2.637c-0.15-0.129-0.324-0.211-0.505-0.271C65.709,2.141,65.373,2,65,2  H18.5C17.671,2,17,2.671,17,3.5v93c0,0.828,0.671,1.5,1.5,1.5h63c0.828,0,1.5-0.672,1.5-1.5V18c0-0.067-0.011-0.13-0.02-0.195  C83.001,17.707,83.012,17.604,83.012,17.5z M20,95V5h44v12.5c0,0.829,0.672,1.5,1.5,1.5H80v76H20z"/>
<g>
	<path d="M70.5,36h-41c-0.829,0-1.5,0.671-1.5,1.5v26c0,0.828,0.671,1.5,1.5,1.5h40.997H70.5c0.828,0,1.5-0.672,1.5-1.5V63v-5.281   V37.5C72,36.671,71.328,36,70.5,36z M69,39v15.089l-4.24-4.234c-0.584-0.583-1.53-0.606-2.115-0.024l-6.239,6.139l-9.292-9.364   C46.832,46.324,46.45,46,46.053,46c-0.001,0-0.002,0-0.004,0c-0.399,0-0.781,0.358-1.062,0.642L31,60.942V39H69z"/>
	<circle cx="36.791" cy="44.542" r="3.542"/>
</g>
</svg>