<svg xmlns="http://www.w3.org/2000/svg" xmlns:xlink="http://www.w3.org/1999/xlink" version="1.1" id="Your_Icon" x="0px" y="0px" width="100px" height="100px" viewBox="0 0 100 100" enable-background="new 0 0 100 100" xml:space="preserve">
<path d="M82.98,82.195C82.989,82.131,83,82.066,83,82V3.5C83,2.672,82.328,2,81.5,2h-63C17.671,2,17,2.672,17,3.5v93  c0,0.828,0.671,1.5,1.5,1.5H65c0.373,0,0.709-0.141,0.972-0.365c0.181-0.061,0.354-0.143,0.505-0.271L82.33,83.758  c0.41-0.268,0.682-0.73,0.682-1.258C83.012,82.396,83.001,82.293,82.98,82.195z M80,5v76H65.5c-0.828,0-1.5,0.672-1.5,1.5V95H20V5  H80z"/>
<path d="M45.5,3h-17C27.671,3,27,3.671,27,4.5v32c0,0.576,0.329,1.1,0.848,1.351C28.055,37.951,28.278,38,28.5,38  c0.332,0,0.662-0.11,0.932-0.325l7.57-6.004l7.565,6.004c0.451,0.358,1.067,0.425,1.585,0.176C46.671,37.601,47,37.076,47,36.5v-32  C47,3.671,46.329,3,45.5,3z"/>
</svg>