<svg xmlns="http://www.w3.org/2000/svg" xmlns:xlink="http://www.w3.org/1999/xlink" version="1.1" id="Layer_1" x="0px" y="0px" width="84.0336134454px" height="100px" viewBox="0 0 100 119.788" enable-background="new 0 0 100 119.788" xml:space="preserve">
<g>
	<path fill="none" d="M50.106,45.866c8.768,0,15.987-9.683,16.92-22.125c0.116-0.803,0.18-1.625,0.191-2.46l-2.736,3.144   c1.509-3.344-3.867-11.853-3.867-11.853c-9.062,6.554-22.535,0-22.535,0c-4.066,1.604-2.141,13.038-2.141,13.039   c-1.014-0.708-1.944-1.076-2.704-1.267C34.354,36.497,41.48,45.866,50.106,45.866z"/>
	<path fill="none" d="M13.747,60.52H5.23c-2.624,0-4.75,2.102-4.75,4.694L10.072,109c0,2.593,2.126,4.695,4.75,4.695h70.355   c2.624,0,4.75-2.103,4.75-4.695l9.593-43.785c0-2.593-2.127-4.694-4.75-4.694h-8.306 M50,90.079c-1.407,0-2.549-1.141-2.549-2.549   c0-1.407,1.142-2.55,2.549-2.55c1.408,0,2.549,1.143,2.549,2.55C52.549,88.938,51.408,90.079,50,90.079z"/>
	<path fill="none" d="M56.833,60.52h-4.671"/>
	<path fill="#000000" d="M30.832,23.638c0.014,0.184,0.029,0.366,0.045,0.549c1.231,13.912,9.37,24.66,19.229,24.66   c9.986,0,18.209-11.028,19.273-25.203c0.147-1.017,0.225-2.06,0.225-3.122c0-1.062-0.077-2.104-0.225-3.122   C67.949,7.549,59.865,0,50.106,0c-9.763,0-17.849,7.554-19.274,17.409c-0.147,1.016-0.223,2.056-0.223,3.115   c0,0.431,0.016,0.856,0.04,1.28C30.685,22.422,30.744,23.034,30.832,23.638z M38.08,12.572c0,0,13.473,6.554,22.535,0   c0,0,5.376,8.509,3.867,11.853l2.736-3.144c-0.012,0.834-0.075,1.657-0.191,2.46c-0.934,12.442-8.152,22.125-16.92,22.125   c-8.625,0-15.752-9.37-16.871-21.523c0.759,0.191,1.69,0.56,2.704,1.267C35.938,25.609,34.013,14.176,38.08,12.572z"/>
	<path fill="#000000" d="M65.572,45.61c-0.051,2.333-4.128,8.533-8.176,14.132h28.695C82.267,51.974,74.602,46.436,65.572,45.61z"/>
	<path fill="#000000" d="M51.844,55.954c1.79-0.925,3.178-2.851,3.178-4.809c0,0-2.665,1.177-5.378,1.177   c-2.716,0-5.379-1.177-5.379-1.177c0,1.958,1.387,3.883,3.178,4.809l-0.265,3.789h4.93L51.844,55.954z"/>
	<path fill="#000000" d="M34.64,45.611c-9.031,0.824-16.695,6.362-20.521,14.131h27.984C38.411,54.144,34.691,47.943,34.64,45.611z"/>
	<g>
		<circle cx="50" cy="87.529" r="2.549"/>
		<path d="M90.268,115.684H9.733c-1.133,0-2.052,0.919-2.052,2.053c0,1.132,0.919,2.051,2.052,2.051h80.535    c1.133,0,2.051-0.919,2.051-2.051C92.318,116.603,91.4,115.684,90.268,115.684z"/>
	</g>
	<path d="M56.833,60.52c0.187-0.258,0.375-0.518,0.563-0.777h-5.289l0.055,0.777H56.833z"/>
	<path d="M47.123,60.52l0.055-0.777h-5.075c0.173,0.262,0.344,0.519,0.517,0.777H47.123z"/>
	<path d="M14.389,114.471h71.223c2.649,0,4.796-2.147,4.796-4.796L100,64.539c0-2.648-2.147-4.796-4.796-4.796h-9.112   c0.128,0.257,0.254,0.515,0.373,0.777h8.306c2.623,0,4.75,2.102,4.75,4.694L89.928,109c0,2.593-2.126,4.695-4.75,4.695H14.822   c-2.624,0-4.75-2.103-4.75-4.695L0.479,65.214c0-2.593,2.126-4.694,4.75-4.694h8.517c0.118-0.263,0.245-0.521,0.372-0.777H4.796   C2.147,59.743,0,61.89,0,64.539l9.592,45.137C9.592,112.324,11.739,114.471,14.389,114.471z"/>
	<path d="M42.619,60.52c-0.172-0.259-0.344-0.516-0.517-0.777H14.119c-0.127,0.257-0.254,0.515-0.372,0.777H42.619z"/>
	<polygon points="52.162,60.52 52.107,59.743 47.177,59.743 47.123,60.52  "/>
	<path d="M86.465,60.52c-0.119-0.263-0.245-0.521-0.373-0.777H57.396c-0.188,0.26-0.377,0.52-0.563,0.777H86.465z"/>
</g>
</svg>