<svg xmlns="http://www.w3.org/2000/svg" xmlns:xlink="http://www.w3.org/1999/xlink" version="1.1" id="Layer_1" x="0px" y="0px" width="100px" height="100px" viewBox="0 0 100 100" enable-background="new 0 0 100 100" xml:space="preserve">
<rect x="26.488" y="10.362" width="40.432" height="3.965"/>
<polygon points="73.512,10.362 73.512,10.412 73.462,10.362 "/>
<path d="M80.432,16.786L69.021,5.673c-0.188-0.178-0.438-0.277-0.693-0.277H20.263c-0.545,0-0.991,0.446-0.991,0.991v87.224  c0,0.547,0.446,0.992,0.991,0.992h59.473c0.545,0,0.99-0.445,0.99-0.992V17.499C80.729,17.231,80.62,16.974,80.432,16.786z   M73.512,10.362v0.05l-0.05-0.05H73.512z M78.745,92.621H21.254V7.378H66.92v10.121c0,0.545,0.446,0.991,0.991,0.991h10.834V92.621z  "/>
<path d="M51.249,53.641v22.303h22.302V53.641H51.249z M69.339,64.592c0,0.061-0.05,0.1-0.101,0.1h-0.592  c-0.053,0-0.103-0.039-0.103-0.1c0-0.05,0.05-0.1,0.103-0.1h0.592C69.289,64.492,69.339,64.542,69.339,64.592z M68.486,58.564  l0.416-0.416c0.039-0.039,0.109-0.039,0.138,0c0.05,0.039,0.05,0.101,0,0.139l-0.415,0.417c-0.02,0.021-0.04,0.028-0.068,0.028  c-0.021,0-0.05-0.01-0.068-0.028C68.447,58.664,68.447,58.604,68.486,58.564z M67.645,59.408l0.426-0.417  c0.041-0.038,0.101-0.038,0.139,0c0.04,0.028,0.04,0.1,0,0.14l-0.425,0.415c-0.021,0.021-0.04,0.03-0.07,0.03  c-0.021,0-0.048-0.01-0.069-0.03C67.604,59.506,67.604,59.448,67.645,59.408z M68.049,64.492c0.062,0,0.102,0.05,0.102,0.1  c0,0.061-0.039,0.1-0.102,0.1h-0.593c-0.062,0-0.101-0.039-0.101-0.1c0-0.05,0.039-0.1,0.101-0.1H68.049z M66.802,60.25l0.425-0.427  c0.041-0.038,0.103-0.038,0.141,0c0.04,0.04,0.04,0.108,0,0.149l-0.415,0.416c-0.031,0.021-0.052,0.029-0.081,0.029  c-0.02,0-0.049-0.01-0.068-0.029C66.771,60.35,66.771,60.29,66.802,60.25z M66.961,64.592c0,0.061-0.05,0.1-0.1,0.1h-0.596  c-0.051,0-0.101-0.039-0.101-0.1c0-0.05,0.05-0.1,0.101-0.1h0.596C66.911,64.492,66.961,64.542,66.961,64.592z M65.971,61.094  l0.414-0.429c0.04-0.038,0.1-0.038,0.141,0c0.037,0.04,0.037,0.103,0,0.14l-0.418,0.428c-0.02,0.02-0.049,0.031-0.068,0.031  c-0.027,0-0.061-0.013-0.068-0.031C65.92,61.191,65.92,61.132,65.971,61.094z M65.126,61.927l0.417-0.418  c0.038-0.04,0.1-0.04,0.141,0c0.037,0.041,0.037,0.101,0,0.138l-0.418,0.428c-0.021,0.021-0.05,0.031-0.068,0.031  c-0.03,0-0.051-0.01-0.07-0.031C65.085,62.033,65.085,61.965,65.126,61.927z M65.076,64.492h0.595c0.06,0,0.101,0.05,0.101,0.1  c0,0.061-0.041,0.1-0.101,0.1h-0.595c-0.061,0-0.098-0.039-0.098-0.1C64.979,64.542,65.018,64.492,65.076,64.492z M64.283,62.77  l0.418-0.418c0.037-0.039,0.107-0.039,0.138,0c0.04,0.041,0.04,0.1,0,0.141l-0.417,0.415c-0.02,0.021-0.048,0.03-0.068,0.03  c-0.028,0-0.051-0.011-0.069-0.03C64.243,62.877,64.243,62.809,64.283,62.77z M64.58,64.592c0,0.061-0.038,0.1-0.098,0.1h-0.596  c-0.06,0-0.1-0.039-0.1-0.1c0-0.05,0.04-0.1,0.1-0.1h0.596C64.542,64.492,64.58,64.542,64.58,64.592z M63.441,63.609l0.416-0.416  c0.039-0.039,0.107-0.039,0.14,0c0.038,0.039,0.038,0.1,0,0.14l-0.418,0.417c-0.019,0.02-0.05,0.027-0.067,0.027  c-0.021,0-0.051-0.01-0.07-0.027C63.4,63.71,63.4,63.65,63.441,63.609z M62.5,55.572c0-0.051,0.039-0.1,0.098-0.1  c0.062,0,0.101,0.049,0.101,0.1v0.595c0,0.06-0.038,0.101-0.101,0.101c-0.059,0-0.098-0.041-0.098-0.101V55.572z M62.5,56.762  c0-0.052,0.039-0.1,0.098-0.1c0.062,0,0.101,0.048,0.101,0.1v0.594c0,0.062-0.038,0.101-0.101,0.101  c-0.059,0-0.098-0.039-0.098-0.101V56.762z M62.5,57.95c0-0.05,0.039-0.101,0.098-0.101c0.062,0,0.101,0.051,0.101,0.101v0.595  c0,0.061-0.038,0.1-0.101,0.1c-0.059,0-0.098-0.039-0.098-0.1V57.95z M62.5,59.141c0-0.05,0.039-0.1,0.098-0.1  c0.062,0,0.101,0.05,0.101,0.1v0.596c0,0.06-0.038,0.098-0.101,0.098c-0.059,0-0.098-0.038-0.098-0.098V59.141z M62.5,60.328  c0-0.047,0.039-0.098,0.098-0.098c0.062,0,0.101,0.051,0.101,0.098v0.596c0,0.061-0.038,0.1-0.101,0.1  c-0.059,0-0.098-0.039-0.098-0.1V60.328z M62.5,61.52c0-0.051,0.039-0.101,0.098-0.101c0.062,0,0.101,0.05,0.101,0.101v0.596  c0,0.059-0.038,0.099-0.101,0.099c-0.059,0-0.098-0.04-0.098-0.099V61.52z M53.777,64.691h-0.596c-0.06,0-0.101-0.041-0.101-0.101  c0-0.05,0.041-0.1,0.101-0.1h0.596c0.059,0,0.1,0.05,0.1,0.1C53.877,64.65,53.836,64.691,53.777,64.691z M55.461,64.592  c0-0.05,0.04-0.1,0.1-0.1h0.596c0.06,0,0.1,0.05,0.1,0.1c0,0.061-0.04,0.1-0.1,0.1h-0.596C55.501,64.691,55.461,64.65,55.461,64.592  z M56.434,70.906l-0.426,0.414c-0.021,0.021-0.04,0.031-0.07,0.031c-0.02,0-0.049-0.011-0.068-0.031c-0.04-0.037-0.04-0.098,0-0.137  l0.427-0.428c0.029-0.027,0.099-0.027,0.138,0C56.473,70.797,56.473,70.866,56.434,70.906z M57.273,70.064l-0.424,0.414  c-0.02,0.02-0.041,0.03-0.07,0.03c-0.021,0-0.051-0.012-0.069-0.03c-0.038-0.037-0.038-0.1,0-0.14l0.427-0.415  c0.031-0.041,0.1-0.041,0.139,0C57.307,69.965,57.307,70.023,57.273,70.064z M57.346,64.691h-0.595c-0.05,0-0.101-0.041-0.101-0.101  c0-0.05,0.051-0.1,0.101-0.1h0.595c0.051,0,0.098,0.05,0.098,0.1C57.443,64.65,57.396,64.691,57.346,64.691z M58.118,69.221  l-0.427,0.418c-0.02,0.019-0.049,0.027-0.068,0.027c-0.021,0-0.05-0.01-0.07-0.027c-0.039-0.041-0.039-0.101,0-0.141l0.418-0.416  c0.039-0.04,0.107-0.04,0.147,0C58.146,69.121,58.146,69.18,58.118,69.221z M57.841,64.592c0-0.05,0.039-0.1,0.099-0.1h0.596  c0.059,0,0.1,0.05,0.1,0.1c0,0.061-0.041,0.1-0.1,0.1h-0.596C57.88,64.691,57.841,64.65,57.841,64.592z M58.951,68.378l-0.417,0.418  c-0.021,0.019-0.048,0.028-0.069,0.028c-0.029,0-0.05-0.01-0.068-0.028c-0.041-0.03-0.041-0.101,0-0.14l0.418-0.416  c0.037-0.04,0.098-0.04,0.138,0C58.991,68.279,58.991,68.338,58.951,68.378z M59.793,67.536l-0.415,0.425  c-0.021,0.021-0.05,0.031-0.069,0.031c-0.029,0-0.052-0.01-0.07-0.031c-0.038-0.038-0.038-0.107,0-0.146l0.418-0.418  c0.039-0.039,0.098-0.039,0.138,0C59.834,67.438,59.833,67.496,59.793,67.536z M59.725,64.691h-0.596c-0.061,0-0.1-0.041-0.1-0.101  c0-0.05,0.039-0.1,0.1-0.1h0.596c0.06,0,0.1,0.05,0.1,0.1C59.823,64.65,59.783,64.691,59.725,64.691z M60.637,66.691l-0.416,0.428  c-0.021,0.02-0.051,0.029-0.08,0.029c-0.021,0-0.039-0.01-0.061-0.029c-0.048-0.038-0.048-0.1,0-0.141l0.417-0.424  c0.04-0.041,0.101-0.041,0.14,0C60.677,66.594,60.677,66.652,60.637,66.691z M60.221,64.592c0-0.05,0.049-0.1,0.1-0.1h0.593  c0.052,0,0.103,0.05,0.103,0.1c0,0.061-0.051,0.1-0.103,0.1H60.32C60.27,64.691,60.221,64.65,60.221,64.592z M61.479,65.852  l-0.427,0.426c-0.019,0.021-0.038,0.029-0.06,0.029c-0.028,0-0.059-0.01-0.08-0.029c-0.038-0.039-0.038-0.1,0-0.139l0.429-0.428  c0.038-0.04,0.099-0.04,0.138,0C61.52,65.751,61.52,65.82,61.479,65.852z M61.408,64.592c0-0.05,0.04-0.1,0.101-0.1h0.595  c0.062,0,0.1,0.05,0.1,0.1c0,0.061-0.038,0.1-0.1,0.1h-0.595C61.448,64.691,61.408,64.65,61.408,64.592z M62.697,74.008  c0,0.061-0.038,0.1-0.1,0.1c-0.06,0-0.099-0.039-0.099-0.1v-0.594c0-0.05,0.039-0.1,0.099-0.1c0.062,0,0.1,0.05,0.1,0.1V74.008z   M62.697,72.818c0,0.061-0.038,0.101-0.1,0.101c-0.06,0-0.099-0.04-0.099-0.101v-0.594c0-0.051,0.039-0.101,0.099-0.101  c0.062,0,0.1,0.05,0.1,0.101V72.818z M62.697,71.629c0,0.061-0.038,0.1-0.1,0.1c-0.06,0-0.099-0.039-0.099-0.1v-0.595  c0-0.05,0.039-0.099,0.099-0.099c0.062,0,0.1,0.049,0.1,0.099V71.629z M62.697,70.441c0,0.057-0.038,0.098-0.1,0.098  c-0.06,0-0.099-0.041-0.099-0.098v-0.599c0-0.048,0.039-0.098,0.099-0.098c0.062,0,0.1,0.05,0.1,0.098V70.441z M62.697,69.251  c0,0.06-0.038,0.099-0.1,0.099c-0.06,0-0.099-0.039-0.099-0.099v-0.595c0-0.051,0.039-0.1,0.099-0.1c0.062,0,0.1,0.049,0.1,0.1  V69.251z M62.697,68.061c0,0.061-0.038,0.101-0.1,0.101c-0.06,0-0.099-0.04-0.099-0.101v-0.595c0-0.048,0.039-0.1,0.099-0.1  c0.062,0,0.1,0.052,0.1,0.1V68.061z M66.562,69.656c-2.328,0-3.379-1.557-3.865-2.942v0.156c0,0.062-0.038,0.101-0.1,0.101  c-0.06,0-0.099-0.039-0.099-0.101v-0.593c0-0.03,0.021-0.061,0.039-0.08c-0.119-0.486-0.179-0.911-0.207-1.2  c0,0-0.013,0.01-0.013,0.021l-0.426,0.418c-0.02,0.02-0.039,0.027-0.068,0.027c-0.02,0-0.051-0.009-0.069-0.027  c-0.04-0.041-0.04-0.103,0-0.141l0.427-0.427c0.028-0.03,0.088-0.03,0.129,0c-0.01-0.168-0.01-0.269-0.01-0.277  c0-0.188-0.05-4.659-3.668-4.659c-3.369,0-3.646,3.877-3.669,4.561c0.062,0,0.101,0.05,0.101,0.1c0,0.061-0.049,0.1-0.101,0.1  h-0.019c-0.041,0.119-0.149,0.197-0.277,0.197s-0.238-0.078-0.277-0.197h-0.02c-0.051,0-0.1-0.039-0.1-0.1c0-0.05,0.049-0.1,0.1-0.1  c0.027-0.732,0.375-5.154,4.262-5.154c2.469,0,3.51,1.785,3.945,3.271c0.009,0,0.009,0,0.02,0c0.062,0,0.1,0.05,0.1,0.1v0.377  c0.1,0.436,0.148,0.822,0.178,1.089l0.141-0.138c0.041-0.04,0.108-0.04,0.148,0c0.029,0.04,0.029,0.1,0,0.138l-0.279,0.279  l-0.048,0.038h0.456c0.049,0,0.1,0.05,0.1,0.1c0,0.061-0.051,0.1-0.1,0.1h-0.396c0.028,0.674,0.355,4.373,3.666,4.373  c3.312,0,3.641-3.699,3.658-4.373h-0.387c-0.059,0-0.1-0.039-0.1-0.1c0-0.05,0.041-0.1,0.1-0.1h0.416  c0.04-0.118,0.148-0.197,0.279-0.197c0.168,0,0.296,0.139,0.296,0.297C70.825,64.65,70.727,69.656,66.562,69.656z M71.62,64.691  h-0.597c-0.06,0-0.1-0.041-0.1-0.101c0-0.05,0.04-0.1,0.1-0.1h0.597c0.06,0,0.097,0.05,0.097,0.1  C71.717,64.65,71.68,64.691,71.62,64.691z"/>
<rect x="26.09" y="86.484" width="22.353" height="1.98"/>
<rect x="50.764" y="86.484" width="22.35" height="1.98"/>
<rect x="26.09" y="83.508" width="22.353" height="1.982"/>
<rect x="50.764" y="83.508" width="22.35" height="1.982"/>
<rect x="26.048" y="77.523" width="47.229" height="0.496"/>
<rect x="28.033" y="78.518" width="43.261" height="0.496"/>
<rect x="32.001" y="79.509" width="35.325" height="0.495"/>
<rect x="26.449" y="15.07" width="40.471" height="0.495"/>
<line fill="none" x1="46.681" y1="52.13" x2="46.681" y2="51.879"/>
<rect x="46.005" y="47.499" width="0.248" height="4.631"/>
<rect x="45.455" y="47.499" width="0.248" height="4.631"/>
<rect x="44.904" y="47.499" width="0.248" height="4.631"/>
<rect x="44.354" y="47.499" width="0.248" height="4.631"/>
<rect x="43.804" y="47.499" width="0.248" height="4.631"/>
<rect x="43.252" y="47.499" width="0.248" height="4.631"/>
<rect x="42.702" y="47.499" width="0.248" height="4.631"/>
<rect x="42.151" y="47.499" width="0.248" height="4.631"/>
<rect x="41.601" y="47.499" width="0.248" height="4.631"/>
<rect x="41.049" y="47.499" width="0.248" height="4.631"/>
<rect x="40.499" y="47.499" width="0.248" height="4.631"/>
<rect x="39.947" y="47.499" width="0.248" height="4.631"/>
<rect x="39.397" y="47.499" width="0.248" height="4.631"/>
<rect x="38.848" y="47.499" width="0.248" height="4.631"/>
<rect x="38.296" y="47.499" width="0.248" height="4.631"/>
<rect x="37.746" y="47.499" width="0.248" height="4.631"/>
<rect x="37.194" y="47.499" width="0.248" height="4.631"/>
<rect x="36.645" y="47.499" width="0.248" height="4.631"/>
<rect x="36.093" y="47.499" width="0.248" height="4.631"/>
<rect x="35.543" y="47.499" width="0.248" height="4.631"/>
<rect x="34.991" y="47.499" width="0.248" height="4.631"/>
<rect x="34.441" y="47.499" width="0.248" height="4.631"/>
<rect x="33.892" y="47.499" width="0.248" height="4.631"/>
<rect x="33.34" y="47.499" width="0.248" height="4.631"/>
<rect x="32.79" y="47.499" width="0.249" height="4.631"/>
<rect x="32.238" y="47.499" width="0.248" height="4.631"/>
<rect x="31.688" y="47.499" width="0.248" height="4.631"/>
<rect x="31.137" y="47.499" width="0.248" height="4.631"/>
<rect x="30.587" y="47.499" width="0.248" height="4.631"/>
<rect x="30.035" y="47.499" width="0.248" height="4.631"/>
<rect x="29.485" y="47.499" width="0.248" height="4.631"/>
<rect x="28.936" y="47.499" width="0.248" height="4.631"/>
<rect x="28.384" y="47.499" width="0.248" height="4.631"/>
<rect x="27.834" y="47.499" width="0.248" height="4.631"/>
<rect x="27.282" y="47.499" width="0.248" height="4.631"/>
<rect x="26.732" y="47.499" width="0.248" height="4.631"/>
<rect x="48.208" y="42.206" width="0.248" height="4.631"/>
<rect x="47.658" y="42.206" width="0.248" height="4.631"/>
<rect x="47.106" y="42.206" width="0.248" height="4.631"/>
<rect x="46.557" y="42.206" width="0.248" height="4.631"/>
<rect x="46.005" y="42.206" width="0.248" height="4.631"/>
<rect x="45.455" y="42.206" width="0.248" height="4.631"/>
<rect x="44.904" y="42.206" width="0.248" height="4.631"/>
<rect x="44.354" y="42.206" width="0.248" height="4.631"/>
<rect x="43.804" y="42.206" width="0.248" height="4.631"/>
<rect x="43.252" y="42.206" width="0.248" height="4.631"/>
<rect x="42.702" y="42.206" width="0.248" height="4.631"/>
<rect x="42.151" y="42.206" width="0.248" height="4.631"/>
<rect x="41.601" y="42.206" width="0.248" height="4.631"/>
<rect x="41.049" y="42.206" width="0.248" height="4.631"/>
<rect x="40.499" y="42.206" width="0.248" height="4.631"/>
<rect x="39.947" y="42.206" width="0.248" height="4.631"/>
<rect x="39.397" y="42.206" width="0.248" height="4.631"/>
<rect x="38.848" y="42.206" width="0.248" height="4.631"/>
<rect x="38.296" y="42.206" width="0.248" height="4.631"/>
<rect x="37.746" y="42.206" width="0.248" height="4.631"/>
<rect x="37.194" y="42.206" width="0.248" height="4.631"/>
<rect x="36.645" y="42.206" width="0.248" height="4.631"/>
<rect x="36.093" y="42.206" width="0.248" height="4.631"/>
<rect x="35.543" y="42.206" width="0.248" height="4.631"/>
<rect x="34.991" y="42.206" width="0.248" height="4.631"/>
<rect x="34.441" y="42.206" width="0.248" height="4.631"/>
<rect x="33.892" y="42.206" width="0.248" height="4.631"/>
<rect x="33.34" y="42.206" width="0.248" height="4.631"/>
<rect x="32.79" y="42.206" width="0.249" height="4.631"/>
<rect x="32.238" y="42.206" width="0.248" height="4.631"/>
<rect x="31.688" y="42.206" width="0.248" height="4.631"/>
<rect x="31.137" y="42.206" width="0.248" height="4.631"/>
<rect x="30.587" y="42.206" width="0.248" height="4.631"/>
<rect x="30.035" y="42.206" width="0.248" height="4.631"/>
<rect x="29.485" y="42.206" width="0.248" height="4.631"/>
<rect x="28.936" y="42.206" width="0.248" height="4.631"/>
<rect x="28.384" y="42.206" width="0.248" height="4.631"/>
<rect x="27.834" y="42.206" width="0.248" height="4.631"/>
<rect x="27.282" y="42.206" width="0.248" height="4.631"/>
<rect x="26.732" y="42.206" width="0.248" height="4.631"/>
<rect x="47.658" y="36.903" width="0.248" height="4.632"/>
<rect x="47.106" y="36.903" width="0.248" height="4.632"/>
<rect x="46.557" y="36.903" width="0.248" height="4.632"/>
<rect x="46.005" y="36.903" width="0.248" height="4.632"/>
<rect x="45.455" y="36.903" width="0.248" height="4.632"/>
<rect x="44.904" y="36.903" width="0.248" height="4.632"/>
<rect x="44.354" y="36.903" width="0.248" height="4.632"/>
<rect x="43.804" y="36.903" width="0.248" height="4.632"/>
<rect x="43.252" y="36.903" width="0.248" height="4.632"/>
<rect x="42.702" y="36.903" width="0.248" height="4.632"/>
<rect x="42.151" y="36.903" width="0.248" height="4.632"/>
<rect x="41.601" y="36.903" width="0.248" height="4.632"/>
<rect x="41.049" y="36.903" width="0.248" height="4.632"/>
<rect x="40.499" y="36.903" width="0.248" height="4.632"/>
<rect x="39.947" y="36.903" width="0.248" height="4.632"/>
<rect x="39.397" y="36.903" width="0.248" height="4.632"/>
<rect x="38.848" y="36.903" width="0.248" height="4.632"/>
<rect x="38.296" y="36.903" width="0.248" height="4.632"/>
<rect x="37.746" y="36.903" width="0.248" height="4.632"/>
<rect x="37.194" y="36.903" width="0.248" height="4.632"/>
<rect x="36.645" y="36.903" width="0.248" height="4.632"/>
<rect x="36.093" y="36.903" width="0.248" height="4.632"/>
<rect x="35.543" y="36.903" width="0.248" height="4.632"/>
<rect x="34.991" y="36.903" width="0.248" height="4.632"/>
<rect x="34.441" y="36.903" width="0.248" height="4.632"/>
<rect x="33.892" y="36.903" width="0.248" height="4.632"/>
<rect x="33.34" y="36.903" width="0.248" height="4.632"/>
<rect x="32.79" y="36.903" width="0.249" height="4.632"/>
<rect x="32.238" y="36.903" width="0.248" height="4.632"/>
<rect x="31.688" y="36.903" width="0.248" height="4.632"/>
<rect x="31.137" y="36.903" width="0.248" height="4.632"/>
<rect x="30.587" y="36.903" width="0.248" height="4.632"/>
<rect x="30.035" y="36.903" width="0.248" height="4.632"/>
<rect x="29.485" y="36.903" width="0.248" height="4.632"/>
<rect x="28.936" y="36.903" width="0.248" height="4.632"/>
<rect x="28.384" y="36.903" width="0.248" height="4.632"/>
<rect x="27.834" y="36.903" width="0.248" height="4.632"/>
<rect x="27.282" y="36.903" width="0.248" height="4.632"/>
<rect x="26.732" y="36.903" width="0.248" height="4.632"/>
<rect x="48.208" y="31.601" width="0.248" height="4.631"/>
<rect x="47.658" y="31.601" width="0.248" height="4.631"/>
<rect x="47.106" y="31.601" width="0.248" height="4.631"/>
<rect x="46.557" y="31.601" width="0.248" height="4.631"/>
<rect x="46.005" y="31.601" width="0.248" height="4.631"/>
<rect x="45.455" y="31.601" width="0.248" height="4.631"/>
<rect x="44.904" y="31.601" width="0.248" height="4.631"/>
<rect x="44.354" y="31.601" width="0.248" height="4.631"/>
<rect x="43.804" y="31.601" width="0.248" height="4.631"/>
<rect x="43.252" y="31.601" width="0.248" height="4.631"/>
<rect x="42.702" y="31.601" width="0.248" height="4.631"/>
<rect x="42.151" y="31.601" width="0.248" height="4.631"/>
<rect x="41.601" y="31.601" width="0.248" height="4.631"/>
<rect x="41.049" y="31.601" width="0.248" height="4.631"/>
<rect x="40.499" y="31.601" width="0.248" height="4.631"/>
<rect x="39.947" y="31.601" width="0.248" height="4.631"/>
<rect x="39.397" y="31.601" width="0.248" height="4.631"/>
<rect x="38.848" y="31.601" width="0.248" height="4.631"/>
<rect x="38.296" y="31.601" width="0.248" height="4.631"/>
<rect x="37.746" y="31.601" width="0.248" height="4.631"/>
<rect x="37.194" y="31.601" width="0.248" height="4.631"/>
<rect x="36.645" y="31.601" width="0.248" height="4.631"/>
<rect x="36.093" y="31.601" width="0.248" height="4.631"/>
<rect x="35.543" y="31.601" width="0.248" height="4.631"/>
<rect x="34.991" y="31.601" width="0.248" height="4.631"/>
<rect x="34.441" y="31.601" width="0.248" height="4.631"/>
<rect x="33.892" y="31.601" width="0.248" height="4.631"/>
<rect x="33.34" y="31.601" width="0.248" height="4.631"/>
<rect x="32.79" y="31.601" width="0.249" height="4.631"/>
<rect x="32.238" y="31.601" width="0.248" height="4.631"/>
<rect x="31.688" y="31.601" width="0.248" height="4.631"/>
<rect x="31.137" y="31.601" width="0.248" height="4.631"/>
<rect x="30.587" y="31.601" width="0.248" height="4.631"/>
<rect x="30.035" y="31.601" width="0.248" height="4.631"/>
<rect x="29.485" y="31.601" width="0.248" height="4.631"/>
<rect x="28.936" y="31.601" width="0.248" height="4.631"/>
<rect x="28.384" y="31.601" width="0.248" height="4.631"/>
<rect x="27.834" y="31.601" width="0.248" height="4.631"/>
<rect x="27.282" y="31.601" width="0.248" height="4.631"/>
<rect x="26.732" y="31.601" width="0.248" height="4.631"/>
<rect x="47.658" y="26.202" width="0.248" height="4.631"/>
<rect x="47.106" y="26.202" width="0.248" height="4.631"/>
<rect x="46.557" y="26.202" width="0.248" height="4.631"/>
<rect x="46.005" y="26.202" width="0.248" height="4.631"/>
<rect x="45.455" y="26.202" width="0.248" height="4.631"/>
<rect x="44.904" y="26.202" width="0.248" height="4.631"/>
<rect x="44.354" y="26.202" width="0.248" height="4.631"/>
<rect x="43.804" y="26.202" width="0.248" height="4.631"/>
<rect x="43.252" y="26.202" width="0.248" height="4.631"/>
<rect x="42.702" y="26.202" width="0.248" height="4.631"/>
<rect x="42.151" y="26.202" width="0.248" height="4.631"/>
<rect x="41.601" y="26.202" width="0.248" height="4.631"/>
<rect x="41.049" y="26.202" width="0.248" height="4.631"/>
<rect x="40.499" y="26.202" width="0.248" height="4.631"/>
<rect x="39.947" y="26.202" width="0.248" height="4.631"/>
<rect x="39.397" y="26.202" width="0.248" height="4.631"/>
<rect x="38.848" y="26.202" width="0.248" height="4.631"/>
<rect x="38.296" y="26.202" width="0.248" height="4.631"/>
<rect x="37.746" y="26.202" width="0.248" height="4.631"/>
<rect x="37.194" y="26.202" width="0.248" height="4.631"/>
<rect x="36.645" y="26.202" width="0.248" height="4.631"/>
<rect x="36.093" y="26.202" width="0.248" height="4.631"/>
<rect x="35.543" y="26.202" width="0.248" height="4.631"/>
<rect x="34.991" y="26.202" width="0.248" height="4.631"/>
<rect x="34.441" y="26.202" width="0.248" height="4.631"/>
<rect x="33.892" y="26.202" width="0.248" height="4.631"/>
<rect x="33.34" y="26.202" width="0.248" height="4.631"/>
<rect x="32.79" y="26.202" width="0.249" height="4.631"/>
<rect x="32.238" y="26.202" width="0.248" height="4.631"/>
<rect x="31.688" y="26.202" width="0.248" height="4.631"/>
<rect x="31.137" y="26.202" width="0.248" height="4.631"/>
<rect x="30.587" y="26.202" width="0.248" height="4.631"/>
<rect x="30.035" y="26.202" width="0.248" height="4.631"/>
<rect x="29.485" y="26.202" width="0.248" height="4.631"/>
<rect x="28.936" y="26.202" width="0.248" height="4.631"/>
<rect x="28.384" y="26.202" width="0.248" height="4.631"/>
<rect x="27.834" y="26.202" width="0.248" height="4.631"/>
<rect x="27.282" y="26.202" width="0.248" height="4.631"/>
<rect x="26.732" y="26.202" width="0.248" height="4.631"/>
<rect x="48.208" y="20.899" width="0.248" height="4.631"/>
<rect x="47.658" y="20.899" width="0.248" height="4.631"/>
<rect x="47.106" y="20.899" width="0.248" height="4.631"/>
<rect x="46.557" y="20.899" width="0.248" height="4.631"/>
<rect x="46.005" y="20.899" width="0.248" height="4.631"/>
<rect x="45.455" y="20.899" width="0.248" height="4.631"/>
<rect x="44.904" y="20.899" width="0.248" height="4.631"/>
<rect x="44.354" y="20.899" width="0.248" height="4.631"/>
<rect x="43.804" y="20.899" width="0.248" height="4.631"/>
<rect x="43.252" y="20.899" width="0.248" height="4.631"/>
<rect x="42.702" y="20.899" width="0.248" height="4.631"/>
<rect x="42.151" y="20.899" width="0.248" height="4.631"/>
<rect x="41.601" y="20.899" width="0.248" height="4.631"/>
<rect x="41.049" y="20.899" width="0.248" height="4.631"/>
<rect x="40.499" y="20.899" width="0.248" height="4.631"/>
<rect x="39.947" y="20.899" width="0.248" height="4.631"/>
<rect x="39.397" y="20.899" width="0.248" height="4.631"/>
<rect x="38.848" y="20.899" width="0.248" height="4.631"/>
<rect x="38.296" y="20.899" width="0.248" height="4.631"/>
<rect x="37.746" y="20.899" width="0.248" height="4.631"/>
<rect x="37.194" y="20.899" width="0.248" height="4.631"/>
<rect x="36.645" y="20.899" width="0.248" height="4.631"/>
<rect x="36.093" y="20.899" width="0.248" height="4.631"/>
<rect x="35.543" y="20.899" width="0.248" height="4.631"/>
<rect x="34.991" y="20.899" width="0.248" height="4.631"/>
<rect x="34.441" y="20.899" width="0.248" height="4.631"/>
<rect x="33.892" y="20.899" width="0.248" height="4.631"/>
<rect x="33.34" y="20.899" width="0.248" height="4.631"/>
<rect x="32.79" y="20.899" width="0.249" height="4.631"/>
<rect x="32.238" y="20.899" width="0.248" height="4.631"/>
<rect x="31.688" y="20.899" width="0.248" height="4.631"/>
<rect x="31.137" y="20.899" width="0.248" height="4.631"/>
<rect x="30.587" y="20.899" width="0.248" height="4.631"/>
<rect x="30.035" y="20.899" width="0.248" height="4.631"/>
<rect x="29.485" y="20.899" width="0.248" height="4.631"/>
<rect x="28.936" y="20.899" width="0.248" height="4.631"/>
<rect x="28.384" y="20.899" width="0.248" height="4.631"/>
<rect x="27.834" y="20.899" width="0.248" height="4.631"/>
<rect x="27.282" y="20.899" width="0.248" height="4.631"/>
<rect x="26.732" y="20.899" width="0.248" height="4.631"/>
<path d="M26.449,53.641v22.303h22.302V53.641H26.449z M47.76,74.951H27.44v-20.32h20.32V74.951L47.76,74.951z"/>
<path d="M45.861,72.326H29.329c-0.055,0-0.099-0.047-0.099-0.1c0-0.057,0.043-0.101,0.099-0.101h16.532c0.055,0,0.1,0.044,0.1,0.101  C45.96,72.279,45.916,72.326,45.861,72.326z"/>
<path d="M29.329,72.326c-0.055,0-0.099-0.047-0.099-0.1v-15.86c0-0.056,0.043-0.099,0.099-0.099c0.055,0,0.099,0.043,0.099,0.099  v15.86C29.427,72.279,29.383,72.326,29.329,72.326z"/>
<path d="M42.544,73.316c-0.054,0-0.099-0.047-0.099-0.1v-0.99c0-0.057,0.044-0.101,0.099-0.101s0.1,0.044,0.1,0.101v0.99  C42.645,73.271,42.6,73.316,42.544,73.316z"/>
<path d="M39.241,73.316c-0.054,0-0.099-0.047-0.099-0.1v-0.99c0-0.057,0.045-0.101,0.099-0.101c0.055,0,0.1,0.044,0.1,0.101v0.99  C39.34,73.271,39.296,73.316,39.241,73.316z"/>
<path d="M35.937,73.316c-0.055,0-0.1-0.047-0.1-0.1v-0.99c0-0.057,0.044-0.101,0.1-0.101c0.054,0,0.099,0.044,0.099,0.101v0.99  C36.036,73.271,35.991,73.316,35.937,73.316z"/>
<path d="M32.633,73.316c-0.056,0-0.1-0.047-0.1-0.1v-0.99c0-0.057,0.044-0.101,0.1-0.101c0.054,0,0.099,0.044,0.099,0.101v0.99  C32.732,73.271,32.688,73.316,32.633,73.316z"/>
<path d="M29.329,73.316c-0.055,0-0.099-0.047-0.099-0.1v-0.99c0-0.057,0.043-0.101,0.099-0.101c0.055,0,0.099,0.044,0.099,0.101  v0.99C29.427,73.271,29.383,73.316,29.329,73.316z"/>
<path d="M45.849,73.316c-0.055,0-0.099-0.047-0.099-0.1v-0.99c0-0.057,0.043-0.101,0.099-0.101c0.056,0,0.099,0.044,0.099,0.101  v0.99C45.948,73.271,45.904,73.316,45.849,73.316z"/>
<path d="M32.525,72.219h-3.101V62.111c0-0.219,0.179-0.396,0.397-0.396h2.308c0.219,0,0.396,0.179,0.396,0.396V72.219z"/>
<path d="M35.831,72.219H32.73V66.08c0-0.219,0.177-0.396,0.397-0.396h2.308c0.219,0,0.396,0.178,0.396,0.396V72.219z"/>
<path d="M39.124,72.219h-3.101v-3.359c0-0.219,0.177-0.396,0.396-0.396h2.308c0.219,0,0.397,0.178,0.397,0.396V72.219z"/>
<path d="M42.441,72.219H39.34V66.08c0-0.219,0.177-0.396,0.397-0.396h2.308c0.219,0,0.396,0.178,0.396,0.396V72.219L42.441,72.219z"/>
<path d="M45.744,72.219h-3.1v-9.113c0-0.219,0.177-0.397,0.396-0.397h2.308c0.219,0,0.397,0.181,0.397,0.397L45.744,72.219  L45.744,72.219z"/>
<rect x="73.018" y="20.899" width="0.246" height="1.853"/>
<rect x="73.018" y="23.495" width="0.246" height="2.241"/>
<rect x="73.018" y="26.479" width="0.246" height="1.854"/>
<rect x="72.462" y="20.899" width="0.246" height="1.853"/>
<rect x="72.462" y="23.495" width="0.246" height="2.241"/>
<rect x="72.462" y="26.479" width="0.246" height="1.854"/>
<rect x="71.916" y="20.899" width="0.249" height="1.853"/>
<rect x="71.916" y="23.495" width="0.249" height="2.241"/>
<rect x="71.916" y="26.479" width="0.249" height="1.854"/>
<rect x="71.361" y="20.899" width="0.246" height="1.853"/>
<rect x="71.361" y="23.495" width="0.246" height="2.241"/>
<rect x="71.361" y="26.479" width="0.246" height="1.854"/>
<rect x="70.816" y="20.899" width="0.246" height="1.853"/>
<rect x="70.816" y="23.495" width="0.246" height="2.241"/>
<rect x="70.816" y="26.479" width="0.246" height="1.854"/>
<rect x="70.262" y="20.899" width="0.246" height="1.853"/>
<rect x="70.262" y="23.495" width="0.246" height="2.241"/>
<rect x="70.262" y="26.479" width="0.246" height="1.854"/>
<rect x="69.716" y="20.899" width="0.249" height="1.853"/>
<rect x="69.716" y="23.495" width="0.249" height="2.241"/>
<rect x="69.716" y="26.479" width="0.249" height="1.854"/>
<rect x="69.161" y="20.899" width="0.247" height="1.853"/>
<rect x="69.161" y="23.495" width="0.247" height="2.241"/>
<rect x="69.161" y="26.479" width="0.247" height="1.854"/>
<rect x="68.615" y="20.899" width="0.246" height="1.853"/>
<rect x="68.615" y="23.495" width="0.246" height="2.241"/>
<rect x="68.615" y="26.479" width="0.246" height="1.854"/>
<rect x="68.061" y="20.899" width="0.248" height="1.853"/>
<rect x="68.061" y="23.495" width="0.248" height="2.241"/>
<rect x="68.061" y="26.479" width="0.248" height="1.854"/>
<rect x="67.506" y="20.899" width="0.247" height="1.853"/>
<rect x="67.506" y="23.495" width="0.247" height="2.241"/>
<rect x="67.506" y="26.479" width="0.247" height="1.854"/>
<rect x="66.961" y="20.899" width="0.246" height="1.853"/>
<rect x="66.961" y="23.495" width="0.246" height="2.241"/>
<rect x="66.961" y="26.479" width="0.246" height="1.854"/>
<rect x="66.402" y="20.899" width="0.25" height="1.853"/>
<rect x="66.402" y="23.495" width="0.25" height="2.241"/>
<rect x="66.402" y="26.479" width="0.25" height="1.854"/>
<rect x="65.859" y="20.899" width="0.248" height="1.853"/>
<rect x="65.859" y="23.495" width="0.248" height="2.241"/>
<rect x="65.859" y="26.479" width="0.248" height="1.854"/>
<rect x="65.307" y="20.899" width="0.246" height="1.853"/>
<rect x="65.307" y="23.495" width="0.246" height="2.241"/>
<rect x="65.307" y="26.479" width="0.246" height="1.854"/>
<rect x="64.76" y="20.899" width="0.247" height="1.853"/>
<rect x="64.76" y="23.495" width="0.247" height="2.241"/>
<rect x="64.76" y="26.479" width="0.247" height="1.854"/>
<rect x="64.205" y="20.899" width="0.247" height="1.853"/>
<rect x="64.205" y="23.495" width="0.247" height="2.241"/>
<rect x="64.205" y="26.479" width="0.247" height="1.854"/>
<rect x="63.66" y="20.899" width="0.246" height="1.853"/>
<rect x="63.66" y="23.495" width="0.246" height="2.241"/>
<rect x="63.66" y="26.479" width="0.246" height="1.854"/>
<rect x="63.104" y="20.899" width="0.248" height="1.853"/>
<rect x="63.104" y="23.495" width="0.248" height="2.241"/>
<rect x="63.104" y="26.479" width="0.248" height="1.854"/>
<rect x="62.548" y="20.899" width="0.249" height="1.853"/>
<rect x="62.548" y="23.495" width="0.249" height="2.241"/>
<rect x="62.548" y="26.479" width="0.249" height="1.854"/>
<rect x="62.005" y="20.899" width="0.247" height="1.853"/>
<rect x="62.005" y="23.495" width="0.247" height="2.241"/>
<rect x="62.005" y="26.479" width="0.247" height="1.854"/>
<rect x="61.448" y="20.899" width="0.247" height="1.853"/>
<rect x="61.448" y="23.495" width="0.247" height="2.241"/>
<rect x="61.448" y="26.479" width="0.247" height="1.854"/>
<rect x="60.893" y="20.899" width="0.25" height="1.853"/>
<rect x="60.893" y="23.495" width="0.25" height="2.241"/>
<rect x="60.893" y="26.479" width="0.25" height="1.854"/>
<rect x="60.35" y="20.899" width="0.248" height="1.853"/>
<rect x="60.35" y="23.495" width="0.248" height="2.241"/>
<rect x="60.35" y="26.479" width="0.248" height="1.854"/>
<rect x="59.805" y="20.899" width="0.246" height="1.853"/>
<rect x="59.805" y="23.495" width="0.246" height="2.241"/>
<rect x="59.805" y="26.479" width="0.246" height="1.854"/>
<rect x="59.247" y="20.899" width="0.249" height="1.853"/>
<rect x="59.247" y="23.495" width="0.249" height="2.241"/>
<rect x="59.247" y="26.479" width="0.249" height="1.854"/>
<rect x="58.702" y="20.899" width="0.249" height="1.853"/>
<rect x="58.702" y="23.495" width="0.249" height="2.241"/>
<rect x="58.702" y="26.479" width="0.249" height="1.854"/>
<rect x="58.146" y="20.899" width="0.25" height="1.853"/>
<rect x="58.146" y="23.495" width="0.25" height="2.241"/>
<rect x="58.146" y="26.479" width="0.25" height="1.854"/>
<rect x="57.593" y="20.899" width="0.248" height="1.853"/>
<rect x="57.593" y="23.495" width="0.248" height="2.241"/>
<rect x="57.593" y="26.479" width="0.248" height="1.854"/>
<rect x="57.047" y="20.899" width="0.249" height="1.853"/>
<rect x="57.047" y="23.495" width="0.249" height="2.241"/>
<rect x="57.047" y="26.479" width="0.249" height="1.854"/>
<rect x="56.492" y="20.899" width="0.249" height="1.853"/>
<rect x="56.492" y="23.495" width="0.249" height="2.241"/>
<rect x="56.492" y="26.479" width="0.249" height="1.854"/>
<rect x="55.938" y="20.899" width="0.25" height="1.853"/>
<rect x="55.938" y="23.495" width="0.25" height="2.241"/>
<rect x="55.938" y="26.479" width="0.25" height="1.854"/>
<rect x="55.393" y="20.899" width="0.248" height="1.853"/>
<rect x="55.393" y="23.495" width="0.248" height="2.241"/>
<rect x="55.393" y="26.479" width="0.248" height="1.854"/>
<rect x="54.85" y="20.899" width="0.246" height="1.853"/>
<rect x="54.85" y="23.495" width="0.246" height="2.241"/>
<rect x="54.85" y="26.479" width="0.246" height="1.854"/>
<rect x="54.292" y="20.899" width="0.249" height="1.853"/>
<rect x="54.292" y="23.495" width="0.249" height="2.241"/>
<rect x="54.292" y="26.479" width="0.249" height="1.854"/>
<rect x="53.746" y="20.899" width="0.249" height="1.853"/>
<rect x="53.746" y="23.495" width="0.249" height="2.241"/>
<rect x="53.746" y="26.479" width="0.249" height="1.854"/>
<rect x="53.191" y="20.899" width="0.246" height="1.853"/>
<rect x="53.191" y="23.495" width="0.246" height="2.241"/>
<rect x="53.191" y="26.479" width="0.246" height="1.854"/>
<rect x="52.637" y="20.899" width="0.25" height="1.853"/>
<rect x="52.637" y="23.495" width="0.25" height="2.241"/>
<rect x="52.637" y="26.479" width="0.25" height="1.854"/>
<rect x="52.092" y="20.899" width="0.248" height="1.853"/>
<rect x="52.092" y="23.495" width="0.248" height="2.241"/>
<rect x="52.092" y="26.479" width="0.248" height="1.854"/>
<rect x="51.536" y="20.899" width="0.247" height="1.853"/>
<rect x="51.536" y="23.495" width="0.247" height="2.241"/>
<rect x="51.536" y="26.479" width="0.247" height="1.854"/>
<rect x="51.536" y="20.899" width="0.247" height="1.853"/>
<rect x="51.536" y="23.495" width="0.247" height="2.241"/>
<rect x="51.536" y="26.479" width="0.247" height="1.854"/>
<path d="M51.249,29.829v22.303h22.302V29.829H51.249z M62.4,49.604c-4.719,0-8.564-3.816-8.623-8.524v-0.198  c0.019-1.101,0.236-2.151,0.623-3.112c0.01-0.03,0.02-0.06,0.029-0.089c0.021-0.03,0.029-0.06,0.039-0.089  c0.428-0.991,1.031-1.883,1.766-2.637l3.578,3.578c-0.276,0.288-0.504,0.625-0.662,0.992c-0.021,0.029-0.031,0.06-0.041,0.089  c-0.021,0.03-0.03,0.06-0.041,0.089c-0.139,0.367-0.228,0.763-0.228,1.18c-0.01,0.03-0.01,0.059-0.01,0.099c0,0.03,0,0.07,0.01,0.1  c0.05,1.922,1.627,3.469,3.56,3.469c1.974,0,3.568-1.606,3.568-3.569c0-1.933-1.548-3.519-3.47-3.568v-5.055  c4.707,0.049,8.524,3.895,8.524,8.623C71.023,45.739,67.159,49.604,62.4,49.604z"/>
</svg>