<svg xmlns="http://www.w3.org/2000/svg" xmlns:xlink="http://www.w3.org/1999/xlink" version="1.1" id="Layer_1" x="0px" y="0px" width="47.8468899522px" height="100px" viewBox="0 0 100 209.667" enable-background="new 0 0 100 209.667" xml:space="preserve">
<path d="M96.1,25.786c-0.001-0.096-0.056-0.183-0.143-0.224l-10.669-5.09L71.14,3.199l-0.01-0.005  c-0.044-0.049-0.104-0.081-0.174-0.083l-0.007-0.003l0,0c-0.001,0-0.001,0-0.001,0c-0.073,0-0.136,0.033-0.182,0.083l-0.01,0.004  L56.175,20.097c-0.022,0.026-0.02,0.059-0.029,0.089l-3.497,1.609l0,0l-7.255,3.311c-0.044,0.02-0.08,0.052-0.105,0.091  c-0.053,0.046-0.089,0.108-0.089,0.184v0.929c0,0.097,0.057,0.187,0.146,0.227l0.622,0.286v0.854c0,0.092,0.051,0.177,0.133,0.221  l0.213,0.113l-0.949,0.404c-0.09,0.039-0.149,0.125-0.152,0.224c-0.001,0.034,0.013,0.064,0.025,0.095  c-0.006,0.022-0.025,0.038-0.025,0.062v0.929c0,0.096,0.055,0.184,0.142,0.225l3.865,1.862L49.2,36.672l-3.917,1.823l-13.87-16.935  l-0.01-0.005c-0.042-0.048-0.101-0.078-0.169-0.082l-0.01-0.005l0,0c0,0,0,0-0.001,0c-0.073,0-0.136,0.033-0.182,0.083l-0.01,0.004  L16.448,38.46c-0.022,0.025-0.019,0.058-0.029,0.088l-3.498,1.609h0l-7.254,3.31c-0.044,0.021-0.08,0.053-0.105,0.092  c-0.053,0.046-0.089,0.108-0.089,0.184v0.929c0,0.098,0.057,0.186,0.146,0.227l0.622,0.286v0.854c0,0.092,0.051,0.177,0.132,0.221  l0.214,0.114l-0.949,0.405C5.546,46.815,5.487,46.902,5.484,47c-0.001,0.034,0.013,0.064,0.025,0.095  c-0.006,0.022-0.025,0.037-0.025,0.061v0.93c0,0.096,0.055,0.184,0.142,0.225l3.034,1.462L7.864,193.475  c0,0.098,0.056,0.187,0.145,0.228l21.61,10.048c0.067,0.031,0.138,0.026,0.201-0.001l0.01,0.001l21.475-10.048  c0.088-0.041,0.144-0.128,0.145-0.225l0.162-16.854l6.632,3.174v0.002c-0.001,0.138,0.11,0.251,0.248,0.252  c0.06,0,0.109-0.027,0.152-0.062l3.239,1.55v0.051c-0.001,0.138,0.109,0.251,0.248,0.252c0.078,0.001,0.141-0.039,0.187-0.095  l3.283,1.571c0.014,0.125,0.11,0.227,0.238,0.228c0.05,0,0.089-0.027,0.128-0.052l3.376,1.615c0.067,0.032,0.139,0.027,0.203,0  l0.011,0.001l21.602-10.073c0.088-0.041,0.144-0.128,0.145-0.225l1.245-142.806l3.406-1.566c0.089-0.041,0.146-0.129,0.146-0.227  v-0.929c0-0.095-0.062-0.162-0.141-0.205c-0.017-0.016-0.029-0.036-0.051-0.047l-1.039-0.517l0.317-0.146  c0.089-0.041,0.146-0.129,0.146-0.227v-0.854l0.622-0.287c0.089-0.041,0.146-0.13,0.146-0.227v-0.929  c0-0.01-0.009-0.016-0.011-0.025C96.091,25.811,96.1,25.8,96.1,25.786z M88.291,26.24v0.541l-13.969,6.542l-1.174-0.542  l-0.211,0.001l-1.991,0.94l0.021-2.516l3.113,1.519h0.013c0.062,0.027,0.135,0.033,0.202,0.002v0l0,0h0.001l0.091-0.042  L88.291,26.24z M68.199,32.734l-0.212,0.004l-0.924,0.455l-14.106-7.027l-0.018-0.375l13.816,6.781l0.204,0.007l3.509-1.414  l-0.022,2.569L68.199,32.734z M53.002,22.424l2.67,1.318l-1.025,0.465l-0.576-0.884l-0.1-0.088l-0.969-0.474V22.424z M56.252,24.028  l13.839,6.75l-3.215,1.295l-13.621-6.685L56.252,24.028z M56.603,20.655l13.883,6.791l-0.025,2.957l-13.949-6.804L56.603,20.655z   M70.985,27.411l13.895-6.348v2.732l-13.92,6.608L70.985,27.411z M85.38,21.075l2.708,1.326l-2.708,1.172V21.075z M70.99,26.859  l0.2-22.81l13.541,16.531L70.99,26.859z M70.49,26.892l-13.725-6.714L70.69,4.037L70.49,26.892z M74.192,32.223l-2.909-1.419  l13.841-6.57l2.859,1.529L74.192,32.223z M85.704,23.977l2.729-1.182v0.495l-0.888,0.351l-0.114,0.09l-0.59,0.854L85.704,23.977z   M56.099,20.758l-0.081,2.598l-2.685-1.326L56.099,20.758z M46.466,27.525v-0.778c0-0.019-0.016-0.031-0.021-0.049  c0.016-0.107-0.022-0.216-0.125-0.264l-0.622-0.286v-0.434l2.743,1.386l-1.54,0.657L46.466,27.525z M49.716,32.051l17.126,8.25  h0.011c0.021,0.021,0.029,0.051,0.058,0.064l1.215,0.579l0.241-0.014l0.022-0.042l0.502-0.231l1.463,3.833  c0.007,0.019,0.025,0.03,0.036,0.046l-1.187,139.953L66.093,183l0.677-94.604c0-0.015-0.013-0.023-0.015-0.037l1.296-0.628  c0.085-0.041,0.14-0.127,0.141-0.222l0.402-33.936c0.104-0.066,0.155-0.194,0.103-0.309c-0.021-0.043-0.061-0.065-0.098-0.09  l0.12-10.115l-0.017-0.032c-0.007-0.058-0.033-0.103-0.077-0.143l-0.02-0.037l-0.014-0.001c-0.007-0.004-0.007-0.012-0.014-0.015  l-15.86-7.693l-0.215-0.001l-2.802,1.304L49.716,32.051z M72.794,39.684v0.642l-0.459-0.231l-0.201-0.011l-0.144,0.141l-1.086,2.712  l0.035-4.186L72.794,39.684z M73.294,39.935l0.396,0.199l-0.396,0.188V39.935z M70.402,43.211l-1.14-2.983l-0.139-0.142  l-0.199,0.004l-0.441,0.204v-0.651l1.957-0.904L70.402,43.211z M67.506,40.095l0.478-0.221v0.448L67.506,40.095z M63.032,98.775  l-0.239-0.019l-10.48,4.726l0.078-8.168l13.877-6.721l-0.673,94.167l-3.208-1.535l0.759-82.239L63.032,98.775z M53.98,49.836  c0.004-0.001,0.007,0.001,0.011,0l14.223-6.391l-0.116,9.819l-15.372,7.067l0.096-9.962L53.98,49.836z M56.23,47.441  c-0.017-0.015-0.028-0.035-0.05-0.046l-1.039-0.517l0.318-0.146c0.089-0.041,0.146-0.129,0.146-0.227v-0.854l0.621-0.285  c0.089-0.041,0.146-0.129,0.146-0.227v-0.929c0-0.01-0.01-0.016-0.011-0.025c0.002-0.013,0.011-0.024,0.011-0.038  c-0.001-0.096-0.056-0.183-0.143-0.224l-10.582-5.047l3.607-1.678c0.045,0.063,0.108,0.112,0.192,0.112  c0.138,0,0.25-0.111,0.251-0.249l0-0.07l2.907-1.353l15.271,7.408l-11.506,5.17v-0.571C56.372,47.551,56.31,47.484,56.23,47.441z   M55.251,45.265c-0.103,0.047-0.142,0.157-0.126,0.264c-0.004,0.018-0.02,0.029-0.02,0.048v0.769l-0.539,0.248l-1.395-0.694  l2.7-1.346v0.426L55.251,45.265z M28.473,51.096l-0.212,0.004l-0.924,0.455L13.23,44.528l-0.018-0.375l13.817,6.78l0.204,0.007  l3.509-1.413l-0.022,2.568L28.473,51.096z M13.274,40.787l2.671,1.318l-1.026,0.465l-0.575-0.884l-0.1-0.088l-0.97-0.473V40.787z   M16.525,42.391l13.84,6.75l-3.215,1.294l-13.622-6.685L16.525,42.391z M16.875,39.018l13.884,6.792l-0.026,2.956l-13.949-6.804  L16.875,39.018z M31.26,45.772l13.894-6.347v2.731l-13.92,6.609L31.26,45.772z M45.653,39.438l2.707,1.325l-2.707,1.172V39.438z   M31.265,45.221l0.199-22.81l13.541,16.533L31.265,45.221z M30.764,45.255l-13.726-6.714l13.925-16.143L30.764,45.255z   M31.241,49.569l3.113,1.519h0.013c0.063,0.028,0.134,0.034,0.202,0.002l13.996-6.487v0.541l-13.969,6.541l-1.174-0.542  l-0.212,0.001l-1.991,0.94L31.241,49.569z M34.466,50.585l-2.91-1.419l13.841-6.571l2.86,1.53L34.466,50.585z M45.978,42.339  l2.729-1.182v0.496l-0.887,0.351l-0.114,0.09l-0.59,0.853L45.978,42.339z M52.721,60.883l15.37-7.066l-0.397,33.532l-15.298,7.408  L52.721,60.883z M16.372,39.12l-0.081,2.598l-2.686-1.325L16.372,39.12z M6.739,45.887v-0.778c0-0.019-0.016-0.031-0.021-0.049  c0.016-0.107-0.022-0.216-0.125-0.263l-0.622-0.286v-0.435l2.743,1.387L7.176,46.12L6.739,45.887z M7.22,46.645  c0.037-0.005,0.062-0.02,0.093-0.04l2.091-0.892c0.089-0.038,0.148-0.125,0.152-0.222c0.003-0.097-0.05-0.188-0.137-0.231  l-3.072-1.553l6.427-2.932v0.507c0,0.096,0.054,0.183,0.141,0.225l1.048,0.511l0.496,0.762l-1.62,0.735  c-0.022,0.01-0.036,0.031-0.055,0.047c-0.011,0.01-0.022,0.016-0.032,0.028c-0.034,0.042-0.059,0.092-0.06,0.149  c0,0.003,0.002,0.006,0.002,0.01c0,0.002-0.002,0.003-0.002,0.006l0.045,0.944c0.004,0.091,0.057,0.171,0.138,0.212l14.349,7.148  l0.222,0l0.93-0.458l2.488,1.108c0.067,0.03,0.138,0.024,0.2-0.003l0.009,0l2.246-1.061l1.173,0.542l0.211,0l14.218-6.658  c0.088-0.042,0.144-0.129,0.144-0.227v-1.092l-0.013-0.024c0.003-0.014,0.013-0.026,0.013-0.042  c0.002-0.095-0.048-0.182-0.132-0.227l-1.374-0.734l0.515-0.744l0.975-0.385c0.096-0.038,0.158-0.13,0.158-0.232v-0.695l6.345,3.027  l-3.053,1.522c-0.085,0.042-0.139,0.129-0.139,0.224c0,0.095,0.054,0.182,0.139,0.224l2.992,1.487l-20.956,9.684l-3.458-1.738  l-0.217-0.003l-3.633,1.679L6.335,47.022L7.22,46.645z M5.984,47.407l21.13,10.327l0.215,0.002l3.632-1.679l3.458,1.738l0.217,0.004  l21.236-9.813v0.43l-3.281,1.508c-0.006,0-0.01-0.007-0.016-0.007c-0.081-0.001-0.144,0.042-0.19,0.101l-17.849,8.205l-3.458-1.738  l-0.05-0.001c-0.022-0.006-0.037-0.025-0.061-0.025c-0.022,0-0.038,0.018-0.059,0.023l-0.048,0l-3.634,1.681L5.984,47.929V47.407z   M33.067,58.687l-0.458-0.231l-0.201-0.01l-0.144,0.141l-1.087,2.716l0.036-4.191l1.854,0.932V58.687z M28.756,58.006l1.957-0.905  l-0.038,4.469l-1.139-2.98l-0.139-0.142l-0.199,0.004l-0.442,0.204V58.006z M33.567,58.296l0.396,0.199l-0.396,0.189V58.296z   M28.256,58.238v0.447l-0.476-0.227L28.256,58.238z M9.159,50.013l17.957,8.651h0.011c0.02,0.021,0.029,0.049,0.056,0.062  l1.214,0.58l0.241-0.014l0.023-0.041l0.502-0.232l1.464,3.833c0.007,0.018,0.024,0.028,0.035,0.044l-1.186,140.237l-21.113-9.816  L9.159,50.013z M29.978,203.129l1.188-140.451l1.461-3.652l0.578,0.29c0.073,0.037,0.149,0.025,0.217-0.009h0.003l1.214-0.58l0,0  l17.68-8.127l-0.51,53.132c-0.091,0.069-0.138,0.183-0.088,0.291c0.018,0.038,0.054,0.056,0.084,0.079l-0.689,71.974  c-0.007,0.009-0.02,0.011-0.024,0.021c-0.037,0.078-0.019,0.158,0.021,0.228l-0.163,16.991L29.978,203.129z M52.175,117.784  l2.929-1.447l-0.248,61.284l-3.239-1.551L52.175,117.784z M55.354,177.86l0.251-61.926l-0.117-0.213l-0.243-0.013l-3.064,1.515  l0.06-6.243c0.002-0.001,0.003,0.001,0.005,0l6.528-2.724l-0.526,70.987L55.354,177.86z M58.745,179.482l0.531-71.6l-0.11-0.21  l-0.236-0.022l-6.685,2.788l0.062-6.406l10.335-4.659l-0.753,81.614L58.745,179.482z M90.804,174.65l-21.1,9.84l1.188-140.179  l1.461-3.648l0.578,0.291c0.073,0.037,0.15,0.024,0.219-0.01h0.001l1.211-0.577l0,0l17.684-8.129L90.804,174.65z M92.316,31.562  c-0.006,0-0.009-0.006-0.015-0.006c-0.08,0-0.143,0.042-0.189,0.1l-17.85,8.206l-3.457-1.738l-0.05-0.001  c-0.021-0.006-0.037-0.025-0.061-0.025c-0.022,0-0.037,0.018-0.059,0.023l-0.048,0L66.953,39.8L45.711,29.566v-0.521l21.131,10.328  l0.214,0.002l3.633-1.679l3.457,1.739l0.217,0.004L95.6,29.624v0.43L92.316,31.562z M74.263,38.934l-3.457-1.739l-0.217-0.004  l-3.635,1.68L46.062,28.66l0.884-0.377c0.037-0.005,0.064-0.02,0.095-0.041l2.091-0.892c0.089-0.038,0.148-0.125,0.152-0.222  c0.003-0.097-0.05-0.188-0.137-0.231l-3.072-1.553l6.427-2.933v0.508c0,0.096,0.055,0.183,0.141,0.225l1.047,0.512l0.497,0.762  l-1.62,0.735c-0.022,0.01-0.036,0.031-0.055,0.046c-0.011,0.01-0.022,0.016-0.032,0.028c-0.034,0.043-0.059,0.093-0.06,0.149  c0,0.003,0.002,0.006,0.002,0.009c0.001,0.002-0.002,0.004-0.002,0.007l0.044,0.944c0.005,0.091,0.058,0.171,0.139,0.212  l14.349,7.148l0.222,0l0.93-0.458l2.489,1.109c0.066,0.03,0.138,0.024,0.199-0.003l0.009,0l2.245-1.061l1.174,0.542l0.211,0  l14.218-6.658c0.088-0.042,0.144-0.129,0.144-0.227v-1.092l-0.013-0.023c0.003-0.015,0.013-0.026,0.013-0.042  c0.002-0.095-0.049-0.182-0.132-0.227l-1.373-0.734l0.514-0.744l0.976-0.385c0.096-0.038,0.158-0.13,0.158-0.232v-0.695l6.346,3.027  l-3.053,1.521c-0.085,0.042-0.139,0.129-0.139,0.224c0,0.095,0.054,0.182,0.139,0.224l2.992,1.487L74.263,38.934z M94.978,26.903  c-0.104,0.047-0.142,0.157-0.126,0.264c-0.004,0.018-0.02,0.029-0.02,0.048v0.769l-0.537,0.247l-1.396-0.694l2.7-1.345v0.425  L94.978,26.903z M73.927,42.748l-0.14,6.907l0.11,0.212l0.238,0.022l1.999-0.858c0.09-0.039,0.149-0.126,0.151-0.225l0.141-6.907  l-0.11-0.212l-0.238-0.022l-2,0.858C73.988,42.562,73.929,42.649,73.927,42.748z M74.424,42.918l1.495-0.641l-0.13,6.358  l-1.494,0.642L74.424,42.918z M78.267,47.972l1.999-0.858c0.09-0.039,0.149-0.126,0.151-0.225l0.142-6.907l-0.11-0.212l-0.238-0.022  l-2,0.858c-0.09,0.039-0.149,0.127-0.151,0.225l-0.141,6.907l0.11,0.212L78.267,47.972z M78.556,41l1.495-0.641l-0.131,6.358  l-1.494,0.642L78.556,41z M82.411,46.006l1.999-0.857c0.09-0.039,0.149-0.127,0.151-0.225l0.14-6.906l-0.11-0.212l-0.238-0.022  l-1.999,0.858c-0.09,0.039-0.149,0.127-0.151,0.225l-0.14,6.906l0.11,0.212L82.411,46.006z M82.699,39.036l1.494-0.641l-0.129,6.357  l-1.494,0.642L82.699,39.036z M86.393,44.078l0.242,0.013l2.016-0.976c0.086-0.042,0.142-0.13,0.141-0.227l-0.043-6.79l-0.113-0.208  l-0.235-0.021l-2,0.858c-0.092,0.039-0.151,0.13-0.151,0.23l0.027,6.907L86.393,44.078z M88.25,36.479l0.04,6.255l-1.517,0.734  l-0.024-6.345L88.25,36.479z M76.078,50.954l-2,0.858c-0.09,0.039-0.149,0.127-0.151,0.225l-0.14,6.907l0.11,0.212l0.238,0.022  l1.999-0.858c0.09-0.039,0.149-0.126,0.151-0.225l0.141-6.907l-0.11-0.212L76.078,50.954z M74.424,52.208l1.495-0.641l-0.13,6.358  l-1.494,0.642L74.424,52.208z M78.267,57.26l1.999-0.858c0.09-0.039,0.149-0.126,0.151-0.225l0.142-6.906l-0.11-0.212l-0.238-0.022  l-2,0.858c-0.09,0.039-0.149,0.127-0.151,0.225l-0.141,6.906l0.11,0.212L78.267,57.26z M78.556,50.29l1.495-0.641l-0.131,6.357  l-1.494,0.642L78.556,50.29z M82.411,55.295l1.999-0.858c0.09-0.039,0.149-0.126,0.151-0.225l0.14-6.906l-0.11-0.212l-0.238-0.022  l-1.999,0.858c-0.09,0.039-0.149,0.127-0.151,0.225l-0.14,6.906l0.11,0.212L82.411,55.295z M82.699,48.326l1.494-0.642l-0.129,6.357  l-1.494,0.642L82.699,48.326z M86.393,53.367l0.242,0.013l2.016-0.976c0.086-0.042,0.142-0.13,0.141-0.227l-0.043-6.79l-0.113-0.208  l-0.235-0.021l-2,0.858c-0.092,0.04-0.151,0.13-0.151,0.231l0.027,6.907L86.393,53.367z M88.25,45.769l0.04,6.254l-1.517,0.734  l-0.024-6.345L88.25,45.769z M76.078,60.243l-2,0.858c-0.09,0.039-0.149,0.127-0.151,0.225l-0.14,6.906l0.11,0.212l0.238,0.022  l1.999-0.858c0.09-0.039,0.149-0.126,0.151-0.225l0.141-6.906l-0.11-0.212L76.078,60.243z M74.424,61.497l1.495-0.641l-0.13,6.357  l-1.494,0.642L74.424,61.497z M78.267,66.549l1.999-0.857c0.09-0.039,0.149-0.127,0.151-0.225l0.142-6.907l-0.11-0.212l-0.238-0.022  l-2,0.859c-0.09,0.039-0.149,0.126-0.151,0.225l-0.141,6.906l0.11,0.212L78.267,66.549z M78.556,59.579l1.495-0.642l-0.131,6.358  l-1.494,0.642L78.556,59.579z M82.411,64.585l1.999-0.858c0.09-0.039,0.149-0.126,0.151-0.225l0.14-6.907l-0.11-0.212l-0.238-0.022  l-1.999,0.858c-0.09,0.039-0.149,0.127-0.151,0.225l-0.14,6.907l0.11,0.212L82.411,64.585z M82.699,57.614l1.494-0.641l-0.129,6.358  l-1.494,0.642L82.699,57.614z M86.393,62.655l0.241,0.013l2.016-0.975c0.087-0.042,0.143-0.13,0.142-0.227l-0.043-6.789  l-0.113-0.208l-0.235-0.021l-2,0.858c-0.092,0.04-0.151,0.131-0.151,0.231l0.027,6.906L86.393,62.655z M88.25,55.058l0.04,6.254  l-1.517,0.734l-0.024-6.343L88.25,55.058z M76.078,69.532l-2,0.858c-0.09,0.039-0.149,0.127-0.151,0.225l-0.14,6.906l0.11,0.212  l0.238,0.022l1.999-0.858c0.09-0.038,0.149-0.126,0.151-0.225l0.141-6.906l-0.11-0.212L76.078,69.532z M74.424,70.786l1.495-0.641  l-0.13,6.357l-1.494,0.642L74.424,70.786z M78.267,75.839l1.999-0.858c0.09-0.039,0.149-0.126,0.151-0.225l0.142-6.907l-0.11-0.212  l-0.238-0.022l-2,0.858c-0.09,0.039-0.149,0.127-0.151,0.225l-0.141,6.906l0.11,0.212L78.267,75.839z M78.556,68.869l1.495-0.642  l-0.131,6.358l-1.494,0.642L78.556,68.869z M82.411,73.874l1.999-0.858c0.09-0.039,0.149-0.126,0.151-0.225l0.14-6.907l-0.11-0.212  l-0.238-0.022l-1.999,0.858c-0.09,0.039-0.149,0.126-0.151,0.225l-0.14,6.907l0.11,0.212L82.411,73.874z M82.699,66.903l1.494-0.642  l-0.129,6.358l-1.494,0.642L82.699,66.903z M86.393,71.945l0.242,0.013l2.016-0.976c0.086-0.042,0.142-0.13,0.141-0.227l-0.043-6.79  l-0.113-0.208l-0.235-0.021l-2,0.858c-0.092,0.04-0.151,0.131-0.151,0.231l0.027,6.906L86.393,71.945z M88.25,64.346l0.04,6.254  l-1.517,0.734l-0.024-6.344L88.25,64.346z M76.078,78.821l-2,0.858c-0.09,0.038-0.149,0.126-0.151,0.225l-0.14,6.906l0.11,0.212  l0.238,0.022l1.999-0.857c0.09-0.038,0.149-0.127,0.151-0.225l0.141-6.907l-0.11-0.212L76.078,78.821z M74.424,80.075l1.495-0.642  l-0.13,6.358l-1.494,0.641L74.424,80.075z M78.267,85.128l1.999-0.858c0.09-0.038,0.149-0.126,0.151-0.225l0.142-6.907l-0.11-0.212  l-0.238-0.022l-2,0.858c-0.09,0.038-0.149,0.126-0.151,0.225l-0.141,6.907l0.11,0.212L78.267,85.128z M78.556,78.157l1.495-0.642  l-0.131,6.358l-1.494,0.642L78.556,78.157z M82.411,83.162l1.999-0.858c0.09-0.038,0.149-0.127,0.151-0.225l0.14-6.906l-0.11-0.212  l-0.238-0.022l-1.999,0.858c-0.09,0.038-0.149,0.126-0.151,0.225l-0.14,6.906l0.11,0.212L82.411,83.162z M82.699,76.192l1.494-0.641  l-0.129,6.357L82.57,82.55L82.699,76.192z M86.393,81.234l0.242,0.013l2.016-0.976c0.086-0.042,0.142-0.13,0.141-0.227l-0.043-6.79  l-0.113-0.208l-0.235-0.021l-2,0.858c-0.092,0.039-0.151,0.13-0.151,0.23l0.027,6.907L86.393,81.234z M88.25,73.635l0.04,6.255  l-1.517,0.733l-0.024-6.344L88.25,73.635z M75.866,88.164l-2,0.858c-0.09,0.038-0.149,0.126-0.151,0.225l-0.14,6.907l0.11,0.212  l0.238,0.022l1.999-0.858c0.09-0.038,0.149-0.126,0.151-0.225l0.141-6.907l-0.11-0.212L75.866,88.164z M74.212,89.418l1.495-0.642  l-0.13,6.358l-1.494,0.642L74.212,89.418z M78.055,94.471l1.999-0.857c0.09-0.038,0.149-0.126,0.151-0.225l0.142-6.907l-0.11-0.212  l-0.238-0.022l-2,0.857c-0.09,0.038-0.149,0.126-0.151,0.225l-0.141,6.907l0.11,0.212L78.055,94.471z M78.344,87.5l1.495-0.641  l-0.131,6.358l-1.494,0.641L78.344,87.5z M82.199,92.507l1.999-0.859c0.09-0.038,0.149-0.127,0.151-0.225l0.14-6.906l-0.11-0.212  l-0.238-0.022l-1.999,0.858c-0.09,0.038-0.149,0.126-0.151,0.225l-0.14,6.907l0.11,0.212L82.199,92.507z M82.487,85.536l1.494-0.642  l-0.129,6.357l-1.494,0.643L82.487,85.536z M86.181,90.577l0.242,0.013l2.016-0.976c0.086-0.042,0.142-0.13,0.141-0.227  l-0.043-6.789l-0.113-0.207l-0.235-0.021l-2,0.857c-0.092,0.039-0.151,0.13-0.151,0.23l0.027,6.907L86.181,90.577z M88.038,82.979  l0.04,6.255l-1.517,0.733l-0.024-6.345L88.038,82.979z M75.554,97.732l-1.999,0.858c-0.09,0.038-0.149,0.126-0.151,0.225  l-0.141,6.907l0.11,0.212l0.238,0.022l1.999-0.858c0.09-0.038,0.149-0.126,0.151-0.225l0.141-6.907l-0.11-0.212L75.554,97.732z   M73.9,98.986l1.494-0.642l-0.13,6.358l-1.494,0.642L73.9,98.986z M77.742,104.039l1.999-0.858c0.09-0.038,0.149-0.126,0.151-0.225  l0.141-6.907l-0.11-0.212l-0.238-0.022l-1.999,0.858c-0.09,0.038-0.149,0.126-0.151,0.225l-0.141,6.907l0.11,0.212L77.742,104.039z   M78.031,97.068l1.494-0.642l-0.13,6.358l-1.494,0.642L78.031,97.068z M81.887,102.074l1.998-0.859  c0.09-0.039,0.149-0.126,0.151-0.225l0.142-6.906l-0.11-0.212l-0.238-0.022l-2,0.859c-0.09,0.038-0.149,0.126-0.151,0.225  l-0.14,6.906l0.11,0.212L81.887,102.074z M82.175,95.104l1.495-0.643l-0.131,6.357l-1.493,0.643L82.175,95.104z M85.868,100.146  l0.242,0.013l2.016-0.976c0.086-0.042,0.142-0.13,0.141-0.227l-0.044-6.79l-0.113-0.207l-0.235-0.021l-1.998,0.858  c-0.092,0.039-0.151,0.13-0.151,0.23l0.026,6.907L85.868,100.146z M87.725,92.547l0.041,6.255l-1.517,0.733l-0.023-6.345  L87.725,92.547z M75.554,116.364l-1.999,0.858c-0.09,0.038-0.149,0.126-0.151,0.225l-0.141,6.907l0.11,0.212l0.238,0.022  l1.999-0.857c0.09-0.038,0.149-0.126,0.151-0.225l0.141-6.908l-0.11-0.212L75.554,116.364z M73.9,117.618l1.494-0.642l-0.13,6.359  l-1.494,0.641L73.9,117.618z M77.742,122.671l1.999-0.857c0.09-0.038,0.149-0.126,0.151-0.225l0.141-6.907l-0.11-0.212l-0.238-0.022  l-1.999,0.857c-0.09,0.038-0.149,0.126-0.151,0.225l-0.141,6.907l0.11,0.212L77.742,122.671z M78.031,115.7l1.494-0.641l-0.13,6.358  l-1.494,0.641L78.031,115.7z M81.887,120.706l1.998-0.857c0.09-0.038,0.149-0.126,0.151-0.225l0.142-6.907l-0.11-0.212l-0.238-0.022  l-2,0.858c-0.09,0.038-0.149,0.126-0.151,0.225l-0.14,6.906l0.11,0.212L81.887,120.706z M82.175,113.736l1.495-0.642l-0.131,6.358  l-1.493,0.641L82.175,113.736z M85.868,118.778l0.242,0.013l2.016-0.976c0.086-0.042,0.142-0.13,0.141-0.227l-0.044-6.79  l-0.113-0.207l-0.235-0.021l-1.998,0.858c-0.092,0.039-0.151,0.13-0.151,0.23l0.026,6.907L85.868,118.778z M87.725,111.179  l0.041,6.256l-1.517,0.733l-0.023-6.345L87.725,111.179z M75.328,125.654l-1.999,0.857c-0.09,0.038-0.149,0.126-0.151,0.225  l-0.141,6.907l0.11,0.212l0.238,0.022l2-0.858c0.09-0.038,0.149-0.127,0.151-0.225l0.14-6.906l-0.11-0.212L75.328,125.654z   M73.675,126.907l1.494-0.641l-0.129,6.357l-1.495,0.642L73.675,126.907z M77.517,131.961l2-0.858  c0.09-0.038,0.149-0.126,0.151-0.225l0.141-6.907l-0.11-0.212l-0.238-0.022l-2,0.858c-0.09,0.038-0.149,0.126-0.151,0.225  l-0.141,6.907l0.11,0.212L77.517,131.961z M77.806,124.99l1.495-0.642l-0.13,6.358l-1.495,0.642L77.806,124.99z M81.662,129.995  l1.999-0.858c0.09-0.038,0.149-0.127,0.151-0.225l0.14-6.907l-0.11-0.212l-0.238-0.022l-1.999,0.859  c-0.09,0.038-0.149,0.126-0.151,0.225l-0.14,6.906l0.11,0.212L81.662,129.995z M81.95,123.025l1.494-0.643l-0.129,6.358  l-1.494,0.642L81.95,123.025z M85.643,128.067l0.242,0.013l2.016-0.976c0.086-0.042,0.142-0.13,0.141-0.227l-0.043-6.79  l-0.113-0.207l-0.235-0.021l-1.999,0.858c-0.092,0.039-0.151,0.13-0.151,0.23l0.026,6.907L85.643,128.067z M87.5,120.468l0.04,6.256  l-1.517,0.733L86,121.112L87.5,120.468z M75.328,134.943l-1.999,0.858c-0.09,0.038-0.149,0.126-0.151,0.225l-0.141,6.907l0.11,0.212  l0.238,0.022l2-0.859c0.09-0.038,0.149-0.127,0.151-0.225l0.14-6.906l-0.11-0.212L75.328,134.943z M73.675,136.197l1.494-0.642  l-0.129,6.357l-1.495,0.643L73.675,136.197z M77.517,141.249l2-0.857c0.09-0.038,0.149-0.126,0.151-0.225l0.141-6.907l-0.11-0.212  l-0.238-0.022l-2,0.858c-0.09,0.038-0.149,0.126-0.151,0.225l-0.141,6.906l0.11,0.212L77.517,141.249z M77.806,134.279l1.495-0.642  l-0.13,6.358l-1.495,0.641L77.806,134.279z M81.662,139.284l1.999-0.857c0.09-0.038,0.149-0.127,0.151-0.225l0.14-6.907l-0.11-0.212  l-0.238-0.022l-1.999,0.857c-0.09,0.038-0.149,0.126-0.151,0.225l-0.14,6.907l0.11,0.212L81.662,139.284z M81.95,132.313  l1.494-0.641l-0.129,6.358l-1.494,0.641L81.95,132.313z M85.643,137.355l0.241,0.013l2.016-0.975  c0.087-0.042,0.143-0.13,0.142-0.227l-0.043-6.79l-0.113-0.207l-0.235-0.021l-1.999,0.858c-0.092,0.039-0.151,0.13-0.151,0.23  l0.026,6.906L85.643,137.355z M87.5,129.757l0.04,6.256l-1.517,0.733L86,130.401L87.5,129.757z M75.328,144.231l-1.999,0.859  c-0.09,0.038-0.149,0.126-0.151,0.225l-0.141,6.906l0.11,0.212l0.238,0.022l2-0.858c0.09-0.038,0.149-0.127,0.151-0.225l0.14-6.907  l-0.11-0.212L75.328,144.231z M73.675,145.486l1.494-0.643l-0.129,6.358l-1.495,0.642L73.675,145.486z M77.517,150.538l2-0.857  c0.09-0.038,0.149-0.126,0.151-0.225l0.141-6.908l-0.11-0.212l-0.238-0.022l-2,0.859c-0.09,0.038-0.149,0.126-0.151,0.225  l-0.141,6.906l0.11,0.212L77.517,150.538z M77.806,143.568l1.495-0.643l-0.13,6.359l-1.495,0.641L77.806,143.568z M81.662,148.574  l1.999-0.858c0.09-0.038,0.149-0.127,0.151-0.225l0.14-6.906l-0.11-0.212l-0.238-0.022l-1.999,0.858  c-0.09,0.038-0.149,0.126-0.151,0.225l-0.14,6.906l0.11,0.212L81.662,148.574z M81.95,141.604l1.494-0.642l-0.129,6.357  l-1.494,0.642L81.95,141.604z M85.643,146.645l0.242,0.013l2.016-0.976c0.086-0.042,0.142-0.13,0.141-0.227l-0.043-6.789  l-0.113-0.207l-0.235-0.021l-1.999,0.858c-0.092,0.039-0.151,0.13-0.151,0.23l0.026,6.906L85.643,146.645z M87.5,139.046l0.04,6.255  l-1.517,0.733L86,139.69L87.5,139.046z M75.246,153.521l-1.999,0.858c-0.09,0.038-0.149,0.126-0.151,0.225l-0.14,6.907l0.11,0.212  l0.238,0.022l1.999-0.857c0.09-0.038,0.149-0.127,0.151-0.225l0.14-6.908l-0.11-0.212L75.246,153.521z M73.593,154.774l1.494-0.642  l-0.129,6.359l-1.494,0.641L73.593,154.774z M77.435,159.827l2-0.857c0.09-0.038,0.149-0.126,0.151-0.225l0.141-6.907l-0.11-0.212  l-0.238-0.022l-1.999,0.857c-0.09,0.038-0.149,0.126-0.151,0.225l-0.142,6.907l0.11,0.212L77.435,159.827z M77.725,152.856  l1.494-0.641l-0.13,6.358l-1.495,0.641L77.725,152.856z M81.58,157.863l1.999-0.858c0.09-0.038,0.149-0.127,0.151-0.225l0.14-6.907  l-0.11-0.212l-0.238-0.022l-1.999,0.858c-0.09,0.038-0.149,0.126-0.151,0.225l-0.14,6.907l0.11,0.212L81.58,157.863z   M81.868,150.893l1.494-0.642l-0.129,6.358l-1.494,0.642L81.868,150.893z M85.561,155.935l0.241,0.013l2.017-0.976  c0.087-0.042,0.143-0.13,0.142-0.227l-0.045-6.79l-0.113-0.207l-0.235-0.021l-1.998,0.859c-0.093,0.039-0.151,0.13-0.151,0.23  l0.026,6.906L85.561,155.935z M87.418,148.336l0.041,6.256l-1.518,0.732l-0.023-6.344L87.418,148.336z M75.097,162.811l-1.999,0.858  c-0.09,0.038-0.149,0.126-0.151,0.225l-0.14,6.906l0.11,0.212l0.238,0.022l1.998-0.857c0.09-0.038,0.149-0.126,0.151-0.225  l0.141-6.907l-0.11-0.212L75.097,162.811z M73.443,164.064l1.494-0.642l-0.13,6.358l-1.493,0.641L73.443,164.064z M77.285,169.117  l1.999-0.858c0.09-0.038,0.149-0.127,0.151-0.225l0.14-6.907l-0.11-0.212l-0.238-0.022l-1.998,0.858  c-0.09,0.038-0.149,0.126-0.151,0.225l-0.141,6.907l0.11,0.212L77.285,169.117z M77.574,162.146l1.493-0.642l-0.129,6.358  l-1.494,0.642L77.574,162.146z M81.43,167.152l1.998-0.859c0.09-0.039,0.149-0.127,0.151-0.225l0.141-6.906l-0.11-0.212  l-0.238-0.022l-1.999,0.858c-0.09,0.038-0.149,0.126-0.151,0.225l-0.14,6.907l0.11,0.212L81.43,167.152z M81.718,160.182  l1.494-0.642l-0.13,6.357l-1.493,0.643L81.718,160.182z M85.411,165.224l0.242,0.013l2.016-0.976  c0.086-0.042,0.142-0.13,0.141-0.227l-0.044-6.79l-0.113-0.207l-0.235-0.021l-1.999,0.858c-0.092,0.039-0.151,0.13-0.151,0.23  l0.027,6.907L85.411,165.224z M87.268,157.624l0.041,6.256l-1.517,0.733l-0.024-6.345L87.268,157.624z M75.043,171.887l-1.999,0.859  c-0.09,0.038-0.149,0.126-0.151,0.225l-0.141,6.906l0.11,0.212l0.238,0.022l1.999-0.858c0.09-0.038,0.149-0.126,0.151-0.225  l0.141-6.907l-0.11-0.212L75.043,171.887z M73.39,173.142l1.494-0.643l-0.13,6.358l-1.494,0.642L73.39,173.142z M77.232,178.193  l1.999-0.859c0.09-0.038,0.149-0.127,0.151-0.225l0.14-6.906l-0.11-0.212l-0.238-0.022l-1.998,0.858  c-0.09,0.038-0.149,0.126-0.151,0.225l-0.141,6.907l0.11,0.212L77.232,178.193z M77.521,171.223l1.493-0.642l-0.129,6.357  l-1.494,0.643L77.521,171.223z M81.376,176.228l1.999-0.857c0.09-0.038,0.149-0.126,0.151-0.225l0.141-6.906l-0.11-0.212  l-0.238-0.022l-1.999,0.857c-0.09,0.038-0.149,0.126-0.151,0.225l-0.141,6.906l0.11,0.212L81.376,176.228z M81.665,169.258  l1.494-0.641l-0.13,6.357l-1.494,0.641L81.665,169.258z M85.357,174.3l0.242,0.013l2.016-0.976c0.086-0.042,0.142-0.13,0.141-0.227  l-0.044-6.79l-0.113-0.207l-0.235-0.021l-1.999,0.858c-0.092,0.039-0.151,0.13-0.151,0.23l0.027,6.907L85.357,174.3z M87.215,166.7  l0.04,6.256l-1.517,0.733l-0.024-6.345L87.215,166.7z M75.554,106.991l-1.999,0.859c-0.09,0.038-0.149,0.126-0.151,0.225  l-0.141,6.906l0.11,0.212l0.238,0.022l1.999-0.858c0.09-0.038,0.149-0.127,0.151-0.225l0.141-6.907l-0.11-0.212L75.554,106.991z   M73.9,108.246l1.494-0.643l-0.13,6.358l-1.494,0.642L73.9,108.246z M77.742,113.298l1.999-0.858  c0.09-0.038,0.149-0.127,0.151-0.225l0.141-6.906l-0.11-0.212l-0.238-0.022l-1.999,0.857c-0.09,0.038-0.149,0.126-0.151,0.225  l-0.141,6.907l0.11,0.212L77.742,113.298z M78.031,106.327l1.494-0.641l-0.13,6.357l-1.494,0.642L78.031,106.327z M81.887,111.333  l1.998-0.857c0.09-0.038,0.149-0.126,0.151-0.225l0.142-6.907l-0.11-0.212l-0.238-0.022l-2,0.857  c-0.09,0.038-0.149,0.126-0.151,0.225l-0.14,6.907l0.11,0.212L81.887,111.333z M82.175,104.362l1.495-0.641l-0.131,6.358  l-1.493,0.641L82.175,104.362z M85.868,109.404l0.242,0.013l2.016-0.976c0.086-0.042,0.142-0.13,0.141-0.227l-0.044-6.79  l-0.113-0.207l-0.235-0.021l-1.998,0.858c-0.092,0.039-0.151,0.13-0.151,0.23l0.026,6.907L85.868,109.404z M87.725,101.805  l0.041,6.256l-1.517,0.733l-0.023-6.345L87.725,101.805z M36.352,60.027l-1.999,0.858c-0.09,0.039-0.149,0.127-0.151,0.225  l-0.141,6.906l0.11,0.212l0.238,0.022l1.999-0.858c0.09-0.039,0.149-0.126,0.151-0.225l0.141-6.906l-0.11-0.212L36.352,60.027z   M34.698,61.281l1.495-0.641l-0.129,6.357l-1.495,0.642L34.698,61.281z M40.482,58.109l-1.999,0.858  c-0.09,0.039-0.149,0.127-0.151,0.225l-0.141,6.906l0.11,0.212l0.238,0.022l2-0.858c0.09-0.039,0.149-0.126,0.151-0.225l0.14-6.906  l-0.11-0.212L40.482,58.109z M38.829,59.363l1.495-0.641l-0.129,6.357l-1.496,0.642L38.829,59.363z M44.626,56.145l-1.999,0.858  c-0.09,0.039-0.149,0.127-0.151,0.225l-0.141,6.906l0.11,0.212l0.238,0.022l2-0.858c0.09-0.039,0.149-0.126,0.151-0.225l0.14-6.906  l-0.11-0.212L44.626,56.145z M42.973,57.399l1.495-0.642l-0.129,6.357l-1.495,0.642L42.973,57.399z M48.907,54.254l-0.235-0.021  l-1.999,0.858c-0.092,0.04-0.152,0.13-0.151,0.231l0.027,6.906l0.118,0.211l0.241,0.013l2.016-0.976  c0.087-0.042,0.142-0.13,0.141-0.227l-0.044-6.789L48.907,54.254z M47.022,55.486l1.501-0.644l0.041,6.254l-1.517,0.734  L47.022,55.486z M36.352,69.315l-1.999,0.859c-0.09,0.039-0.149,0.126-0.151,0.225l-0.141,6.906l0.11,0.212l0.238,0.022l1.999-0.858  c0.09-0.038,0.149-0.127,0.151-0.225L36.7,69.55l-0.11-0.212L36.352,69.315z M34.698,70.57l1.495-0.643l-0.129,6.358l-1.495,0.642  L34.698,70.57z M40.482,67.398l-1.999,0.859c-0.09,0.039-0.149,0.126-0.151,0.225l-0.141,6.906l0.11,0.212l0.238,0.022l2-0.857  c0.09-0.039,0.149-0.127,0.151-0.225l0.14-6.907l-0.11-0.212L40.482,67.398z M38.829,68.652l1.495-0.642l-0.129,6.358l-1.496,0.642  L38.829,68.652z M44.626,65.433l-1.999,0.858c-0.09,0.039-0.149,0.127-0.151,0.225l-0.141,6.907l0.11,0.212l0.238,0.022l2-0.858  c0.09-0.039,0.149-0.126,0.151-0.225l0.14-6.907l-0.11-0.212L44.626,65.433z M42.973,66.687l1.495-0.641l-0.129,6.358l-1.495,0.642  L42.973,66.687z M48.907,63.542l-0.235-0.021l-1.999,0.858c-0.092,0.04-0.152,0.13-0.151,0.231l0.027,6.907l0.118,0.211l0.241,0.013  l2.016-0.975c0.087-0.042,0.142-0.13,0.141-0.227l-0.044-6.79L48.907,63.542z M47.022,64.774l1.501-0.644l0.041,6.255l-1.517,0.733  L47.022,64.774z M36.352,78.604l-1.999,0.859c-0.09,0.038-0.149,0.126-0.151,0.225l-0.141,6.906l0.11,0.212l0.238,0.022l1.999-0.857  c0.09-0.038,0.149-0.126,0.151-0.225l0.141-6.908l-0.11-0.212L36.352,78.604z M34.698,79.859l1.495-0.643l-0.129,6.359l-1.495,0.641  L34.698,79.859z M40.482,76.688l-1.999,0.857c-0.09,0.038-0.149,0.126-0.151,0.225l-0.141,6.907l0.11,0.212l0.238,0.022l2-0.857  c0.09-0.038,0.149-0.126,0.151-0.225l0.14-6.907l-0.11-0.212L40.482,76.688z M38.829,77.94l1.495-0.641l-0.129,6.358l-1.496,0.641  L38.829,77.94z M44.626,74.723l-1.999,0.858c-0.09,0.039-0.149,0.126-0.151,0.225l-0.141,6.907l0.11,0.212l0.238,0.022l2-0.859  c0.09-0.038,0.149-0.127,0.151-0.225l0.14-6.906l-0.11-0.212L44.626,74.723z M42.973,75.977l1.495-0.642l-0.129,6.357l-1.495,0.643  L42.973,75.977z M48.907,72.832l-0.235-0.021l-1.999,0.858c-0.092,0.04-0.152,0.131-0.151,0.231l0.027,6.908l0.118,0.211  l0.241,0.013l2.016-0.976c0.087-0.042,0.142-0.13,0.141-0.227l-0.044-6.79L48.907,72.832z M47.022,74.063l1.501-0.644l0.041,6.255  l-1.517,0.733L47.022,74.063z M36.352,87.895l-1.999,0.857c-0.09,0.038-0.149,0.126-0.151,0.225l-0.141,6.906l0.11,0.212  l0.238,0.022l1.999-0.856c0.09-0.038,0.149-0.126,0.151-0.225l0.141-6.907l-0.11-0.212L36.352,87.895z M34.698,89.147l1.495-0.641  l-0.129,6.358l-1.495,0.64L34.698,89.147z M40.482,85.977l-1.999,0.858c-0.09,0.038-0.149,0.126-0.151,0.225l-0.141,6.907  l0.11,0.212l0.238,0.022l2-0.859c0.09-0.038,0.149-0.127,0.151-0.225l0.14-6.906l-0.11-0.212L40.482,85.977z M38.829,87.23  l1.495-0.642l-0.129,6.357l-1.496,0.643L38.829,87.23z M44.626,84.012l-1.999,0.858c-0.09,0.038-0.149,0.126-0.151,0.225  l-0.141,6.906l0.11,0.212l0.238,0.022l2-0.858c0.09-0.038,0.149-0.127,0.151-0.225l0.14-6.906l-0.11-0.212L44.626,84.012z   M42.973,85.266l1.495-0.642l-0.129,6.357l-1.495,0.642L42.973,85.266z M48.907,82.121l-0.235-0.021l-1.999,0.858  c-0.092,0.039-0.152,0.13-0.151,0.23l0.027,6.907l0.118,0.211l0.241,0.013l2.016-0.976c0.087-0.042,0.142-0.13,0.141-0.227  l-0.044-6.79L48.907,82.121z M47.022,83.353l1.501-0.645l0.041,6.256l-1.517,0.733L47.022,83.353z M36.352,97.183l-1.999,0.859  c-0.09,0.038-0.149,0.126-0.151,0.225l-0.141,6.906l0.11,0.212l0.238,0.022l1.999-0.858c0.09-0.038,0.149-0.127,0.151-0.225  l0.141-6.907l-0.11-0.212L36.352,97.183z M34.698,98.438l1.495-0.643l-0.129,6.358l-1.495,0.642L34.698,98.438z M40.482,95.266  l-1.999,0.857c-0.09,0.038-0.149,0.126-0.151,0.225l-0.141,6.908l0.11,0.212l0.238,0.022l2-0.859  c0.09-0.038,0.149-0.127,0.151-0.225l0.14-6.906l-0.11-0.212L40.482,95.266z M38.829,96.519l1.495-0.641l-0.129,6.357l-1.496,0.643  L38.829,96.519z M44.626,93.302l-1.999,0.857c-0.09,0.038-0.149,0.126-0.151,0.225l-0.141,6.906l0.11,0.212l0.238,0.022l2-0.857  c0.09-0.038,0.149-0.126,0.151-0.225l0.14-6.906l-0.11-0.212L44.626,93.302z M42.973,94.555l1.495-0.641l-0.129,6.357l-1.495,0.641  L42.973,94.555z M48.907,91.41l-0.235-0.021l-1.999,0.858c-0.092,0.039-0.152,0.13-0.151,0.23l0.027,6.906l0.118,0.211l0.241,0.013  l2.016-0.976c0.087-0.042,0.142-0.13,0.141-0.227l-0.044-6.789L48.907,91.41z M47.022,92.642l1.501-0.645l0.041,6.255l-1.517,0.733  L47.022,92.642z M36.139,106.527l-1.999,0.857c-0.09,0.038-0.149,0.126-0.151,0.225l-0.14,6.907l0.11,0.212l0.238,0.022l1.999-0.858  c0.09-0.038,0.149-0.127,0.151-0.225l0.141-6.906l-0.11-0.212L36.139,106.527z M34.485,107.78l1.495-0.641l-0.129,6.357  l-1.494,0.642L34.485,107.78z M40.27,104.609l-1.999,0.858c-0.09,0.038-0.149,0.126-0.151,0.225l-0.141,6.906l0.11,0.212  l0.238,0.022l2-0.857c0.09-0.038,0.149-0.126,0.151-0.225l0.14-6.907l-0.11-0.212L40.27,104.609z M38.617,105.863l1.494-0.642  l-0.129,6.358l-1.495,0.641L38.617,105.863z M44.415,102.644l-1.999,0.859c-0.09,0.038-0.149,0.126-0.151,0.225l-0.141,6.906  l0.11,0.212l0.238,0.022l1.999-0.858c0.09-0.038,0.149-0.126,0.151-0.225l0.141-6.907l-0.11-0.212L44.415,102.644z M42.761,103.898  l1.495-0.643l-0.13,6.358l-1.494,0.642L42.761,103.898z M48.695,100.754l-0.235-0.021l-1.999,0.858  c-0.092,0.039-0.152,0.13-0.151,0.23l0.027,6.907l0.118,0.211l0.241,0.013l2.016-0.976c0.087-0.042,0.142-0.13,0.141-0.227  l-0.044-6.79L48.695,100.754z M46.81,101.985l1.5-0.645l0.041,6.256l-1.516,0.733L46.81,101.985z M35.826,116.095l-1.999,0.858  c-0.09,0.038-0.149,0.126-0.151,0.225l-0.14,6.907l0.11,0.212l0.238,0.022l1.999-0.858c0.09-0.038,0.149-0.127,0.151-0.225  l0.14-6.907l-0.11-0.212L35.826,116.095z M34.173,117.349l1.494-0.642l-0.129,6.358l-1.494,0.642L34.173,117.349z M39.957,114.177  l-1.999,0.858c-0.09,0.038-0.149,0.126-0.151,0.225l-0.141,6.907l0.11,0.212l0.238,0.022l1.999-0.858  c0.09-0.038,0.149-0.127,0.151-0.225l0.14-6.907l-0.11-0.212L39.957,114.177z M38.304,115.431l1.494-0.642l-0.129,6.358  l-1.495,0.642L38.304,115.431z M44.102,112.213l-1.999,0.857c-0.09,0.038-0.149,0.126-0.151,0.225l-0.14,6.906l0.11,0.212  l0.238,0.022l1.999-0.857c0.09-0.038,0.149-0.127,0.151-0.225l0.141-6.906l-0.11-0.212L44.102,112.213z M42.448,113.466l1.495-0.641  l-0.129,6.357l-1.494,0.641L42.448,113.466z M48.382,110.321l-0.235-0.021l-1.999,0.858c-0.092,0.039-0.152,0.13-0.151,0.23  l0.027,6.907l0.118,0.211l0.241,0.013l2.016-0.976c0.087-0.042,0.142-0.13,0.141-0.227l-0.044-6.79L48.382,110.321z M46.498,111.553  l1.5-0.645l0.041,6.256l-1.516,0.733L46.498,111.553z M35.826,134.727l-1.999,0.858c-0.09,0.038-0.149,0.126-0.151,0.225  l-0.14,6.906l0.11,0.212l0.238,0.022l1.999-0.857c0.09-0.038,0.149-0.126,0.151-0.225l0.14-6.907l-0.11-0.212L35.826,134.727z   M34.173,135.98l1.494-0.642l-0.129,6.358l-1.494,0.641L34.173,135.98z M39.957,132.809l-1.999,0.858  c-0.09,0.038-0.149,0.126-0.151,0.225l-0.141,6.907l0.11,0.212l0.238,0.022l1.999-0.858c0.09-0.038,0.149-0.126,0.151-0.225  l0.14-6.907l-0.11-0.212L39.957,132.809z M38.304,134.062l1.494-0.642l-0.129,6.358l-1.495,0.642L38.304,134.062z M44.102,130.844  l-1.999,0.859c-0.09,0.038-0.149,0.126-0.151,0.225l-0.14,6.906l0.11,0.212l0.238,0.022l1.999-0.858  c0.09-0.038,0.149-0.126,0.151-0.225l0.141-6.907l-0.11-0.212L44.102,130.844z M42.448,132.099l1.495-0.643l-0.129,6.358  l-1.494,0.642L42.448,132.099z M48.382,128.953l-0.235-0.021l-1.999,0.858c-0.092,0.039-0.152,0.13-0.151,0.23l0.027,6.907  l0.118,0.211l0.241,0.013l2.016-0.976c0.087-0.042,0.142-0.13,0.141-0.227l-0.044-6.79L48.382,128.953z M46.498,130.185l1.5-0.645  l0.041,6.256l-1.516,0.733L46.498,130.185z M35.602,144.016l-1.999,0.859c-0.09,0.038-0.149,0.126-0.151,0.225l-0.14,6.906  l0.11,0.212l0.238,0.022l1.999-0.858c0.09-0.038,0.149-0.126,0.151-0.225l0.141-6.907l-0.11-0.212L35.602,144.016z M33.948,145.271  l1.495-0.643l-0.129,6.358l-1.494,0.642L33.948,145.271z M39.732,142.098l-1.999,0.858c-0.09,0.038-0.149,0.126-0.151,0.225  l-0.141,6.907l0.11,0.212l0.238,0.022l2-0.858c0.09-0.038,0.149-0.126,0.151-0.225l0.14-6.907l-0.11-0.212L39.732,142.098z   M38.079,143.352l1.495-0.642l-0.129,6.358l-1.495,0.642L38.079,143.352z M43.877,140.134l-1.999,0.857  c-0.09,0.038-0.149,0.126-0.151,0.225l-0.141,6.906l0.11,0.212l0.238,0.022l1.999-0.856c0.09-0.038,0.149-0.126,0.151-0.225  l0.141-6.907l-0.11-0.212L43.877,140.134z M42.223,141.387l1.495-0.641l-0.13,6.358l-1.494,0.64L42.223,141.387z M48.157,138.242  l-0.235-0.021l-1.999,0.858c-0.092,0.039-0.152,0.13-0.151,0.23l0.027,6.907l0.118,0.211l0.241,0.013l2.016-0.976  c0.087-0.042,0.142-0.13,0.141-0.227l-0.044-6.79L48.157,138.242z M46.272,139.474l1.5-0.645l0.041,6.256l-1.516,0.733  L46.272,139.474z M35.602,153.305l-1.999,0.858c-0.09,0.038-0.149,0.126-0.151,0.225l-0.14,6.907l0.11,0.212l0.238,0.022  l1.999-0.859c0.09-0.039,0.149-0.127,0.151-0.225l0.141-6.906l-0.11-0.212L35.602,153.305z M33.948,154.559l1.495-0.642  l-0.129,6.357l-1.494,0.643L33.948,154.559z M39.732,151.388l-1.999,0.857c-0.09,0.038-0.149,0.126-0.151,0.225l-0.141,6.907  l0.11,0.212l0.238,0.022l2-0.857c0.09-0.038,0.149-0.127,0.151-0.225l0.14-6.907l-0.11-0.212L39.732,151.388z M38.079,152.641  L39.573,152l-0.129,6.358l-1.495,0.641L38.079,152.641z M43.877,149.423l-1.999,0.858c-0.09,0.038-0.149,0.126-0.151,0.225  l-0.141,6.906l0.11,0.212l0.238,0.022l1.999-0.858c0.09-0.038,0.149-0.126,0.151-0.225l0.141-6.906l-0.11-0.212L43.877,149.423z   M42.223,150.677l1.495-0.642l-0.13,6.357l-1.494,0.642L42.223,150.677z M48.157,147.532l-0.235-0.021l-1.999,0.857  c-0.092,0.039-0.152,0.13-0.151,0.23l0.027,6.907l0.118,0.211l0.241,0.013l2.016-0.976c0.087-0.042,0.142-0.13,0.141-0.227  l-0.044-6.789L48.157,147.532z M46.272,148.763l1.5-0.644l0.041,6.255l-1.516,0.733L46.272,148.763z M35.602,162.595l-1.999,0.857  c-0.09,0.038-0.149,0.126-0.151,0.225l-0.14,6.907l0.11,0.212l0.238,0.022l1.999-0.857c0.09-0.038,0.149-0.127,0.151-0.225  l0.141-6.907l-0.11-0.212L35.602,162.595z M33.948,163.848l1.495-0.641l-0.129,6.358l-1.494,0.641L33.948,163.848z M39.732,160.677  l-1.999,0.857c-0.09,0.038-0.149,0.126-0.151,0.225l-0.141,6.907l0.11,0.212l0.238,0.022l2-0.857  c0.09-0.038,0.149-0.127,0.151-0.225l0.14-6.907l-0.11-0.212L39.732,160.677z M38.079,161.93l1.495-0.641l-0.129,6.358l-1.495,0.641  L38.079,161.93z M43.877,158.712l-1.999,0.858c-0.09,0.038-0.149,0.126-0.151,0.225l-0.141,6.907l0.11,0.212l0.238,0.022  l1.999-0.859c0.09-0.038,0.149-0.126,0.151-0.225l0.141-6.906l-0.11-0.212L43.877,158.712z M42.223,159.966l1.495-0.642l-0.13,6.357  l-1.494,0.643L42.223,159.966z M48.157,156.821l-0.235-0.021l-1.999,0.858c-0.092,0.039-0.152,0.13-0.151,0.23l0.027,6.907  l0.118,0.211l0.241,0.013l2.016-0.976c0.087-0.042,0.142-0.13,0.141-0.227l-0.044-6.79L48.157,156.821z M46.272,158.053l1.5-0.645  l0.041,6.256l-1.516,0.733L46.272,158.053z M35.52,171.884l-1.999,0.857c-0.09,0.038-0.149,0.126-0.151,0.225l-0.141,6.906  l0.11,0.212l0.238,0.022l1.999-0.857c0.09-0.038,0.149-0.126,0.151-0.225l0.141-6.906l-0.11-0.212L35.52,171.884z M33.866,173.137  l1.495-0.641l-0.129,6.357l-1.495,0.641L33.866,173.137z M39.65,169.965l-1.999,0.859c-0.09,0.038-0.149,0.126-0.151,0.225  l-0.14,6.906l0.11,0.212l0.238,0.022l1.999-0.858c0.09-0.038,0.149-0.126,0.151-0.225l0.14-6.907l-0.11-0.212L39.65,169.965z   M37.997,171.22l1.495-0.643l-0.129,6.358l-1.495,0.642L37.997,171.22z M43.794,168.001l-1.999,0.858  c-0.09,0.038-0.149,0.126-0.151,0.225l-0.14,6.906l0.11,0.212l0.238,0.022l1.999-0.858c0.09-0.038,0.149-0.126,0.151-0.225  l0.141-6.906l-0.11-0.212L43.794,168.001z M42.141,169.255l1.495-0.642l-0.129,6.357l-1.494,0.642L42.141,169.255z M48.076,166.109  l-0.235-0.021l-2,0.859c-0.092,0.039-0.152,0.13-0.151,0.23l0.027,6.906l0.118,0.211l0.241,0.013l2.016-0.976  c0.087-0.042,0.142-0.13,0.141-0.227l-0.044-6.79L48.076,166.109z M46.19,167.342l1.501-0.645l0.041,6.255l-1.517,0.733  L46.19,167.342z M35.37,181.173l-1.999,0.858c-0.09,0.038-0.149,0.126-0.151,0.225l-0.141,6.906l0.11,0.212l0.238,0.022l1.999-0.857  c0.09-0.038,0.149-0.127,0.151-0.225l0.141-6.907l-0.11-0.212L35.37,181.173z M33.716,182.427l1.494-0.642l-0.129,6.358  l-1.494,0.641L33.716,182.427z M39.5,179.255l-1.999,0.858c-0.09,0.038-0.149,0.126-0.151,0.225l-0.14,6.907l0.11,0.212l0.238,0.022  l1.999-0.859c0.09-0.038,0.149-0.126,0.151-0.225l0.14-6.906l-0.11-0.212L39.5,179.255z M37.847,180.509l1.495-0.642l-0.129,6.357  l-1.495,0.643L37.847,180.509z M43.645,177.291l-1.999,0.856c-0.09,0.038-0.149,0.126-0.151,0.225l-0.14,6.907l0.11,0.212  l0.238,0.022l1.999-0.857c0.09-0.038,0.149-0.127,0.151-0.225l0.14-6.906l-0.11-0.212L43.645,177.291z M41.991,178.543l1.494-0.64  l-0.129,6.357l-1.494,0.641L41.991,178.543z M47.925,175.399l-0.235-0.021l-1.999,0.858c-0.092,0.039-0.152,0.13-0.151,0.23  l0.027,6.907l0.118,0.211l0.241,0.013l2.016-0.977c0.087-0.042,0.142-0.13,0.141-0.227l-0.044-6.789L47.925,175.399z   M46.041,176.631l1.5-0.645l0.041,6.255l-1.517,0.734L46.041,176.631z M35.316,190.248l-1.999,0.859  c-0.09,0.038-0.149,0.126-0.151,0.225l-0.14,6.906l0.11,0.212l0.238,0.022l1.999-0.857c0.09-0.038,0.149-0.127,0.151-0.225  l0.141-6.908l-0.11-0.212L35.316,190.248z M33.662,191.503l1.495-0.643l-0.129,6.359l-1.494,0.641L33.662,191.503z M39.447,188.331  l-1.999,0.858c-0.09,0.038-0.149,0.126-0.151,0.225l-0.14,6.907l0.11,0.212l0.238,0.022l1.999-0.859  c0.09-0.038,0.149-0.126,0.151-0.225l0.14-6.906l-0.11-0.212L39.447,188.331z M37.793,189.585l1.495-0.642l-0.129,6.357  l-1.495,0.643L37.793,189.585z M43.591,186.366l-1.999,0.857c-0.09,0.038-0.149,0.126-0.151,0.225l-0.141,6.908l0.11,0.212  l0.238,0.022l1.999-0.858c0.09-0.038,0.149-0.127,0.151-0.225l0.141-6.907l-0.11-0.212L43.591,186.366z M41.938,187.619l1.495-0.641  l-0.129,6.358l-1.495,0.642L41.938,187.619z M47.872,184.477l-0.235-0.021l-1.999,0.857c-0.092,0.039-0.152,0.13-0.151,0.23  l0.027,6.906l0.118,0.211l0.241,0.013l2.016-0.976c0.087-0.042,0.142-0.13,0.141-0.227l-0.044-6.788L47.872,184.477z   M45.987,185.707l1.5-0.644l0.041,6.254l-1.516,0.733L45.987,185.707z M35.826,125.354l-1.999,0.858  c-0.09,0.038-0.149,0.126-0.151,0.225l-0.14,6.907l0.11,0.212l0.238,0.022l1.999-0.859c0.09-0.039,0.149-0.127,0.151-0.225  l0.14-6.906l-0.11-0.212L35.826,125.354z M34.173,126.607l1.494-0.642l-0.129,6.357l-1.494,0.643L34.173,126.607z M39.957,123.437  l-1.999,0.857c-0.09,0.038-0.149,0.126-0.151,0.225l-0.141,6.906l0.11,0.212l0.238,0.022l1.999-0.857  c0.09-0.038,0.149-0.126,0.151-0.225l0.14-6.906l-0.11-0.212L39.957,123.437z M38.304,124.689l1.494-0.641l-0.129,6.357  l-1.495,0.641L38.304,124.689z M44.102,121.472l-1.999,0.858c-0.09,0.038-0.149,0.126-0.151,0.225l-0.14,6.906l0.11,0.212  l0.238,0.022l1.999-0.858c0.09-0.038,0.149-0.126,0.151-0.225l0.141-6.906l-0.11-0.212L44.102,121.472z M42.448,122.726l1.495-0.642  l-0.129,6.357l-1.494,0.642L42.448,122.726z M48.382,119.58l-0.235-0.021l-1.999,0.858c-0.092,0.039-0.152,0.13-0.151,0.23  l0.027,6.906l0.118,0.211l0.241,0.014l2.016-0.975c0.087-0.041,0.142-0.13,0.141-0.227l-0.044-6.791L48.382,119.58z M46.498,120.812  l1.5-0.645l0.041,6.256l-1.516,0.733L46.498,120.812z M27.126,60.885l-1.999-0.857l-0.238,0.022l-0.11,0.212l0.14,6.906  c0.002,0.098,0.062,0.186,0.151,0.225l1.999,0.858l0.238-0.022l0.11-0.212l-0.141-6.906C27.276,61.012,27.216,60.924,27.126,60.885z   M25.416,66.997l-0.129-6.357l1.494,0.641l0.129,6.357L25.416,66.997z M23.274,58.967l-2-0.858l-0.238,0.022l-0.11,0.212  l0.141,6.906c0.002,0.098,0.062,0.186,0.151,0.225l1.999,0.858l0.238-0.022l0.11-0.212l-0.14-6.906  C23.423,59.094,23.364,59.006,23.274,58.967z M21.563,65.079l-0.129-6.357l1.495,0.641l0.129,6.357L21.563,65.079z M19.129,57.003  l-1.999-0.858l-0.238,0.022l-0.11,0.212l0.14,6.906c0.002,0.098,0.061,0.186,0.151,0.225l1.999,0.858l0.238-0.022l0.11-0.212  l-0.14-6.906C19.279,57.13,19.219,57.042,19.129,57.003z M17.419,63.114l-0.129-6.357l1.494,0.642l0.129,6.357L17.419,63.114z   M15.083,55.092l-1.999-0.858l-0.235,0.021l-0.113,0.208l-0.044,6.789c0,0.096,0.054,0.185,0.141,0.227l2.016,0.976l0.241-0.013  l0.118-0.211l0.027-6.906C15.235,55.222,15.176,55.131,15.083,55.092z M14.709,61.83l-1.516-0.734l0.041-6.254l1.5,0.644  L14.709,61.83z M27.126,70.175l-1.999-0.859l-0.238,0.022l-0.11,0.212l0.14,6.907c0.002,0.099,0.062,0.187,0.151,0.225l1.999,0.858  l0.238-0.022l0.11-0.212l-0.141-6.906C27.276,70.301,27.217,70.213,27.126,70.175z M25.416,76.286l-0.129-6.358l1.494,0.643  l0.129,6.357L25.416,76.286z M23.274,68.257l-2-0.859l-0.238,0.022l-0.11,0.212l0.141,6.907c0.002,0.098,0.062,0.186,0.151,0.225  l1.999,0.857l0.238-0.022l0.11-0.212l-0.14-6.906C23.423,68.383,23.364,68.295,23.274,68.257z M21.563,74.368l-0.129-6.358  l1.495,0.642l0.129,6.357L21.563,74.368z M19.129,66.291l-1.999-0.857l-0.238,0.022l-0.11,0.212l0.14,6.907  c0.002,0.098,0.062,0.186,0.151,0.225l1.999,0.858l0.238-0.022l0.11-0.212l-0.14-6.907C19.279,66.418,19.219,66.33,19.129,66.291z   M17.419,72.404l-0.129-6.358l1.494,0.641l0.129,6.358L17.419,72.404z M15.083,64.38l-1.999-0.858l-0.235,0.021l-0.113,0.208  l-0.044,6.79c0,0.096,0.054,0.185,0.141,0.227l2.016,0.975l0.241-0.013l0.118-0.211l0.027-6.907  C15.235,64.51,15.176,64.419,15.083,64.38z M14.709,71.119l-1.516-0.733l0.041-6.255l1.5,0.644L14.709,71.119z M26.793,79.464  l-1.999-0.859l-0.238,0.022l-0.11,0.212l0.14,6.908c0.002,0.099,0.062,0.187,0.151,0.225l1.999,0.857l0.238-0.022l0.11-0.212  l-0.141-6.906C26.943,79.59,26.884,79.502,26.793,79.464z M25.083,85.576l-0.129-6.359l1.494,0.643l0.129,6.357L25.083,85.576z   M22.941,77.545l-1.999-0.857l-0.238,0.022l-0.11,0.212l0.14,6.907c0.002,0.099,0.062,0.187,0.151,0.225l1.999,0.857l0.238-0.022  l0.11-0.212l-0.14-6.907C23.09,77.671,23.031,77.583,22.941,77.545z M21.23,83.658L21.102,77.3l1.494,0.641l0.129,6.358  L21.23,83.658z M18.796,75.581l-1.999-0.858l-0.238,0.022l-0.11,0.212l0.141,6.906c0.002,0.099,0.061,0.186,0.151,0.225l1.999,0.859  l0.238-0.022l0.11-0.212l-0.141-6.907C18.946,75.707,18.886,75.62,18.796,75.581z M17.086,81.692l-0.129-6.357l1.494,0.642  l0.129,6.358L17.086,81.692z M14.751,73.669l-1.999-0.858l-0.235,0.021l-0.113,0.208l-0.044,6.79c0,0.097,0.054,0.185,0.141,0.227  l2.015,0.976l0.241-0.013l0.118-0.211l0.028-6.908C14.903,73.8,14.844,73.708,14.751,73.669z M14.376,80.408l-1.516-0.733  l0.041-6.255l1.501,0.644L14.376,80.408z M26.793,88.752l-1.999-0.857l-0.238,0.022l-0.11,0.212l0.14,6.907  c0.002,0.099,0.062,0.187,0.151,0.225l1.999,0.856l0.238-0.022l0.11-0.212l-0.141-6.906C26.943,88.878,26.883,88.79,26.793,88.752z   M25.083,94.865l-0.129-6.358l1.494,0.641l0.129,6.357L25.083,94.865z M22.941,86.835l-1.999-0.858l-0.238,0.022l-0.11,0.212  l0.14,6.906c0.002,0.099,0.061,0.186,0.151,0.225l1.999,0.859l0.238-0.022l0.11-0.212l-0.14-6.907  C23.09,86.961,23.031,86.873,22.941,86.835z M21.23,92.946l-0.129-6.357l1.494,0.642l0.129,6.358L21.23,92.946z M18.796,84.87  l-1.999-0.858l-0.238,0.022l-0.11,0.212l0.141,6.906c0.002,0.099,0.062,0.187,0.151,0.225l1.999,0.858l0.238-0.022l0.11-0.212  l-0.141-6.906C18.946,84.996,18.886,84.908,18.796,84.87z M17.086,90.981l-0.129-6.357l1.494,0.642l0.129,6.357L17.086,90.981z   M14.751,82.959l-1.999-0.858l-0.235,0.021l-0.113,0.207l-0.044,6.79c0,0.097,0.054,0.185,0.141,0.227l2.015,0.976l0.241-0.013  l0.118-0.211l0.028-6.907C14.903,83.089,14.844,82.998,14.751,82.959z M14.376,89.697l-1.516-0.733l0.041-6.256l1.501,0.645  L14.376,89.697z M26.793,98.042l-1.999-0.859l-0.238,0.022l-0.11,0.212l0.14,6.907c0.002,0.099,0.062,0.187,0.151,0.225l1.999,0.858  l0.238-0.022l0.11-0.212l-0.141-6.906C26.943,98.168,26.884,98.08,26.793,98.042z M25.083,104.153l-0.129-6.358l1.494,0.643  l0.129,6.357L25.083,104.153z M22.941,96.123l-1.999-0.857l-0.238,0.022l-0.11,0.212l0.14,6.906  c0.002,0.099,0.061,0.186,0.151,0.225l1.999,0.859l0.238-0.022l0.11-0.212l-0.14-6.908C23.09,96.249,23.031,96.161,22.941,96.123z   M21.23,102.235l-0.129-6.357l1.494,0.641l0.129,6.359L21.23,102.235z M18.796,94.159l-1.999-0.857l-0.238,0.022l-0.11,0.212  l0.141,6.906c0.002,0.099,0.062,0.187,0.151,0.225l1.999,0.857l0.238-0.022l0.11-0.212l-0.141-6.906  C18.946,94.285,18.886,94.197,18.796,94.159z M17.086,100.271l-0.129-6.357l1.494,0.641l0.129,6.357L17.086,100.271z M14.751,92.248  l-1.999-0.858l-0.235,0.021l-0.113,0.207l-0.044,6.789c0,0.097,0.054,0.185,0.141,0.227l2.015,0.976l0.241-0.013l0.118-0.211  l0.028-6.906C14.903,92.378,14.844,92.287,14.751,92.248z M14.376,98.985l-1.516-0.733l0.041-6.255l1.501,0.645L14.376,98.985z   M24.669,113.838l1.999,0.858l0.238-0.022l0.11-0.212l-0.14-6.906c-0.002-0.099-0.061-0.187-0.151-0.225l-1.999-0.859l-0.238,0.022  l-0.11,0.212l0.14,6.907C24.52,113.712,24.579,113.8,24.669,113.838z M26.38,107.727l0.129,6.357l-1.495-0.642l-0.129-6.358  L26.38,107.727z M20.816,111.921l2,0.857l0.238-0.022l0.11-0.212l-0.141-6.907c-0.002-0.099-0.062-0.187-0.151-0.225l-1.999-0.858  l-0.238,0.022l-0.11,0.212l0.14,6.908C20.667,111.795,20.726,111.883,20.816,111.921z M22.527,105.808l0.129,6.358l-1.495-0.641  l-0.129-6.359L22.527,105.808z M16.672,109.956l1.999,0.858l0.238-0.022l0.11-0.212l-0.141-6.906  c-0.002-0.099-0.061-0.187-0.151-0.225l-1.999-0.859l-0.238,0.022l-0.11,0.212l0.141,6.907  C16.523,109.83,16.582,109.918,16.672,109.956z M18.382,103.845l0.129,6.357l-1.494-0.642l-0.13-6.358L18.382,103.845z   M12.432,107.922l2.016,0.976l0.241-0.013l0.118-0.211l0.027-6.907c0-0.101-0.059-0.191-0.151-0.23l-1.999-0.856l-0.235,0.021  l-0.113,0.207l-0.044,6.788C12.29,107.792,12.345,107.88,12.432,107.922z M14.333,101.93l-0.025,6.345l-1.517-0.733l0.041-6.254  L14.333,101.93z M26.793,116.62l-1.999-0.859l-0.238,0.022l-0.11,0.212l0.14,6.907c0.002,0.099,0.062,0.187,0.151,0.225l1.999,0.858  l0.238-0.022l0.11-0.212l-0.141-6.906C26.943,116.746,26.884,116.658,26.793,116.62z M25.083,122.731l-0.129-6.358l1.494,0.643  l0.129,6.357L25.083,122.731z M22.941,114.701l-1.999-0.857l-0.238,0.022l-0.11,0.212l0.14,6.907  c0.002,0.099,0.062,0.187,0.151,0.225l1.999,0.857l0.238-0.022l0.11-0.212l-0.14-6.907C23.09,114.827,23.031,114.739,22.941,114.701  z M21.23,120.814l-0.129-6.358l1.494,0.641l0.129,6.358L21.23,120.814z M18.796,112.738l-1.999-0.859l-0.238,0.022l-0.11,0.212  l0.141,6.906c0.002,0.099,0.061,0.186,0.151,0.225l1.999,0.859l0.238-0.022l0.11-0.212l-0.141-6.906  C18.946,112.864,18.887,112.776,18.796,112.738z M17.086,118.849l-0.129-6.357l1.494,0.643l0.129,6.357L17.086,118.849z   M14.751,110.825l-1.999-0.857l-0.235,0.021l-0.113,0.207l-0.044,6.79c0,0.097,0.054,0.185,0.141,0.227l2.015,0.976l0.241-0.013  l0.118-0.211l0.028-6.908C14.903,110.955,14.844,110.864,14.751,110.825z M14.376,117.564l-1.516-0.733l0.041-6.256l1.501,0.644  L14.376,117.564z M26.453,135.198l-1.999-0.858l-0.238,0.022l-0.11,0.212l0.14,6.906c0.002,0.099,0.061,0.187,0.151,0.225  l1.999,0.858l0.238-0.022l0.11-0.212l-0.14-6.906C26.602,135.324,26.542,135.236,26.453,135.198z M24.742,141.31l-0.129-6.357  l1.494,0.642l0.129,6.357L24.742,141.31z M22.6,133.28l-1.999-0.858l-0.238,0.022l-0.11,0.212l0.141,6.906  c0.002,0.099,0.062,0.187,0.151,0.225l1.999,0.858l0.238-0.022l0.11-0.212l-0.14-6.906C22.749,133.406,22.689,133.318,22.6,133.28z   M20.889,139.392l-0.129-6.357l1.495,0.642l0.129,6.357L20.889,139.392z M18.455,131.315l-1.999-0.857l-0.238,0.022l-0.11,0.212  l0.14,6.906c0.002,0.099,0.062,0.187,0.151,0.225l2,0.857l0.238-0.022l0.11-0.212l-0.141-6.906  C18.604,131.441,18.545,131.354,18.455,131.315z M16.745,137.428l-0.129-6.357l1.494,0.641l0.13,6.357L16.745,137.428z   M14.41,129.404l-1.999-0.858l-0.235,0.021l-0.113,0.207l-0.044,6.789c0,0.097,0.054,0.185,0.141,0.227l2.016,0.977l0.241-0.013  l0.118-0.211l0.027-6.907C14.562,129.534,14.502,129.443,14.41,129.404z M14.036,136.143l-1.516-0.734l0.041-6.255l1.501,0.645  L14.036,136.143z M26.453,144.487l-1.999-0.858l-0.238,0.022l-0.11,0.212l0.14,6.906c0.002,0.099,0.061,0.187,0.151,0.225  l1.999,0.858l0.238-0.022l0.11-0.212l-0.14-6.906C26.602,144.613,26.542,144.525,26.453,144.487z M24.742,150.599l-0.129-6.357  l1.494,0.642l0.129,6.357L24.742,150.599z M22.6,142.569l-1.999-0.859l-0.238,0.022l-0.11,0.212l0.141,6.907  c0.002,0.099,0.062,0.187,0.151,0.225l1.999,0.858l0.238-0.022l0.11-0.212l-0.14-6.906C22.749,142.695,22.69,142.607,22.6,142.569z   M20.889,148.681l-0.129-6.358l1.495,0.643l0.129,6.357L20.889,148.681z M18.455,140.605l-1.999-0.858l-0.238,0.022l-0.11,0.212  l0.14,6.906c0.002,0.099,0.062,0.187,0.151,0.225l2,0.858l0.238-0.022l0.11-0.212l-0.141-6.906  C18.604,140.731,18.545,140.644,18.455,140.605z M16.745,146.717l-0.129-6.357l1.494,0.642l0.13,6.357L16.745,146.717z   M11.833,145.078l2.016,0.976l0.241-0.013l0.118-0.211l0.027-6.906c0-0.101-0.059-0.191-0.151-0.23l-1.999-0.858l-0.235,0.021  l-0.113,0.207l-0.044,6.789C11.692,144.948,11.747,145.036,11.833,145.078z M13.734,139.087l-0.025,6.344l-1.516-0.733l0.041-6.255  L13.734,139.087z M26.453,153.776l-1.999-0.857l-0.238,0.022l-0.11,0.212l0.14,6.905c0.002,0.099,0.061,0.187,0.151,0.225  l1.999,0.858l0.238-0.022l0.11-0.212l-0.14-6.906C26.602,153.902,26.542,153.814,26.453,153.776z M24.742,159.888l-0.129-6.356  l1.494,0.641l0.129,6.357L24.742,159.888z M22.6,151.858L20.601,151l-0.238,0.022l-0.11,0.212l0.141,6.907  c0.002,0.099,0.062,0.187,0.151,0.225l1.999,0.857l0.238-0.022l0.11-0.212l-0.14-6.906C22.749,151.984,22.689,151.896,22.6,151.858z   M20.889,157.971l-0.129-6.358l1.495,0.642l0.129,6.357L20.889,157.971z M18.455,149.895l-1.999-0.858l-0.238,0.022l-0.11,0.212  l0.14,6.906c0.002,0.099,0.062,0.187,0.151,0.225l2,0.858l0.238-0.022l0.11-0.212l-0.141-6.906  C18.604,150.021,18.545,149.933,18.455,149.895z M16.745,156.006l-0.129-6.357l1.494,0.642l0.13,6.357L16.745,156.006z   M14.41,147.981l-1.999-0.857l-0.235,0.021l-0.113,0.207l-0.044,6.79c0,0.097,0.054,0.185,0.141,0.227l2.016,0.975l0.241-0.013  l0.118-0.211l0.027-6.907C14.562,148.111,14.502,148.021,14.41,147.981z M14.036,154.721l-1.516-0.734l0.041-6.255l1.501,0.644  L14.036,154.721z M26.242,163.065l-1.999-0.858l-0.238,0.022l-0.11,0.212l0.141,6.907c0.002,0.099,0.062,0.187,0.151,0.225l2,0.857  l0.238-0.022l0.11-0.212l-0.141-6.906C26.392,163.191,26.332,163.104,26.242,163.065z M24.532,169.178l-0.129-6.358l1.495,0.642  l0.13,6.357L24.532,169.178z M22.389,161.147l-1.999-0.858l-0.238,0.022l-0.11,0.212l0.14,6.907  c0.002,0.099,0.062,0.187,0.151,0.225l2,0.858l0.238-0.022l0.11-0.212l-0.141-6.907C22.539,161.273,22.479,161.186,22.389,161.147z   M20.679,167.26l-0.129-6.358l1.494,0.642l0.13,6.358L20.679,167.26z M18.246,159.183l-2-0.858l-0.238,0.022l-0.11,0.212  l0.141,6.907c0.002,0.099,0.062,0.187,0.151,0.225l1.999,0.857l0.238-0.022l0.11-0.212l-0.14-6.906  C18.395,159.309,18.335,159.221,18.246,159.183z M16.535,165.295l-0.129-6.358l1.495,0.642l0.129,6.357L16.535,165.295z   M14.2,157.271l-2-0.858l-0.235,0.021l-0.113,0.207l-0.044,6.79c0,0.097,0.054,0.185,0.141,0.227l2.016,0.976l0.241-0.013  l0.118-0.211l0.027-6.907C14.352,157.401,14.292,157.311,14.2,157.271z M13.826,164.01l-1.517-0.733l0.041-6.256l1.501,0.645  L13.826,164.01z M26.242,172.355l-1.999-0.859l-0.238,0.022l-0.11,0.212l0.141,6.906c0.002,0.099,0.061,0.187,0.151,0.225l2,0.859  l0.238-0.022l0.11-0.212l-0.141-6.906C26.392,172.481,26.333,172.394,26.242,172.355z M24.532,178.466l-0.129-6.357l1.495,0.643  l0.13,6.357L24.532,178.466z M22.389,170.437l-1.999-0.858l-0.238,0.022l-0.11,0.212l0.14,6.907  c0.002,0.099,0.062,0.187,0.151,0.225l2,0.857l0.238-0.022l0.11-0.212l-0.141-6.906C22.539,170.562,22.479,170.475,22.389,170.437z   M20.679,176.549l-0.129-6.358l1.494,0.642l0.13,6.357L20.679,176.549z M18.246,168.472l-2-0.857l-0.238,0.022l-0.11,0.212  l0.141,6.906c0.002,0.099,0.062,0.187,0.151,0.225l1.999,0.857l0.238-0.022l0.11-0.212l-0.14-6.906  C18.395,168.598,18.335,168.51,18.246,168.472z M16.535,174.584l-0.129-6.357l1.495,0.641l0.129,6.357L16.535,174.584z   M14.2,166.561l-2-0.858l-0.235,0.021l-0.113,0.207l-0.044,6.79c0,0.097,0.054,0.185,0.141,0.227l2.016,0.975l0.241-0.013  l0.118-0.211l0.027-6.906C14.352,166.69,14.292,166.6,14.2,166.561z M13.826,173.299l-1.517-0.734l0.041-6.255l1.501,0.645  L13.826,173.299z M26.242,181.645l-1.999-0.859l-0.238,0.022l-0.11,0.212l0.141,6.906c0.002,0.099,0.061,0.187,0.151,0.225l2,0.859  l0.238-0.022l0.11-0.212l-0.141-6.906C26.392,181.771,26.333,181.683,26.242,181.645z M24.532,187.755l-0.129-6.357l1.495,0.643  l0.13,6.357L24.532,187.755z M22.389,179.726l-1.999-0.857l-0.238,0.022l-0.11,0.212l0.14,6.905  c0.002,0.099,0.062,0.187,0.151,0.225l2,0.858l0.238-0.022l0.11-0.212l-0.141-6.906C22.539,179.852,22.479,179.764,22.389,179.726z   M20.679,185.837l-0.129-6.356l1.494,0.641l0.13,6.357L20.679,185.837z M18.246,177.762l-2-0.858l-0.238,0.022l-0.11,0.212  l0.141,6.906c0.002,0.099,0.062,0.187,0.151,0.225l1.999,0.858l0.238-0.022l0.11-0.212l-0.14-6.906  C18.395,177.888,18.335,177.8,18.246,177.762z M16.535,183.873l-0.129-6.357l1.495,0.642l0.129,6.357L16.535,183.873z   M13.849,183.21l0.241-0.013l0.118-0.211l0.027-6.906c0-0.101-0.059-0.191-0.151-0.23l-1.999-0.857l-0.235,0.021l-0.113,0.207  l-0.044,6.789c0,0.097,0.054,0.185,0.141,0.227L13.849,183.21z M13.734,176.243l-0.025,6.345l-1.516-0.734l0.041-6.254  L13.734,176.243z M26.242,190.933l-1.999-0.859l-0.238,0.022l-0.11,0.212l0.141,6.907c0.002,0.099,0.062,0.187,0.151,0.225l2,0.858  l0.238-0.022l0.11-0.212l-0.141-6.906C26.392,191.059,26.333,190.971,26.242,190.933z M24.532,197.044l-0.129-6.358l1.495,0.643  l0.13,6.357L24.532,197.044z M22.389,189.015l-1.999-0.858l-0.238,0.022l-0.11,0.212l0.14,6.907  c0.002,0.099,0.062,0.187,0.151,0.225l2,0.857l0.238-0.022l0.11-0.212l-0.141-6.906C22.539,189.141,22.479,189.053,22.389,189.015z   M20.679,195.127l-0.129-6.358l1.494,0.642l0.13,6.357L20.679,195.127z M18.246,187.051l-2-0.858l-0.238,0.022l-0.11,0.212  l0.141,6.906c0.002,0.099,0.062,0.187,0.151,0.225l1.999,0.858l0.238-0.022l0.11-0.212l-0.14-6.906  C18.395,187.177,18.335,187.089,18.246,187.051z M16.535,193.162l-0.129-6.357l1.495,0.642l0.129,6.357L16.535,193.162z   M14.2,185.14l-2-0.859l-0.235,0.021l-0.113,0.207l-0.044,6.79c0,0.097,0.054,0.185,0.141,0.227l2.016,0.975l0.241-0.013  l0.118-0.211l0.027-6.905C14.352,185.27,14.292,185.179,14.2,185.14z M13.826,191.877l-1.517-0.734l0.041-6.254l1.501,0.645  L13.826,191.877z M26.696,125.908l-1.999-0.857l-0.238,0.022l-0.11,0.212l0.14,6.907c0.002,0.099,0.062,0.187,0.151,0.225  l1.999,0.857l0.238-0.022l0.11-0.212l-0.14-6.907C26.846,126.034,26.786,125.946,26.696,125.908z M24.986,132.021l-0.129-6.358  l1.494,0.641l0.129,6.358L24.986,132.021z M22.843,123.991l-1.999-0.858l-0.238,0.022l-0.11,0.212l0.141,6.907  c0.002,0.099,0.061,0.187,0.151,0.225l1.999,0.858l0.238-0.022l0.11-0.212l-0.14-6.907  C22.993,124.117,22.933,124.029,22.843,123.991z M21.133,130.104l-0.129-6.358l1.495,0.642l0.129,6.358L21.133,130.104z   M18.699,122.026l-1.999-0.858l-0.238,0.022l-0.11,0.212l0.14,6.906c0.002,0.099,0.062,0.187,0.151,0.225l2,0.858l0.238-0.022  l0.11-0.212l-0.141-6.906C18.848,122.152,18.789,122.064,18.699,122.026z M16.988,128.138l-0.129-6.357l1.494,0.642l0.13,6.357  L16.988,128.138z M14.654,120.115l-1.999-0.858l-0.235,0.021l-0.113,0.207l-0.044,6.79c0,0.097,0.054,0.185,0.141,0.227l2.016,0.976  l0.241-0.013l0.118-0.211l0.027-6.907C14.806,120.245,14.746,120.154,14.654,120.115z M14.279,126.854l-1.516-0.733l0.041-6.256  l1.501,0.645L14.279,126.854z"/>
</svg>