<svg xmlns="http://www.w3.org/2000/svg" xmlns:xlink="http://www.w3.org/1999/xlink" version="1.1" id="Your_Icon" x="0px" y="0px" width="100px" height="100px" viewBox="0 0 100 100" enable-background="new 0 0 100 100" xml:space="preserve">
<g>
	<path d="M83.278,17.723c-0.104-0.171-0.236-0.325-0.398-0.441l-9.348-8.87c-0.343-0.326-0.812-0.456-1.265-0.385   C72.181,8.011,72.092,8,72,8H25.5C24.671,8,24,8.671,24,9.5V15h-5.5c-0.829,0-1.5,0.671-1.5,1.5v78c0,0.828,0.671,1.5,1.5,1.5h56   c0.828,0,1.5-0.672,1.5-1.5V89h6.5c0.828,0,1.5-0.672,1.5-1.5V19C84,18.458,83.709,17.987,83.278,17.723z M73,93H20V18h4v69.5   c0,0.828,0.671,1.5,1.5,1.5H73V93z M27,86V11h44v7.5c0,0.829,0.672,1.5,1.5,1.5H81v66H27z"/>
	<path d="M72,27H36c-0.552,0-1,0.448-1,1s0.448,1,1,1h36c0.553,0,1-0.448,1-1S72.553,27,72,27z"/>
	<path d="M72,41H36c-0.552,0-1,0.448-1,1s0.448,1,1,1h36c0.553,0,1-0.448,1-1S72.553,41,72,41z"/>
	<path d="M72,53H36c-0.552,0-1,0.447-1,1s0.448,1,1,1h36c0.553,0,1-0.447,1-1S72.553,53,72,53z"/>
	<path d="M72,66H36c-0.552,0-1,0.447-1,1s0.448,1,1,1h36c0.553,0,1-0.447,1-1S72.553,66,72,66z"/>
</g>
</svg>