<?xml version="1.0" encoding="utf-8"?>
<!-- Generator: Adobe Illustrator 15.1.0, SVG Export Plug-In . SVG Version: 6.00 Build 0)  -->
<!DOCTYPE svg PUBLIC "-//W3C//DTD SVG 1.1//EN" "http://www.w3.org/Graphics/SVG/1.1/DTD/svg11.dtd">
<svg version="1.1" id="Layer_1" xmlns="http://www.w3.org/2000/svg" xmlns:xlink="http://www.w3.org/1999/xlink" x="0px" y="0px"
	 width="100px" height="97.741px" viewBox="-13.05 -7.116 100 97.741" enable-background="new -13.05 -7.116 100 97.741"
	 xml:space="preserve">
<g>
	<path d="M86.951,27.279V66.19c0,4.515-3.719,8.235-7.972,8.235h-8.099l3.585,16.199H1.028L3.95,74.426h-8.767
		c-4.782,0-8.233-3.721-8.233-8.235V27.279c0-4.514,3.451-8.232,8.233-8.232H5.408V6.561h3.585V-7.116h56.042V6.561h3.585v12.485
		h10.358C83.232,19.046,86.951,22.765,86.951,27.279z M6.605,33.521c0-3.056-2.655-5.711-5.845-5.711
		c-3.056,0-5.711,2.655-5.711,5.711c0,3.187,2.655,5.708,5.711,5.708C3.95,39.233,6.605,36.708,6.605,33.521z M67.691,85.712
		l-5.044-25.63H11.253l-3.852,25.63H67.691z M12.712,28.874h48.605V-2.07H12.712V28.874z M34.226,70.043h-14.74v3.718h14.74V70.043z
		 M55.211,70.043H40.471v3.718h14.739V70.043z"/>
</g>
</svg>
