<svg xmlns="http://www.w3.org/2000/svg" xmlns:xlink="http://www.w3.org/1999/xlink" version="1.1" id="Your_Icon" x="0px" y="0px" width="100px" height="100px" viewBox="0 0 100 100" enable-background="new 0 0 100 100" xml:space="preserve">
<g>
	<path fill="#000000" d="M29,23h36c0.553,0,1-0.448,1-1s-0.447-1-1-1H29c-0.552,0-1,0.448-1,1S28.448,23,29,23z"/>
	<path fill="#000000" d="M29,37h36c0.553,0,1-0.448,1-1s-0.447-1-1-1H29c-0.552,0-1,0.448-1,1S28.448,37,29,37z"/>
	<path fill="#000000" d="M29,49h36c0.553,0,1-0.448,1-1s-0.447-1-1-1H29c-0.552,0-1,0.448-1,1S28.448,49,29,49z"/>
	<path fill="#000000" d="M65,62c0.553,0,1-0.447,1-1s-0.447-1-1-1H29c-0.552,0-1,0.447-1,1s0.448,1,1,1H65z"/>
	<path fill="#000000" d="M87.3,68.947c-2.882-2.881-6.539-4.51-10.3-4.896V13c0-0.542-0.291-1.013-0.722-1.277   c-0.104-0.171-0.236-0.325-0.398-0.441l-9.348-8.87c-0.344-0.326-0.813-0.457-1.266-0.385C65.18,2.011,65.092,2,65,2H18.5   C17.671,2,17,2.671,17,3.5V9h-5.5C10.671,9,10,9.671,10,10.5v78c0,0.828,0.671,1.5,1.5,1.5h49.293   c0.674,1.081,1.466,2.11,2.405,3.05c6.656,6.655,17.447,6.655,24.104,0S93.956,75.604,87.3,68.947z M20,5h44v7.5   c0,0.829,0.672,1.5,1.5,1.5H74v50.017c-3.936,0.287-7.791,1.922-10.801,4.931C60.126,72.021,58.49,75.977,58.255,80H20V5z M13,87   V12h4v69.5c0,0.828,0.671,1.5,1.5,1.5h39.839c0.16,1.36,0.485,2.703,0.973,4H13z M87.089,83h-23.27c-0.828,0-1.5-0.672-1.5-1.5   s0.671-1.5,1.5-1.5h23.27c0.828,0,1.5,0.672,1.5,1.5S87.917,83,87.089,83z"/>
</g>
</svg>