<svg xmlns="http://www.w3.org/2000/svg" xmlns:xlink="http://www.w3.org/1999/xlink" version="1.1" id="Your_Icon" x="0px" y="0px" width="100px" height="100px" viewBox="0 0 100 100" enable-background="new 0 0 100 100" xml:space="preserve">
<g>
	<path d="M47,51.5V23.549c3.764-0.462,8.36,0.904,11.498,4.041c3.197,3.196,4.59,7.733,3.579,12.38l-1.364-1.334   c-0.524-0.524-1.501-0.412-2.024,0.111s-0.644,1.485-0.119,2.01l3.476,3.479c0.771,0.771,2.341,0.839,3.142,0.039l3.479-3.479   c0.524-0.524,0.399-1.442-0.126-1.967s-1.473-0.679-1.996-0.155l-0.954,0.954c-0.02-5.637-1.181-10.305-4.793-13.917   c-3.734-3.734-9.155-5.322-13.796-4.75V11c0-0.162-0.032-0.315-0.08-0.461c0-0.013,0.004-0.025,0.004-0.039   c0-0.484-0.229-0.916-0.586-1.189l-5.769-5.863c-0.342-0.348-0.825-0.492-1.294-0.42C39.186,3.011,39.094,3,39,3H11.5   C10.671,3,10,3.671,10,4.5v47c0,0.828,0.671,1.5,1.5,1.5h34C46.329,53,47,52.328,47,51.5z M13,50V6h25v4.5   c0,0.829,0.671,1.5,1.5,1.5H44v38H13z"/>
	<path d="M89.92,54.538c0-0.013,0.004-0.025,0.004-0.038c0-0.484-0.229-0.915-0.586-1.189l-5.769-5.863   c-0.343-0.348-0.825-0.491-1.293-0.42C82.187,47.011,82.095,47,82,47H54.5c-0.828,0-1.5,0.671-1.5,1.5v27.448   c-4.397,0.921-9.163-0.391-12.619-3.847c-3.197-3.196-4.651-7.733-3.641-12.38l1.334,1.334c0.524,0.524,1.486,0.412,2.01-0.111   s0.636-1.485,0.111-2.01l-3.479-3.479c-0.771-0.771-2.343-0.839-3.144-0.039l-3.479,3.479c-0.524,0.524-0.399,1.442,0.126,1.967   c0.524,0.524,1.472,0.679,1.995,0.155l0.954-0.954c0.02,5.637,1.303,10.305,4.915,13.917c4.028,4.028,9.675,5.561,14.917,4.574   V95.5c0,0.828,0.672,1.5,1.5,1.5h34c0.828,0,1.5-0.672,1.5-1.5V55C90,54.838,89.968,54.685,89.92,54.538z M56,94V50h25v4.5   c0,0.828,0.672,1.5,1.5,1.5H87v38H56z"/>
</g>
</svg>