<svg xmlns="http://www.w3.org/2000/svg" xmlns:xlink="http://www.w3.org/1999/xlink" version="1.1" id="&#1057;&#1083;&#1086;&#1081;_1" x="0px" y="0px" width="90px" height="90px" viewBox="0 0 90 90" enable-background="new 0 0 90 90" xml:space="preserve">
<path fill="#000000" d="M87.977,67.868c0-0.054-0.045-0.099-0.099-0.099h-8.326c0.002-0.003,0.003-0.007,0.005-0.01H52.558  c-0.111,0.555-0.6,0.973-1.187,0.973H39.728c-0.587,0-1.076-0.418-1.186-0.973h-27c0.001,0.003,0.003,0.007,0.005,0.01H3.221  c-0.054,0-0.099,0.045-0.099,0.099v1.213c0,0.055,0.022,0.103,0.058,0.139H3.179c0,0,0.965,2.039,3.899,2.039h76.94  c2.934,0,3.899-2.039,3.899-2.039l0,0c0.036-0.036,0.059-0.084,0.059-0.139V67.868z"/>
<path fill="#000000" d="M77.556,20.809H13.542c-1.244,0-2.263,1.019-2.263,2.263v43.032h68.539V23.072  C79.818,21.827,78.8,20.809,77.556,20.809z M45.549,21.906c0.475,0,0.859,0.385,0.859,0.859s-0.385,0.859-0.859,0.859  s-0.859-0.385-0.859-0.859S45.074,21.906,45.549,21.906z M75.842,62.242v0.348H15.309v-0.348V24.792h60.533V62.242z"/>
<g>
</g>
<g>
</g>
<g>
</g>
<g>
</g>
<g>
</g>
<g>
</g>
</svg>