<svg xmlns="http://www.w3.org/2000/svg" xmlns:xlink="http://www.w3.org/1999/xlink" version="1.1" id="Your_Icon" x="0px" y="0px" width="100px" height="100px" viewBox="0 0 100 100" enable-background="new 0 0 100 100" xml:space="preserve">
<path d="M83.012,17.5c0-0.527-0.271-0.99-0.682-1.258L66.477,2.637c-0.15-0.129-0.324-0.211-0.505-0.271C65.709,2.141,65.373,2,65,2  H18.5C17.671,2,17,2.671,17,3.5v93c0,0.828,0.671,1.5,1.5,1.5h63c0.828,0,1.5-0.672,1.5-1.5V18c0-0.067-0.011-0.13-0.02-0.195  C83.001,17.707,83.012,17.604,83.012,17.5z M20,95V5h44v12.5c0,0.829,0.672,1.5,1.5,1.5H80v76H20z"/>
<path fill="#000000" d="M34.574,45.87l-7.191,7.191c-0.545,0.543-0.883,1.295-0.883,2.124c0,0.827,0.336,1.575,0.877,2.118  c0,0.001,0.002,0.002,0.002,0.003l7.195,7.194c1.172,1.172,3.071,1.172,4.242,0c1.172-1.172,1.172-3.014,0-4.186l-2.072-2.012  h17.813c1.657,0,3-1.344,3-3c0-1.657-1.343-3-3-3H36.743l2.073-2.132c0.586-0.585,0.879-1.384,0.879-2.15s-0.293-1.55-0.879-2.136  C37.646,44.714,35.746,44.7,34.574,45.87z"/>
<path fill="#000000" d="M65.483,55.51l7.191-7.191c0.545-0.543,0.883-1.295,0.883-2.124c0-0.827-0.336-1.575-0.877-2.118  c0-0.001-0.002-0.002-0.002-0.003l-7.195-7.194c-1.172-1.172-3.071-1.172-4.242,0c-1.172,1.172-1.172,3.014,0,4.186l2.072,2.012  H45.5c-1.657,0-3,1.344-3,3c0,1.657,1.343,3,3,3h17.814l-2.073,2.132c-0.586,0.585-0.879,1.384-0.879,2.15s0.293,1.55,0.879,2.136  C62.412,56.666,64.312,56.68,65.483,55.51z"/>
</svg>