<svg xmlns="http://www.w3.org/2000/svg" xmlns:xlink="http://www.w3.org/1999/xlink" version="1.1" id="Camada_1" x="0px" y="0px" width="100px" height="100px" viewBox="0 0 100 100" enable-background="new 0 0 100 100" xml:space="preserve">
<path d="M93,66V23H20v23H8v32h19v4h12v-4h35v-2H61V66H93z M19.445,76.743c-0.484,0-0.876-0.392-0.876-0.876  c0-0.484,0.392-0.876,0.876-0.876c0.484,0,0.876,0.392,0.876,0.876C20.321,76.35,19.929,76.743,19.445,76.743z M9,74V47h11.221  h2.142H30v13h-3v3.696v1.947V74H9z M33.317,80.929c-0.35,0-0.633-0.283-0.633-0.633s0.283-0.633,0.633-0.633  s0.633,0.283,0.633,0.633S33.666,80.929,33.317,80.929z M38,79H28v-0.894v-4.479v-7.983v-1.947V61h1.568h0.974H38v2.696v1.947V79z   M51,76H39V66h12V76z M39,64v-4h-8V46h-9V25h69v39H39z"/>
</svg>