<svg xmlns="http://www.w3.org/2000/svg" xmlns:xlink="http://www.w3.org/1999/xlink" version="1.1" id="Layer_1" x="0px" y="0px" width="75.1879699248px" height="100px" viewBox="0 0 100 133.066" enable-background="new 0 0 100 133.066" xml:space="preserve">
<g>
	<path fill="none" d="M13.747,73.798H5.23c-2.624,0-4.75,2.103-4.75,4.694l9.592,43.785c0,2.594,2.126,4.695,4.75,4.695h70.356   c2.623,0,4.75-2.104,4.75-4.695l9.592-43.785c0-2.592-2.127-4.693-4.75-4.693h-8.306 M50,103.357c-1.407,0-2.549-1.142-2.549-2.549   c0-1.408,1.142-2.551,2.549-2.551c1.408,0,2.549,1.143,2.549,2.551C52.549,102.216,51.408,103.357,50,103.357z"/>
	<path fill="none" d="M56.833,73.798h-4.671"/>
	<g>
		<circle fill="#000000" cx="50" cy="100.807" r="2.549"/>
		<path fill="#000000" d="M90.268,128.962H9.733c-1.133,0-2.052,0.919-2.052,2.053c0,1.132,0.919,2.052,2.052,2.052h80.535    c1.133,0,2.051-0.92,2.051-2.052C92.318,129.881,91.4,128.962,90.268,128.962z"/>
	</g>
	<path fill="#000000" d="M56.833,73.798c0.187-0.258,0.375-0.519,0.563-0.777h-5.289l0.055,0.777H56.833z"/>
	<path fill="#000000" d="M47.123,73.798l0.055-0.777h-5.075c0.173,0.262,0.344,0.52,0.517,0.777H47.123z"/>
	<path fill="#000000" d="M14.389,127.749h71.222c2.65,0,4.797-2.147,4.797-4.796L100,77.816c0-2.647-2.146-4.796-4.796-4.796h-9.112   c0.129,0.257,0.254,0.515,0.373,0.777h8.307c2.623,0,4.75,2.103,4.75,4.694l-9.594,43.785c0,2.594-2.125,4.695-4.75,4.695H14.822   c-2.624,0-4.75-2.104-4.75-4.695L0.479,78.492c0-2.594,2.126-4.694,4.75-4.694h8.517c0.118-0.264,0.245-0.521,0.372-0.777H4.796   C2.147,73.021,0,75.168,0,77.816l9.592,45.137C9.592,125.602,11.739,127.749,14.389,127.749z"/>
	<path fill="#000000" d="M42.619,73.798c-0.172-0.26-0.344-0.517-0.517-0.777H14.119c-0.127,0.257-0.254,0.515-0.372,0.777H42.619z"/>
	<polygon fill="#000000" points="52.162,73.798 52.107,73.021 47.177,73.021 47.123,73.798  "/>
	<path fill="#000000" d="M86.465,73.798c-0.119-0.264-0.244-0.521-0.373-0.777H57.396c-0.188,0.26-0.377,0.521-0.563,0.777H86.465z"/>
	<path fill="#000000" d="M88.609,73.021c0-11.4-7.491-17.383-17.82-20.636C75.165,52.875,79,53.626,79,53.626   c-8.726-4.793-8.498-22.009-8.498-22.009c1.522-33.344-20.48-31.601-20.48-31.601l-0.016,0.054l-0.018-0.054   c0,0-22.006-1.743-20.48,31.601c0,0,0.225,17.214-8.5,22.009c0,0,2.347-0.159,5.488-0.218C17.601,57.382,11.4,62.645,11.4,73.021    M44.009,26.248c0,0,7.369-2.461,16.37-8.942c0.044-0.032,0.092-0.065,0.134-0.098c0,0,0.162,0.232,0.392,0.628   c0.779,1.339,2.451,5.328-0.711,7.154l5.764,0.732h0.104l1.057,0.195c-0.013,0.836-0.075,1.657-0.191,2.461   c-0.333,4.413-1.454,8.48-3.156,11.891c-3.096,6.204-8.109,10.236-13.768,10.236c-8.625,0-15.754-9.372-16.873-21.525   C33.13,28.982,39.944,27.853,44.009,26.248z M55.898,59.064l-5.892,9.581l-5.894-9.581c-4.287-0.971-7.596-2.97-8.93-5.435   c3.456,0.3,6.387,0.933,7.143,2.178l-3.249-7.242c3.113,3.108,6.874,4.925,10.926,4.925c3.961,0,7.645-1.735,10.711-4.711   l-2.262,4.711c0.758-1.248,3.608-1.584,6.954-1.502C64.876,55.195,61.102,57.887,55.898,59.064z"/>
</g>
</svg>