<svg xmlns="http://www.w3.org/2000/svg" xmlns:xlink="http://www.w3.org/1999/xlink" version="1.1" id="Your_Icon" x="0px" y="0px" width="100px" height="100px" viewBox="0 0 100 100" enable-background="new 0 0 100 100" xml:space="preserve">
<path d="M83.012,17.5c0-0.527-0.271-0.99-0.682-1.258L66.477,2.637c-0.15-0.129-0.324-0.211-0.505-0.271C65.709,2.141,65.373,2,65,2  H18.5C17.671,2,17,2.671,17,3.5v93c0,0.828,0.671,1.5,1.5,1.5h63c0.828,0,1.5-0.672,1.5-1.5V18c0-0.067-0.011-0.13-0.02-0.195  C83.001,17.707,83.012,17.604,83.012,17.5z M20,95V5h44v12.5c0,0.829,0.672,1.5,1.5,1.5H80v76H20z"/>
<g>
	<path d="M66.658,49.867c-0.741,0-1.343,0.601-1.343,1.342c0,7.621-6.2,13.762-13.821,13.762c-4.521,0-8.758-1.971-11.328-5.971   h1.887c0.741,0,1.342-0.76,1.342-1.5S42.794,56,42.053,56h-4.922C36.041,56,35,56.646,35,57.777v4.921   C35,63.439,35.738,64,36.479,64C37.221,64,38,63.439,38,62.698V61.35c4,3.972,8.148,6.365,13.258,6.365   c9.102,0,16.624-7.404,16.624-16.506C67.882,50.468,67.398,49.867,66.658,49.867z"/>
</g>
<g>
	<path d="M34.224,51.715c0.741,0,1.343-0.601,1.343-1.342c0-7.621,6.2-13.553,13.821-13.553c4.521,0,8.757,2.18,11.328,6.18h-1.887   c-0.741,0-1.342,0.76-1.342,1.5s0.601,1.5,1.342,1.5h4.921c1.09,0,2.25-1.063,2.25-2.195v-4.921c0-0.741-0.737-1.302-1.479-1.302   c-0.741,0-1.521,0.561-1.521,1.302v1.349c-4-3.972-8.207-6.365-13.316-6.365c-9.102,0-16.654,7.404-16.654,16.506   C33.029,51.114,33.483,51.715,34.224,51.715z"/>
</g>
</svg>