<svg xmlns="http://www.w3.org/2000/svg" xmlns:xlink="http://www.w3.org/1999/xlink" version="1.1" id="&#1057;&#1083;&#1086;&#1081;_1" x="0px" y="0px" width="90px" height="90px" viewBox="0 0 90 90" enable-background="new 0 0 90 90" xml:space="preserve">
<path fill="#000000" d="M75.916,3.021H15.711c-1.479,0-2.681,1.203-2.681,2.681v79.084c0,1.479,1.202,2.682,2.681,2.682h60.205  c1.479,0,2.682-1.202,2.682-2.682V5.702C78.598,4.224,77.395,3.021,75.916,3.021z M45.814,6.171c0.407,0,0.737,0.33,0.737,0.737  c0,0.407-0.33,0.737-0.737,0.737c-0.408,0-0.737-0.331-0.737-0.737C45.077,6.501,45.406,6.171,45.814,6.171z M45.814,85.562  c-1.092,0-1.978-0.885-1.978-1.978s0.886-1.978,1.978-1.978s1.978,0.885,1.978,1.978S46.906,85.562,45.814,85.562z M72.313,79.735  H19.315V10.754h52.998V79.735z"/>
<g>
</g>
<g>
</g>
<g>
</g>
<g>
</g>
<g>
</g>
<g>
</g>
</svg>